{
classes = (
{
automatic = 1;
code = "A Aacute Abreve Acircumflex Adieresis Agrave Amacron Aogonek Aring Aringacute Atilde AE AEacute B C Cacute Ccaron Ccedilla Ccircumflex Cdotaccent D Eth Dcaron Dcroat E Eacute Ebreve Ecaron Ecircumflex Edieresis Edotaccent Egrave Emacron Eogonek F G Gbreve Gcircumflex Gcommaaccent Gdotaccent H Hbar Hcircumflex I IJ Iacute Ibreve Icircumflex Idieresis Idotaccent Igrave Imacron Iogonek Itilde J Jcircumflex K Kcommaaccent L Lacute Lcaron Lcommaaccent Ldot Lslash M N Nacute Ncaron Ncommaaccent Eng Ntilde O Oacute Obreve Ocircumflex Odieresis Ograve Ohungarumlaut Omacron Oslash Oslashacute Otilde OE P Thorn Q R Racute Rcaron Rcommaaccent S Sacute Scaron Scedilla Scircumflex Scommaaccent T Tbar Tcaron Tcedilla Tcommaaccent U Uacute Ubreve Ucircumflex Udieresis Ugrave Uhungarumlaut Umacron Uogonek Uring Utilde V W Wacute Wcircumflex Wdieresis Wgrave X Y Yacute Ycircumflex Ydieresis Ygrave Z Zacute Zcaron Zdotaccent Delta Omega";
name = Uppercase;
},
{
code = "fa-deva k_ra-deva pha-deva fa-deva ph_ra-deva ph_la-deva.loclMAR ph_ra-deva f_ra-deva qa-deva jha-deva.loclNEP ka-deva qa-deva k_ra-deva";
name = iiMatra.02;
},
{
code = "k-deva k_ss-deva kh-deva g-deva g_n-deva g_r-deva gh-deva gh_r-deva ng-deva ng_k-deva c-deva ch-deva j-deva j_ny-deva j_r-deva jh-deva ny-deva tt-deva tth-deva dd-deva ddh-deva nn-deva t-deva t_t-deva t_r-deva th-deva d-deva dh-deva dh_r-deva n-deva n_n-deva nnn-deva p-deva ph-deva b-deva bh-deva bh_n-deva bh_r-deva m-deva m_n-deva m_r-deva y-deva y_n-deva y_r-deva rr-deva l-deva ll-deva lll-deva v-deva v_n-deva v_r-deva sh-deva sh_r-deva ss-deva s-deva h-deva q-deva khh-deva ghh-deva z-deva f-deva j_j-deva.alt sh-deva.loclMAR jh-deva.loclNEP tt-deva.post tth-deva.post ddh-deva.post ng-deva.pre tt-deva.pre tth-deva.pre dd-deva.pre ddh-deva.pre sh-deva.ss02";
name = DevaHalfforms;
},
{

glyphs = (
{
glyphname = A;
lastChange = "2014-11-08 03:27:49 -0300";
layers = (
{
anchors = (
{
name = bottom;
position = "{308, 0}";
},
{
name = ogonek;
position = "{611, 40}";
},
{
name = top;
position = "{341, 647}";
}
);
layerId = "B954E078-309A-4CF1-B397-1A2EBEB3E29A";
name = Light;
paths = (
{
closed = 1;
nodes = (
"418 338 OFFCURVE",
"334 649 OFFCURVE",
"334 649 CURVE",
"326 649 LINE",
"263 632 LINE",
"68 121 LINE",
"46 65 OFFCURVE",
"27 48 OFFCURVE",
"-10 44 CURVE",
"-18 -3 LINE",
"-18 -3 OFFCURVE",
"44 0 OFFCURVE",
"92 0 CURVE SMOOTH",
"158 0 OFFCURVE",
"231 -7 OFFCURVE",
"231 -7 CURVE",
"237 36 LINE",
"235 40 LINE",
"178 40 LINE",
"136 40 OFFCURVE",
"118 52 OFFCURVE",
"118 81 CURVE SMOOTH",
"118 90 OFFCURVE",
"121 102 OFFCURVE",
"127 120 CURVE SMOOTH",
"164 224 LINE",
"187 227 OFFCURVE",
"234 232 OFFCURVE",
"273 232 CURVE SMOOTH",
"301 232 OFFCURVE",
"353 232 OFFCURVE",
"377 231 CURVE",
"410 122 LINE",
"416 103 OFFCURVE",
"419 87 OFFCURVE",
"419 74 CURVE SMOOTH",
"419 50 OFFCURVE",
"399 41 OFFCURVE",
"330 36 CURVE",
"326 -3 LINE",
"329 -10 LINE",
"329 -10 OFFCURVE",
"401 0 OFFCURVE",
"478 0 CURVE SMOOTH",
"512 0 OFFCURVE",
"584 -3 OFFCURVE",
"584 -3 CURVE",
"591 38 LINE",
"589 42 LINE",
"531 47 OFFCURVE",
"509 63 OFFCURVE",
"493 113 CURVE SMOOTH"
);
},
{
closed = 1;
nodes = (
"277 540 LINE",
"284 540 LINE",
"363 278 LINE",
"340 276 OFFCURVE",
"297 273 OFFCURVE",
"270 273 CURVE SMOOTH",
"182 273 LINE"
);
}
);
width = 578;
}
);
leftKerningGroup = A;
rightKerningGroup = A;
unicode = 0041;
},
{
glyphname = AE;
lastChange = "2014-11-08 03:27:49 -0300";
layers = (
{
anchors = (
{
name = top;
position = "{499, 647}";
}
);
layerId = "B954E078-309A-4CF1-B397-1A2EBEB3E29A";
name = Light;
paths = (
{
closed = 1;
nodes = (
"299 -3 LINE",
"301 -10 LINE",
"301 -10 OFFCURVE",
"372 0 OFFCURVE",
"449 0 CURVE SMOOTH",
"483 0 LINE SMOOTH",
"584 0 OFFCURVE",
"752 -8 OFFCURVE",
"752 -7 CURVE",
"757 -1 LINE",
"766 84 OFFCURVE",
"784 167 OFFCURVE",
"784 167 CURVE",
"781 172 LINE",
"737 167 LINE",
"722 57 OFFCURVE",
"704 45 OFFCURVE",
"559 45 CURVE SMOOTH",
"505 45 OFFCURVE",
"483 62 OFFCURVE",
"475 113 CURVE SMOOTH",
"447 282 LINE",
"556 291 LINE",
"642 294 LINE",
"655 347 LINE",
"651 352 LINE",
"559 339 LINE",
"441 328 LINE",
"410 556 LINE",
"411 584 OFFCURVE",
"418 587 OFFCURVE",
"480 587 CURVE SMOOTH",
"623 587 OFFCURVE",
"637 581 OFFCURVE",
"637 516 CURVE SMOOTH",
"637 502 OFFCURVE",
"635 473 OFFCURVE",
"635 473 CURVE",
"683 477 LINE",
"689 569 OFFCURVE",
"706 643 OFFCURVE",
"706 643 CURVE",
"703 649 LINE",
"643 640 OFFCURVE",
"563 637 OFFCURVE",
"405 637 CURVE SMOOTH",
"310 637 OFFCURVE",
"246 641 OFFCURVE",
"246 640 CURVE",
"239 596 LINE",
"241 592 LINE",
"241 592 OFFCURVE",
"263 594 OFFCURVE",
"275 594 CURVE SMOOTH",
"289 594 OFFCURVE",
"297 590 OFFCURVE",
"300 578 CURVE",
"53 121 LINE SMOOTH",
"23 66 OFFCURVE",
"-10 31 OFFCURVE",
"-10 31 CURVE",
"-3 -4 LINE",
"-3 -4 OFFCURVE",
"43 0 OFFCURVE",
"65 0 CURVE SMOOTH",
"129 0 OFFCURVE",
"203 -7 OFFCURVE",
"203 -7 CURVE",
"208 40 LINE",
"151 40 LINE SMOOTH",
"113 40 OFFCURVE",
"96 51 OFFCURVE",
"96 74 CURVE SMOOTH",
"96 85 OFFCURVE",
"100 97 OFFCURVE",
"112 120 CURVE SMOOTH",
"183 258 LINE",
"274 268 LINE",
"373 276 LINE",
"391 153 LINE SMOOTH",
"394 131 OFFCURVE",
"398 109 OFFCURVE",
"398 87 CURVE SMOOTH",
"398 51 OFFCURVE",
"380 42 OFFCURVE",
"301 36 CURVE"
);
},
{
closed = 1;
nodes = (
"210 310 LINE",
"328 539 LINE",
"337 539 LINE",
"367 321 LINE",
"294 315 LINE"
);
}
);
width = 810;
}
);
leftKerningGroup = A;
rightKerningGroup = E;
unicode = 00C6;
},
{
glyphname = B;
lastChange = "2014-11-08 03:27:49 -0300";
layers = (
{
anchors = (
{
name = bottom;
position = "{330, 0}";
},
{
name = top;
position = "{335, 647}";
}
);
layerId = "B954E078-309A-4CF1-B397-1A2EBEB3E29A";
name = Light;
paths = (
{
closed = 1;
nodes = (
"223 0 OFFCURVE",
"263 -10 OFFCURVE",
"307 -10 CURVE SMOOTH",
"433 -10 OFFCURVE",
"542 79 OFFCURVE",
"542 183 CURVE SMOOTH",
"542 257 OFFCURVE",
"484 314 OFFCURVE",
"387 335 CURVE",
"461 367 OFFCURVE",
"503 423 OFFCURVE",
"503 489 CURVE SMOOTH",
"503 587 OFFCURVE",
"433 641 OFFCURVE",
"306 641 CURVE SMOOTH",
"306 641 OFFCURVE",
"225 637 OFFCURVE",
"188 637 CURVE SMOOTH",
"150 637 OFFCURVE",
"77 640 OFFCURVE",
"77 640 CURVE",
"70 596 LINE",
"72 592 LINE",
"72 592 OFFCURVE",
"94 594 OFFCURVE",
"106 594 CURVE SMOOTH",
"136 594 OFFCURVE",
"143 583 OFFCURVE",
"143 540 CURVE SMOOTH",
"142 120 LINE SMOOTH",
"142 64 OFFCURVE",
"126 46 OFFCURVE",
"64 34 CURVE",
"58 -12 LINE",
"58 -12 OFFCURVE",
"122 0 OFFCURVE",
"172 0 CURVE SMOOTH"
);
},
{
closed = 1;
nodes = (
"321 300 LINE",
"410 284 OFFCURVE",
"456 237 OFFCURVE",
"456 165 CURVE SMOOTH",
"456 89 OFFCURVE",
"407 41 OFFCURVE",
"327 41 CURVE SMOOTH",
"244 41 OFFCURVE",
"213 60 OFFCURVE",
"213 111 CURVE",
"217 298 LINE"
);
},
{
closed = 1;
nodes = (
"221 434 OFFCURVE",
"224 510 OFFCURVE",
"228 575 CURVE SMOOTH",
"229 593 OFFCURVE",
"232 598 OFFCURVE",
"246 598 CURVE SMOOTH",
"366 598 OFFCURVE",
"422 558 OFFCURVE",
"422 472 CURVE SMOOTH",
"422 365 OFFCURVE",
"328 343 OFFCURVE",
"328 343 CURVE",
"313 343 OFFCURVE",
"219 351 OFFCURVE",
"219 351 CURVE"
);
}
);
width = 597;
}
);
leftKerningGroup = H;
rightKerningGroup = B;
unicode = 0042;
},
{
glyphname = C;
lastChange = "2014-11-08 03:27:49 -0300";
layers = (
{
anchors = (
{
name = bottom;
position = "{314, 0}";
},
{
name = top;
position = "{335, 647}";
}
);
layerId = "B954E078-309A-4CF1-B397-1A2EBEB3E29A";
name = Light;
paths = (
{
closed = 1;
nodes = (
"458 -12 OFFCURVE",
"544 28 OFFCURVE",
"544 28 CURVE",
"550 37 LINE",
"557 109 OFFCURVE",
"577 200 OFFCURVE",
"577 200 CURVE",
"529 196 LINE",
"504 88 OFFCURVE",
"450 38 OFFCURVE",
"359 38 CURVE SMOOTH",
"221 38 OFFCURVE",
"130 154 OFFCURVE",
"130 330 CURVE SMOOTH",
"130 489 OFFCURVE",
"216 590 OFFCURVE",
"350 590 CURVE SMOOTH",
"448 590 OFFCURVE",
"497 559 OFFCURVE",
"497 497 CURVE SMOOTH",
"497 475 OFFCURVE",
"494 448 OFFCURVE",
"494 448 CURVE",
"542 452 LINE",
"548 544 OFFCURVE",
"567 619 OFFCURVE",
"567 619 CURVE",
"563 625 LINE",
"563 625 OFFCURVE",
"472 649 OFFCURVE",
"389 649 CURVE SMOOTH",
"187 649 OFFCURVE",
"40 500 OFFCURVE",
"40 297 CURVE SMOOTH",
"40 108 OFFCURVE",
"157 -12 OFFCURVE",
"339 -12 CURVE SMOOTH"
);
}
);
width = 629;
}
);
leftKerningGroup = O;
rightKerningGroup = C;
unicode = 0043;
},
{
glyphname = D;
lastChange = "2014-11-08 03:27:49 -0300";
layers = (
{
anchors = (
{
name = bottom;
position = "{318, 0}";
},
{
name = center;
position = "{341, 324}";
},
{
name = top;
position = "{347, 647}";
}
);
layerId = "B954E078-309A-4CF1-B397-1A2EBEB3E29A";
name = Light;
paths = (
{
closed = 1;
nodes = (
"511 -12 OFFCURVE",
"663 143 OFFCURVE",
"663 342 CURVE SMOOTH",
"663 520 OFFCURVE",
"529 641 OFFCURVE",
"334 641 CURVE SMOOTH",
"334 641 OFFCURVE",
"228 637 OFFCURVE",
"182 637 CURVE SMOOTH",
"144 637 OFFCURVE",
"77 640 OFFCURVE",
"77 640 CURVE",
"70 596 LINE",
"72 592 LINE",
"72 592 OFFCURVE",
"94 594 OFFCURVE",
"106 594 CURVE SMOOTH",
"136 594 OFFCURVE",
"143 583 OFFCURVE",
"143 540 CURVE SMOOTH",
"142 120 LINE SMOOTH",
"142 64 OFFCURVE",
"126 46 OFFCURVE",
"64 34 CURVE",
"58 -12 LINE",
"58 -12 OFFCURVE",
"123 0 OFFCURVE",
"173 0 CURVE SMOOTH",
"224 0 OFFCURVE",
"317 -12 OFFCURVE",
"317 -12 CURVE"
);
},
{
closed = 1;
nodes = (
"462 592 OFFCURVE",
"572 494 OFFCURVE",
"572 318 CURVE SMOOTH",
"572 145 OFFCURVE",
"484 39 OFFCURVE",
"340 39 CURVE SMOOTH",
"239 39 OFFCURVE",
"214 58 OFFCURVE",
"214 131 CURVE SMOOTH",
"214 176 OFFCURVE",
"220 339 OFFCURVE",
"229 570 CURVE SMOOTH",
"230 588 OFFCURVE",
"237 592 OFFCURVE",
"265 592 CURVE SMOOTH"
);
}
);
width = 703;
}
);
leftKerningGroup = H;
rightKerningGroup = O;
unicode = 0044;
},
{
glyphname = Eth;
lastChange = "2014-11-08 03:27:49 -0300";
layers = (
{
layerId = "B954E078-309A-4CF1-B397-1A2EBEB3E29A";
name = Light;
paths = (
{
closed = 1;
nodes = (
"518 -12 OFFCURVE",
"670 143 OFFCURVE",
"670 342 CURVE SMOOTH",
"670 516 OFFCURVE",
"533 641 OFFCURVE",
"341 641 CURVE SMOOTH",
"341 641 OFFCURVE",
"235 637 OFFCURVE",
"189 637 CURVE SMOOTH",
"151 637 OFFCURVE",
"84 640 OFFCURVE",
"84 640 CURVE",
"77 596 LINE",
"79 592 LINE",
"79 592 OFFCURVE",
"101 594 OFFCURVE",
"113 594 CURVE SMOOTH",
"143 594 OFFCURVE",
"150 583 OFFCURVE",
"150 540 CURVE SMOOTH",
"149 343 LINE",
"16 343 LINE",
"9 311 LINE",
"16 304 LINE",
"149 304 LINE",
"149 157 LINE SMOOTH",
"149 61 OFFCURVE",
"141 47 OFFCURVE",
"71 34 CURVE",
"65 -12 LINE",
"65 -12 OFFCURVE",
"130 0 OFFCURVE",
"180 0 CURVE SMOOTH",
"231 0 OFFCURVE",
"324 -12 OFFCURVE",
"324 -12 CURVE"
);
},
{
closed = 1;
nodes = (
"236 570 LINE SMOOTH",
"237 588 OFFCURVE",
"244 592 OFFCURVE",
"272 592 CURVE SMOOTH",
"469 592 OFFCURVE",
"579 494 OFFCURVE",
"579 318 CURVE SMOOTH",
"579 145 OFFCURVE",
"491 39 OFFCURVE",
"347 39 CURVE SMOOTH",
"247 39 OFFCURVE",
"221 58 OFFCURVE",
"221 131 CURVE SMOOTH",
"226 304 LINE",
"396 304 LINE",
"402 336 LINE",
"397 343 LINE",
"227 343 LINE"
);
}
);
width = 713;
}
);
unicode = 00D0;
},
{
glyphname = Dcroat;
lastChange = "2014-11-08 03:27:49 -0300";
layers = (
{
layerId = "B954E078-309A-4CF1-B397-1A2EBEB3E29A";
name = Light;
paths = (
{
closed = 1;
nodes = (
"518 -12 OFFCURVE",
"670 143 OFFCURVE",
"670 342 CURVE SMOOTH",
"670 516 OFFCURVE",
"533 641 OFFCURVE",
"341 641 CURVE SMOOTH",
"341 641 OFFCURVE",
"235 637 OFFCURVE",
"189 637 CURVE SMOOTH",
"151 637 OFFCURVE",
"84 640 OFFCURVE",
"84 640 CURVE",
"77 596 LINE",
"79 592 LINE",
"79 592 OFFCURVE",
"101 594 OFFCURVE",
"113 594 CURVE SMOOTH",
"143 594 OFFCURVE",
"150 583 OFFCURVE",
"150 540 CURVE SMOOTH",
"149 343 LINE",
"16 343 LINE",
"9 311 LINE",
"16 304 LINE",
"149 304 LINE",
"149 157 LINE SMOOTH",
"149 61 OFFCURVE",
"141 47 OFFCURVE",
"71 34 CURVE",
"65 -12 LINE",
"65 -12 OFFCURVE",
"130 0 OFFCURVE",
"180 0 CURVE SMOOTH",
"231 0 OFFCURVE",
"324 -12 OFFCURVE",
"324 -12 CURVE"
);
},
{
closed = 1;
nodes = (
"236 570 LINE SMOOTH",
"237 588 OFFCURVE",
"244 592 OFFCURVE",
"272 592 CURVE SMOOTH",
"469 592 OFFCURVE",
"579 494 OFFCURVE",
"579 318 CURVE SMOOTH",
"579 145 OFFCURVE",
"491 39 OFFCURVE",
"347 39 CURVE SMOOTH",
"247 39 OFFCURVE",
"221 58 OFFCURVE",
"221 131 CURVE SMOOTH",
"226 304 LINE",
"396 304 LINE",
"402 336 LINE",
"397 343 LINE",
"227 343 LINE"
);
}
);
width = 713;
}
);
rightKerningGroup = O;
unicode = 0110;
},
{
glyphname = E;
lastChange = "2014-11-08 03:27:49 -0300";
layers = (
{
anchors = (
{
name = bottom;
position = "{318, 0}";
},
{
name = ogonek;
position = "{524, 40}";
},
{
name = top;
position = "{326, 647}";
}
);
layerId = "B954E078-309A-4CF1-B397-1A2EBEB3E29A";
name = Light;
paths = (
{
closed = 1;
nodes = (
"213 138 OFFCURVE",
"214 188 OFFCURVE",
"217 296 CURVE",
"234 299 OFFCURVE",
"264 303 OFFCURVE",
"294 303 CURVE SMOOTH",
"348 303 OFFCURVE",
"434 300 OFFCURVE",
"434 300 CURVE",
"448 359 LINE",
"444 364 LINE",
"444 364 OFFCURVE",
"358 353 OFFCURVE",
"322 353 CURVE SMOOTH",
"292 353 OFFCURVE",
"241 354 OFFCURVE",
"219 354 CURVE",
"227 548 LINE",
"228 585 OFFCURVE",
"232 587 OFFCURVE",
"297 587 CURVE SMOOTH",
"438 587 OFFCURVE",
"450 581 OFFCURVE",
"450 516 CURVE SMOOTH",
"450 502 OFFCURVE",
"448 473 OFFCURVE",
"448 473 CURVE",
"496 477 LINE",
"502 569 OFFCURVE",
"519 643 OFFCURVE",
"519 643 CURVE",
"516 649 LINE",
"450 640 OFFCURVE",
"375 637 OFFCURVE",
"216 637 CURVE SMOOTH",
"156 637 OFFCURVE",
"77 640 OFFCURVE",
"77 640 CURVE",
"70 596 LINE",
"72 592 LINE",
"72 592 OFFCURVE",
"94 594 OFFCURVE",
"106 594 CURVE SMOOTH",
"136 594 OFFCURVE",
"143 583 OFFCURVE",
"143 540 CURVE SMOOTH",
"142 120 LINE SMOOTH",
"142 63 OFFCURVE",
"124 44 OFFCURVE",
"64 36 CURVE",
"58 -10 LINE",
"58 -10 OFFCURVE",
"121 0 OFFCURVE",
"197 0 CURVE SMOOTH",
"292 0 OFFCURVE",
"500 -7 OFFCURVE",
"500 -7 CURVE",
"505 -1 LINE",
"514 84 OFFCURVE",
"532 167 OFFCURVE",
"532 167 CURVE",
"529 172 LINE",
"485 167 LINE",
"469 57 OFFCURVE",
"450 45 OFFCURVE",
"292 45 CURVE SMOOTH",
"220 45 OFFCURVE",
"213 51 OFFCURVE",
"213 105 CURVE SMOOTH"
);
}
);
width = 591;
}
);
leftKerningGroup = H;
rightKerningGroup = E;
unicode = 0045;
},
{
glyphname = F;
lastChange = "2014-11-08 03:27:49 -0300";
layers = (
{
anchors = (
{
name = bottom;
position = "{182, 0}";
},
{
name = top;
position = "{318, 647}";
}
);
layerId = "B954E078-309A-4CF1-B397-1A2EBEB3E29A";
name = Light;
paths = (
{
closed = 1;
nodes = (
"217 278 LINE",
"234 281 OFFCURVE",
"264 285 OFFCURVE",
"294 285 CURVE SMOOTH",
"341 285 OFFCURVE",
"417 282 OFFCURVE",
"417 282 CURVE",
"431 342 LINE",
"427 347 LINE",
"427 347 OFFCURVE",
"353 336 OFFCURVE",
"322 336 CURVE SMOOTH",
"219 337 LINE",
"227 548 LINE",
"228 585 OFFCURVE",
"232 587 OFFCURVE",
"297 587 CURVE SMOOTH",
"419 587 OFFCURVE",
"431 581 OFFCURVE",
"431 516 CURVE SMOOTH",
"431 502 OFFCURVE",
"429 470 OFFCURVE",
"429 470 CURVE",
"477 474 LINE",
"483 566 OFFCURVE",
"500 643 OFFCURVE",
"500 643 CURVE",
"497 649 LINE",
"434 640 OFFCURVE",
"353 637 OFFCURVE",
"216 637 CURVE SMOOTH",
"156 637 OFFCURVE",
"77 640 OFFCURVE",
"77 640 CURVE",
"70 596 LINE",
"72 592 LINE",
"72 592 OFFCURVE",
"94 594 OFFCURVE",
"106 594 CURVE SMOOTH",
"136 594 OFFCURVE",
"143 583 OFFCURVE",
"143 540 CURVE SMOOTH",
"142 120 LINE SMOOTH",
"142 64 OFFCURVE",
"126 46 OFFCURVE",
"64 34 CURVE",
"58 -12 LINE",
"58 -12 OFFCURVE",
"122 0 OFFCURVE",
"172 0 CURVE SMOOTH",
"226 0 OFFCURVE",
"321 -4 OFFCURVE",
"321 -4 CURVE",
"330 43 LINE",
"328 47 LINE",
"328 47 OFFCURVE",
"277 44 OFFCURVE",
"257 44 CURVE SMOOTH",
"222 44 OFFCURVE",
"213 58 OFFCURVE",
"213 112 CURVE"
);
}
);
width = 512;
}
);
leftKerningGroup = H;
rightKerningGroup = F;
unicode = 0046;
},
{
glyphname = G;
lastChange = "2014-11-08 03:27:49 -0300";
layers = (
{
anchors = (
{
name = bottom;
position = "{334, 0}";
},
{
name = top;
position = "{342, 647}";
}
);
layerId = "B954E078-309A-4CF1-B397-1A2EBEB3E29A";
name = Light;
paths = (
{
closed = 1;
nodes = (
"588 307 LINE",
"588 307 OFFCURVE",
"545 302 OFFCURVE",
"502 302 CURVE SMOOTH",
"443 302 OFFCURVE",
"375 306 OFFCURVE",
"375 306 CURVE",
"366 256 LINE",
"368 252 LINE",
"368 252 OFFCURVE",
"414 252 OFFCURVE",
"437 252 CURVE SMOOTH",
"482 252 OFFCURVE",
"492 243 OFFCURVE",
"492 198 CURVE SMOOTH",
"492 76 LINE",
"492 76 OFFCURVE",
"435 38 OFFCURVE",
"355 38 CURVE SMOOTH",
"217 38 OFFCURVE",
"127 153 OFFCURVE",
"127 329 CURVE SMOOTH",
"127 495 OFFCURVE",
"216 590 OFFCURVE",
"368 590 CURVE SMOOTH",
"474 590 OFFCURVE",
"519 564 OFFCURVE",
"519 502 CURVE SMOOTH",
"519 475 OFFCURVE",
"516 448 OFFCURVE",
"516 448 CURVE",
"563 452 LINE",
"569 544 OFFCURVE",
"589 619 OFFCURVE",
"589 619 CURVE",
"585 625 LINE",
"585 625 OFFCURVE",
"474 649 OFFCURVE",
"391 649 CURVE SMOOTH",
"182 649 OFFCURVE",
"40 506 OFFCURVE",
"40 297 CURVE SMOOTH",
"40 108 OFFCURVE",
"154 -12 OFFCURVE",
"332 -12 CURVE SMOOTH",
"459 -12 OFFCURVE",
"562 34 OFFCURVE",
"562 34 CURVE",
"568 43 LINE",
"564 60 OFFCURVE",
"561 96 OFFCURVE",
"561 131 CURVE SMOOTH",
"561 230 OFFCURVE",
"568 265 OFFCURVE",
"592 285 CURVE"
);
}
);
width = 667;
}
);
leftKerningGroup = O;
rightKerningGroup = G;
unicode = 0047;
},
{
glyphname = H;
lastChange = "2014-11-08 03:27:49 -0300";
layers = (
{
layerId = "B954E078-309A-4CF1-B397-1A2EBEB3E29A";
name = Light;
paths = (
{
closed = 1;
nodes = (
"622 582 OFFCURVE",
"634 594 OFFCURVE",
"684 601 CURVE",
"688 646 LINE",
"688 646 OFFCURVE",
"616 637 OFFCURVE",
"568 637 CURVE SMOOTH",
"536 637 OFFCURVE",
"470 639 OFFCURVE",
"470 640 CURVE",
"463 596 LINE",
"465 592 LINE",
"465 592 OFFCURVE",
"487 594 OFFCURVE",
"499 594 CURVE SMOOTH",
"529 594 OFFCURVE",
"536 583 OFFCURVE",
"536 540 CURVE SMOOTH",
"535 358 LINE",
"476 351 OFFCURVE",
"437 348 OFFCURVE",
"387 348 CURVE",
"219 349 LINE",
"225 511 LINE SMOOTH",
"228 581 OFFCURVE",
"233 592 OFFCURVE",
"291 601 CURVE",
"295 646 LINE",
"295 646 OFFCURVE",
"231 637 OFFCURVE",
"188 637 CURVE SMOOTH",
"150 637 OFFCURVE",
"77 640 OFFCURVE",
"77 640 CURVE",
"70 596 LINE",
"72 592 LINE",
"72 592 OFFCURVE",
"94 594 OFFCURVE",
"106 594 CURVE SMOOTH",
"136 594 OFFCURVE",
"143 583 OFFCURVE",
"143 540 CURVE SMOOTH",
"142 120 LINE SMOOTH",
"142 64 OFFCURVE",
"126 46 OFFCURVE",
"64 34 CURVE",
"58 -12 LINE",
"60 -7 OFFCURVE",
"152 0 OFFCURVE",
"210 0 CURVE SMOOTH",
"245 0 OFFCURVE",
"295 -2 OFFCURVE",
"295 -3 CURVE",
"304 43 LINE",
"302 47 LINE",
"302 47 OFFCURVE",
"277 44 OFFCURVE",
"257 44 CURVE SMOOTH",
"222 44 OFFCURVE",
"213 58 OFFCURVE",
"213 112 CURVE SMOOTH",
"217 291 LINE",
"217 291 OFFCURVE",
"351 302 OFFCURVE",
"383 302 CURVE SMOOTH",
"429 302 OFFCURVE",
"535 301 OFFCURVE",
"535 301 CURVE",
"535 150 LINE SMOOTH",
"535 62 OFFCURVE",
"522 44 OFFCURVE",
"459 43 CURVE",
"450 -2 LINE",
"450 -2 OFFCURVE",
"530 0 OFFCURVE",
"565 0 CURVE SMOOTH",
"609 0 OFFCURVE",
"688 -3 OFFCURVE",
"688 -3 CURVE",
"697 43 LINE",
"695 47 LINE",
"695 47 OFFCURVE",
"670 44 OFFCURVE",
"650 44 CURVE SMOOTH",
"615 44 OFFCURVE",
"606 58 OFFCURVE",
"606 112 CURVE SMOOTH",
"606 195 OFFCURVE",
"613 398 OFFCURVE",
"620 544 CURVE SMOOTH"
);
}
);
width = 754;
}
);
leftKerningGroup = H;
rightKerningGroup = H;
unicode = 0048;
},
{
glyphname = Hbar;
lastChange = "2014-11-08 03:27:49 -0300";
layers = (
{
anchors = (
{
name = bottom;
position = "{376, 0}";
},
{
name = center;
position = "{368, 324}";
},
{
name = top;
position = "{371, 647}";
}
);
components = (
{
disableAlignment = 1;
name = H;
transform = "{1, 0, 0, 1, -2, 0}";
}
);
layerId = "B954E078-309A-4CF1-B397-1A2EBEB3E29A";
name = Light;
paths = (
{
closed = 1;
nodes = (
"256 495 OFFCURVE",
"49 496 OFFCURVE",
"49 496 CURVE",
"42 457 LINE",
"51 448 LINE",
"51 448 OFFCURVE",
"233 449 OFFCURVE",
"374 449 CURVE SMOOTH",
"703 450 LINE",
"707 487 LINE",
"694 500 LINE",
"694 500 OFFCURVE",
"516 495 OFFCURVE",
"396 495 CURVE SMOOTH"
);
}
);
width = 750;
}
);
leftKerningGroup = H;
rightKerningGroup = H;
unicode = 0126;
},
{
glyphname = I;
lastChange = "2014-11-08 03:27:49 -0300";
layers = (
{
anchors = (
{
name = bottom;
position = "{139, 0}";
},
{
name = ogonek;
position = "{292, 40}";
},
{
name = top;
position = "{187, 647}";
}
);
layerId = "B954E078-309A-4CF1-B397-1A2EBEB3E29A";
name = Light;
paths = (
{
closed = 1;
nodes = (
"229 582 OFFCURVE",
"243 594 OFFCURVE",
"299 601 CURVE",
"303 646 LINE",
"303 646 OFFCURVE",
"234 637 OFFCURVE",
"188 637 CURVE SMOOTH",
"147 637 OFFCURVE",
"69 640 OFFCURVE",
"69 640 CURVE",
"62 596 LINE",
"64 592 LINE",
"64 592 OFFCURVE",
"91 594 OFFCURVE",
"106 594 CURVE SMOOTH",
"136 594 OFFCURVE",
"143 582 OFFCURVE",
"143 540 CURVE SMOOTH",
"142 120 LINE SMOOTH",
"142 64 OFFCURVE",
"125 46 OFFCURVE",
"62 34 CURVE",
"56 -12 LINE",
"56 -12 OFFCURVE",
"121 0 OFFCURVE",
"172 0 CURVE SMOOTH",
"219 0 OFFCURVE",
"303 -3 OFFCURVE",
"303 -3 CURVE",
"312 43 LINE",
"310 47 LINE",
"310 47 OFFCURVE",
"281 44 OFFCURVE",
"257 44 CURVE SMOOTH",
"222 44 OFFCURVE",
"213 58 OFFCURVE",
"213 112 CURVE SMOOTH",
"213 195 OFFCURVE",
"220 399 OFFCURVE",
"227 544 CURVE SMOOTH"
);
}
);
width = 361;
}
);
leftKerningGroup = H;
rightKerningGroup = H;
unicode = 0049;
},
{
glyphname = J;
lastChange = "2014-11-08 03:27:49 -0300";
layers = (
{
anchors = (
{
name = bottom;
position = "{143, 0}";
},
{
name = top;
position = "{168, 647}";
}
);
layerId = "B954E078-309A-4CF1-B397-1A2EBEB3E29A";
name = Light;
paths = (
{
closed = 1;
nodes = (
"131 115 LINE SMOOTH",
"131 -5 OFFCURVE",
"107 -54 OFFCURVE",
"26 -103 CURVE",
"23 -111 LINE",
"40 -144 LINE",
"153 -98 OFFCURVE",
"202 -20 OFFCURVE",
"203 116 CURVE SMOOTH",
"204 198 OFFCURVE",
"212 455 OFFCURVE",
"216 544 CURVE SMOOTH",
"218 586 OFFCURVE",
"226 594 OFFCURVE",
"273 601 CURVE",
"277 646 LINE",
"277 646 OFFCURVE",
"204 637 OFFCURVE",
"161 637 CURVE SMOOTH",
"53 637 LINE",
"46 593 LINE",
"48 589 LINE",
"48 589 OFFCURVE",
"83 593 OFFCURVE",
"95 593 CURVE SMOOTH",
"125 593 OFFCURVE",
"132 583 OFFCURVE",
"132 540 CURVE SMOOTH"
);
}
);
width = 327;
}
);
leftKerningGroup = J;
rightKerningGroup = J;
unicode = 004A;
},
{
glyphname = K;
lastChange = "2014-11-08 03:27:49 -0300";
layers = (
{
anchors = (
{
name = bottom;
position = "{372, 0}";
},
{
name = top;
position = "{373, 647}";
}
);
layerId = "B954E078-309A-4CF1-B397-1A2EBEB3E29A";
name = Light;
paths = (
{
closed = 1;
nodes = (
"142 120 LINE SMOOTH",
"142 63 OFFCURVE",
"129 50 OFFCURVE",
"67 44 CURVE",
"57 -1 LINE",
"57 -1 OFFCURVE",
"122 0 OFFCURVE",
"172 0 CURVE SMOOTH",
"216 0 OFFCURVE",
"295 -3 OFFCURVE",
"295 -3 CURVE",
"304 43 LINE",
"302 47 LINE",
"302 47 OFFCURVE",
"277 44 OFFCURVE",
"257 44 CURVE SMOOTH",
"222 44 OFFCURVE",
"211 58 OFFCURVE",
"213 112 CURVE SMOOTH",
"225 541 LINE SMOOTH",
"226 579 OFFCURVE",
"241 593 OFFCURVE",
"291 601 CURVE",
"295 646 LINE",
"295 646 OFFCURVE",
"231 637 OFFCURVE",
"188 637 CURVE SMOOTH",
"150 637 OFFCURVE",
"77 640 OFFCURVE",
"77 640 CURVE",
"70 596 LINE",
"72 592 LINE",
"72 592 OFFCURVE",
"94 594 OFFCURVE",
"106 594 CURVE SMOOTH",
"136 594 OFFCURVE",
"143 583 OFFCURVE",
"143 540 CURVE SMOOTH"
);
},
{
closed = 1;
nodes = (
"242 315 LINE",
"417 72 LINE SMOOTH",
"456 18 OFFCURVE",
"496 -14 OFFCURVE",
"529 -14 CURVE SMOOTH",
"540 -14 OFFCURVE",
"612 -2 OFFCURVE",
"612 -2 CURVE",
"618 32 LINE",
"614 36 LINE",
"567 36 OFFCURVE",
"534 59 OFFCURVE",
"486 121 CURVE SMOOTH",
"318 340 LINE",
"479 509 LINE SMOOTH",
"539 571 OFFCURVE",
"559 586 OFFCURVE",
"594 593 CURVE",
"601 634 LINE",
"597 641 LINE",
"597 641 OFFCURVE",
"544 637 OFFCURVE",
"505 637 CURVE SMOOTH",
"468 637 OFFCURVE",
"395 644 OFFCURVE",
"395 644 CURVE",
"388 601 LINE",
"390 597 LINE",
"433 594 OFFCURVE",
"453 584 OFFCURVE",
"453 567 CURVE SMOOTH",
"453 553 OFFCURVE",
"443 536 OFFCURVE",
"422 515 CURVE SMOOTH",
"243 329 LINE"
);
}
);
width = 628;
}
);
leftKerningGroup = H;
rightKerningGroup = X;
unicode = 004B;
},
{
glyphname = L;
lastChange = "2014-11-08 03:27:49 -0300";
layers = (
{
anchors = (
{
name = bottom;
position = "{287, 0}";
},
{
name = top;
position = "{190, 647}";
}
);
layerId = "B954E078-309A-4CF1-B397-1A2EBEB3E29A";
name = Light;
paths = (
{
closed = 1;
nodes = (
"297 0 OFFCURVE",
"471 -9 OFFCURVE",
"471 -9 CURVE",
"476 -3 LINE",
"487 96 OFFCURVE",
"505 187 OFFCURVE",
"505 187 CURVE",
"502 192 LINE",
"458 187 LINE",
"436 64 OFFCURVE",
"415 45 OFFCURVE",
"299 45 CURVE SMOOTH",
"224 45 OFFCURVE",
"214 54 OFFCURVE",
"214 122 CURVE SMOOTH",
"214 213 OFFCURVE",
"217 383 OFFCURVE",
"226 508 CURVE SMOOTH",
"231 575 OFFCURVE",
"225 592 OFFCURVE",
"292 601 CURVE",
"296 646 LINE",
"296 646 OFFCURVE",
"232 637 OFFCURVE",
"189 637 CURVE SMOOTH",
"151 637 OFFCURVE",
"77 640 OFFCURVE",
"77 640 CURVE",
"70 596 LINE",
"72 592 LINE",
"72 592 OFFCURVE",
"94 594 OFFCURVE",
"106 594 CURVE SMOOTH",
"136 594 OFFCURVE",
"143 583 OFFCURVE",
"143 540 CURVE SMOOTH",
"142 120 LINE SMOOTH",
"142 63 OFFCURVE",
"126 44 OFFCURVE",
"74 36 CURVE",
"68 -10 LINE",
"68 -10 OFFCURVE",
"127 0 OFFCURVE",
"202 0 CURVE SMOOTH"
);
}
);
width = 507;
}
);
leftKerningGroup = H;
rightKerningGroup = L;
unicode = 004C;
},
{
glyphname = Lcaron;
lastChange = "2014-11-08 03:27:49 -0300";
layers = (
{
components = (
{
disableAlignment = 1;
name = L;
transform = "{1, 0, 0, 1, 0, 0}";
}
);
layerId = "B954E078-309A-4CF1-B397-1A2EBEB3E29A";
name = Light;
paths = (
{
closed = 1;
nodes = (
"480 633 LINE",
"410 619 LINE",
"410 619 OFFCURVE",
"420 511 OFFCURVE",
"416 401 CURVE",
"427 399 LINE",
"452 413 LINE",
"473 515 OFFCURVE",
"487 625 OFFCURVE",
"487 625 CURVE"
);
}
);
width = 507;
}
);
leftKerningGroup = H;
rightKerningGroup = L;
unicode = 013D;
},
{
glyphname = Lslash;
lastChange = "2014-11-08 03:27:49 -0300";
layers = (
{
components = (
{
disableAlignment = 1;
name = L;
transform = "{1, 0, 0, 1, 0, 0}";
}
);
layerId = "B954E078-309A-4CF1-B397-1A2EBEB3E29A";
name = Light;
paths = (
{
closed = 1;
nodes = (
"190 309 LINE",
"411 418 LINE",
"406 449 LINE",
"398 454 LINE",
"190 351 LINE",
"190 357 LINE",
"61 293 LINE",
"66 261 LINE",
"75 258 LINE",
"190 315 LINE"
);
}
);
width = 551;
}
);
leftKerningGroup = H;
rightKerningGroup = L;
unicode = 0141;
},
{
glyphname = M;
lastChange = "2014-11-08 03:27:49 -0300";
layers = (
{
anchors = (
{
name = bottom;
position = "{402, 0}";
},
{
name = top;
position = "{418, 647}";
}
);
layerId = "B954E078-309A-4CF1-B397-1A2EBEB3E29A";
name = Light;
paths = (
{
closed = 1;
nodes = (
"421 -12 LINE",
"485 165 OFFCURVE",
"550 343 OFFCURVE",
"614 520 CURVE",
"619 520 LINE",
"619 520 OFFCURVE",
"653 122 OFFCURVE",
"653 88 CURVE SMOOTH",
"653 58 OFFCURVE",
"635 43 OFFCURVE",
"594 38 CURVE",
"590 -8 LINE",
"590 -8 OFFCURVE",
"651 0 OFFCURVE",
"694 0 CURVE SMOOTH",
"730 0 OFFCURVE",
"789 -3 OFFCURVE",
"789 -3 CURVE",
"798 42 LINE",
"796 46 LINE",
"796 46 OFFCURVE",
"780 44 OFFCURVE",
"768 44 CURVE SMOOTH",
"736 44 OFFCURVE",
"728 61 OFFCURVE",
"719 139 CURVE",
"708 279 OFFCURVE",
"693 518 OFFCURVE",
"693 547 CURVE SMOOTH",
"693 580 OFFCURVE",
"714 595 OFFCURVE",
"772 602 CURVE",
"777 639 LINE",
"775 643 LINE",
"775 643 OFFCURVE",
"697 637 OFFCURVE",
"667 637 CURVE SMOOTH",
"647 637 OFFCURVE",
"601 640 OFFCURVE",
"601 639 CURVE SMOOTH",
"506 352 OFFCURVE",
"428 145 OFFCURVE",
"428 145 CURVE",
"423 145 LINE",
"423 145 OFFCURVE",
"344 350 OFFCURVE",
"254 641 CURVE",
"254 641 OFFCURVE",
"215 637 OFFCURVE",
"186 637 CURVE SMOOTH",
"154 637 OFFCURVE",
"77 642 OFFCURVE",
"77 642 CURVE",
"69 607 LINE",
"72 602 LINE",
"133 598 OFFCURVE",
"159 582 OFFCURVE",
"159 547 CURVE SMOOTH",
"159 517 OFFCURVE",
"123 188 OFFCURVE",
"115 115 CURVE SMOOTH",
"109 61 OFFCURVE",
"93 43 OFFCURVE",
"51 38 CURVE",
"46 -8 LINE",
"46 -8 OFFCURVE",
"92 0 OFFCURVE",
"132 0 CURVE SMOOTH",
"165 0 OFFCURVE",
"229 -4 OFFCURVE",
"229 -4 CURVE",
"238 41 LINE",
"236 45 LINE",
"236 45 OFFCURVE",
"205 44 OFFCURVE",
"195 44 CURVE SMOOTH",
"174 44 OFFCURVE",
"164 54 OFFCURVE",
"164 75 CURVE SMOOTH",
"164 101 OFFCURVE",
"198 520 OFFCURVE",
"198 520 CURVE",
"203 520 LINE",
"268 340 OFFCURVE",
"332 161 OFFCURVE",
"397 -19 CURVE"
);
}
);
width = 847;
}
);
leftKerningGroup = M;
rightKerningGroup = M;
unicode = 004D;
},
{
glyphname = N;
lastChange = "2014-11-08 03:27:49 -0300";
layers = (
{
anchors = (
{
name = bottom;
position = "{383, 0}";
},
{
name = top;
position = "{384, 647}";
}
);
layerId = "B954E078-309A-4CF1-B397-1A2EBEB3E29A";
name = Light;
paths = (
{
closed = 1;
nodes = (
"551 145 LINE",
"551 145 OFFCURVE",
"381 383 OFFCURVE",
"215 641 CURVE",
"215 641 OFFCURVE",
"181 637 OFFCURVE",
"148 637 CURVE SMOOTH",
"120 637 OFFCURVE",
"62 642 OFFCURVE",
"62 642 CURVE",
"54 605 LINE",
"57 600 LINE",
"124 593 OFFCURVE",
"144 579 OFFCURVE",
"144 538 CURVE",
"131 101 LINE SMOOTH",
"130 60 OFFCURVE",
"110 43 OFFCURVE",
"69 38 CURVE",
"64 -8 LINE",
"64 -8 OFFCURVE",
"117 0 OFFCURVE",
"157 0 CURVE SMOOTH",
"200 0 OFFCURVE",
"263 -4 OFFCURVE",
"263 -4 CURVE",
"272 41 LINE",
"270 45 LINE",
"270 45 OFFCURVE",
"229 44 OFFCURVE",
"219 44 CURVE SMOOTH",
"196 44 OFFCURVE",
"188 54 OFFCURVE",
"188 84 CURVE SMOOTH",
"193 511 LINE",
"198 511 LINE",
"198 511 OFFCURVE",
"375 264 OFFCURVE",
"570 -40 CURVE",
"599 -26 LINE",
"613 536 LINE SMOOTH",
"614 575 OFFCURVE",
"635 593 OFFCURVE",
"681 599 CURVE",
"686 645 LINE",
"686 645 OFFCURVE",
"629 637 OFFCURVE",
"587 637 CURVE SMOOTH",
"553 637 OFFCURVE",
"492 641 OFFCURVE",
"492 641 CURVE",
"483 596 LINE",
"485 592 LINE",
"485 592 OFFCURVE",
"505 593 OFFCURVE",
"523 593 CURVE SMOOTH",
"545 593 OFFCURVE",
"556 579 OFFCURVE",
"556 550 CURVE SMOOTH",
"556 145 LINE"
);
}
);
width = 719;
}
);
leftKerningGroup = H;
rightKerningGroup = H;
unicode = 004E;
},
{
glyphname = Eng;
lastChange = "2014-11-08 03:27:49 -0300";
layers = (
{
layerId = "B954E078-309A-4CF1-B397-1A2EBEB3E29A";
name = Light;
paths = (
{
closed = 1;
nodes = (
"122 637 OFFCURVE",
"62 642 OFFCURVE",
"62 642 CURVE",
"54 605 LINE",
"57 600 LINE",
"127 590 OFFCURVE",
"144 577 OFFCURVE",
"144 538 CURVE SMOOTH",
"132 124 LINE SMOOTH",
"129 60 OFFCURVE",
"115 42 OFFCURVE",
"69 38 CURVE",
"64 -8 LINE",
"64 -8 OFFCURVE",
"111 0 OFFCURVE",
"151 0 CURVE SMOOTH",
"198 0 OFFCURVE",
"263 -4 OFFCURVE",
"263 -4 CURVE",
"272 42 LINE",
"269 46 LINE",
"269 46 OFFCURVE",
"229 44 OFFCURVE",
"219 44 CURVE SMOOTH",
"196 44 OFFCURVE",
"188 54 OFFCURVE",
"188 84 CURVE SMOOTH",
"193 511 LINE",
"198 511 LINE",
"198 511 OFFCURVE",
"356 289 OFFCURVE",
"539 8 CURVE",
"525 -47 OFFCURVE",
"492 -84 OFFCURVE",
"427 -113 CURVE",
"424 -121 LINE",
"441 -154 LINE",
"554 -112 OFFCURVE",
"600 -43 OFFCURVE",
"604 86 CURVE SMOOTH",
"613 536 LINE SMOOTH",
"614 575 OFFCURVE",
"633 593 OFFCURVE",
"681 599 CURVE",
"686 645 LINE",
"686 645 OFFCURVE",
"629 637 OFFCURVE",
"587 637 CURVE SMOOTH",
"554 637 OFFCURVE",
"492 641 OFFCURVE",
"492 641 CURVE",
"483 596 LINE",
"485 592 LINE",
"485 592 OFFCURVE",
"505 593 OFFCURVE",
"523 593 CURVE SMOOTH",
"545 593 OFFCURVE",
"556 579 OFFCURVE",
"556 550 CURVE SMOOTH",
"556 145 LINE",
"551 145 LINE SMOOTH",
"551 145 OFFCURVE",
"356 419 OFFCURVE",
"215 641 CURVE",
"215 641 OFFCURVE",
"157 637 OFFCURVE",
"143 637 CURVE SMOOTH"
);
}
);
width = 719;
}
);
leftKerningGroup = H;
unicode = 014A;
},
{
glyphname = O;
lastChange = "2014-11-08 03:27:49 -0300";
layers = (
{
anchors = (
{
name = bottom;
position = "{315, 0}";
},
{
name = top;
position = "{324, 647}";
}
);
layerId = "B954E078-309A-4CF1-B397-1A2EBEB3E29A";
name = Light;
paths = (
{
closed = 1;
nodes = (
"217 39 OFFCURVE",
"126 158 OFFCURVE",
"126 329 CURVE SMOOTH",
"126 483 OFFCURVE",
"211 589 OFFCURVE",
"335 589 CURVE SMOOTH",
"470 589 OFFCURVE",
"563 470 OFFCURVE",
"563 299 CURVE SMOOTH",
"563 145 OFFCURVE",
"475 39 OFFCURVE",
"348 39 CURVE SMOOTH"
);
},
{
closed = 1;
nodes = (
"506 -12 OFFCURVE",
"652 142 OFFCURVE",
"652 341 CURVE SMOOTH",
"652 523 OFFCURVE",
"536 649 OFFCURVE",
"369 649 CURVE SMOOTH",
"184 649 OFFCURVE",
"40 495 OFFCURVE",
"40 297 CURVE SMOOTH",
"40 114 OFFCURVE",
"153 -12 OFFCURVE",
"317 -12 CURVE SMOOTH"
);
}
);
width = 692;
}
);
leftKerningGroup = O;
rightKerningGroup = O;
unicode = 004F;
},
{
glyphname = Oslash;
lastChange = "2014-11-08 03:27:49 -0300";
layers = (
{
anchors = (
{
name = bottom;
position = "{315, 0}";
},
{
name = top;
position = "{324, 647}";
}
);
components = (
{
disableAlignment = 1;
name = O;
transform = "{1, 0, 0, 1, 0, 0}";
}
);
layerId = "B954E078-309A-4CF1-B397-1A2EBEB3E29A";
name = Light;
paths = (
{
closed = 1;
nodes = (
"552 689 LINE",
"549 701 LINE",
"520 708 LINE",
"456 586 LINE",
"489 572 LINE"
);
},
{
closed = 1;
nodes = (
"489 572 LINE",
"456 586 LINE",
"186 70 LINE",
"218 56 LINE"
);
},
{
closed = 1;
nodes = (
"107 -82 LINE",
"109 -92 LINE",
"136 -98 LINE",
"218 56 LINE",
"186 70 LINE"
);
}
);
width = 692;
}
);
leftKerningGroup = O;
rightKerningGroup = O;
unicode = 00D8;
},
{
glyphname = OE;
lastChange = "2014-11-08 03:27:49 -0300";
layers = (
{
anchors = (
{
name = top;
position = "{508, 647}";
}
);
layerId = "B954E078-309A-4CF1-B397-1A2EBEB3E29A";
name = Light;
paths = (
{
closed = 1;
nodes = (
"586 296 LINE",
"664 303 LINE SMOOTH",
"718 303 OFFCURVE",
"804 300 OFFCURVE",
"804 300 CURVE",
"818 359 LINE",
"814 364 LINE",
"814 364 OFFCURVE",
"728 353 OFFCURVE",
"692 353 CURVE SMOOTH",
"588 354 LINE",
"596 548 LINE SMOOTH",
"598 585 OFFCURVE",
"601 587 OFFCURVE",
"666 587 CURVE SMOOTH",
"807 587 OFFCURVE",
"820 581 OFFCURVE",
"820 516 CURVE SMOOTH",
"820 502 OFFCURVE",
"818 473 OFFCURVE",
"818 473 CURVE",
"866 477 LINE",
"872 569 OFFCURVE",
"889 643 OFFCURVE",
"889 643 CURVE",
"886 649 LINE",
"814 639 OFFCURVE",
"724 635 OFFCURVE",
"582 635 CURVE SMOOTH",
"500 635 OFFCURVE",
"431 649 OFFCURVE",
"363 649 CURVE SMOOTH",
"182 649 OFFCURVE",
"41 495 OFFCURVE",
"41 297 CURVE SMOOTH",
"41 115 OFFCURVE",
"152 -12 OFFCURVE",
"311 -12 CURVE SMOOTH",
"382 -12 OFFCURVE",
"462 1 OFFCURVE",
"565 1 CURVE SMOOTH",
"660 1 OFFCURVE",
"870 -7 OFFCURVE",
"870 -7 CURVE",
"875 -1 LINE",
"884 84 OFFCURVE",
"902 167 OFFCURVE",
"902 167 CURVE",
"899 172 LINE",
"855 167 LINE",
"839 57 OFFCURVE",
"820 45 OFFCURVE",
"662 45 CURVE SMOOTH",
"590 45 OFFCURVE",
"583 51 OFFCURVE",
"583 105 CURVE SMOOTH"
);
},
{
closed = 1;
nodes = (
"214 40 OFFCURVE",
"127 158 OFFCURVE",
"127 330 CURVE SMOOTH",
"127 484 OFFCURVE",
"214 591 OFFCURVE",
"339 591 CURVE SMOOTH",
"483 591 OFFCURVE",
"521 566 OFFCURVE",
"521 467 CURVE SMOOTH",
"520 208 LINE",
"518 85 OFFCURVE",
"471 40 OFFCURVE",
"342 40 CURVE SMOOTH"
);
}
);
width = 963;
}
);
leftKerningGroup = O;
rightKerningGroup = E;
unicode = 0152;
},
{
glyphname = P;
lastChange = "2014-11-08 03:27:49 -0300";
layers = (
{
anchors = (
{
name = bottom;
position = "{200, 0}";
},
{
name = top;
position = "{317, 647}";
}
);
layerId = "B954E078-309A-4CF1-B397-1A2EBEB3E29A";
name = Light;
paths = (
{
closed = 1;
nodes = (
"70 596 LINE",
"72 592 LINE",
"72 592 OFFCURVE",
"94 594 OFFCURVE",
"106 594 CURVE SMOOTH",
"135 594 OFFCURVE",
"143 583 OFFCURVE",
"143 540 CURVE SMOOTH",
"142 120 LINE SMOOTH",
"142 63 OFFCURVE",
"128 48 OFFCURVE",
"70 38 CURVE",
"63 -8 LINE",
"65 -5 OFFCURVE",
"158 0 OFFCURVE",
"212 0 CURVE SMOOTH",
"246 0 OFFCURVE",
"304 -2 OFFCURVE",
"304 -3 CURVE",
"313 43 LINE",
"311 47 LINE",
"311 47 OFFCURVE",
"277 44 OFFCURVE",
"257 44 CURVE SMOOTH",
"218 44 OFFCURVE",
"213 55 OFFCURVE",
"213 146 CURVE",
"215 244 LINE",
"299 244 LINE SMOOTH",
"418 244 OFFCURVE",
"528 349 OFFCURVE",
"528 463 CURVE SMOOTH",
"528 578 OFFCURVE",
"452 641 OFFCURVE",
"314 641 CURVE SMOOTH",
"314 641 OFFCURVE",
"215 637 OFFCURVE",
"188 637 CURVE SMOOTH",
"150 637 OFFCURVE",
"77 640 OFFCURVE",
"77 640 CURVE"
);
},
{
closed = 1;
nodes = (
"217 303 LINE",
"219 389 OFFCURVE",
"223 489 OFFCURVE",
"229 578 CURVE SMOOTH",
"230 592 OFFCURVE",
"232 592 OFFCURVE",
"256 592 CURVE SMOOTH",
"386 592 OFFCURVE",
"444 546 OFFCURVE",
"444 444 CURVE SMOOTH",
"444 354 OFFCURVE",
"403 301 OFFCURVE",
"323 288 CURVE"
);
}
);
width = 551;
}
);
leftKerningGroup = H;
rightKerningGroup = P;
unicode = 0050;
},
{
glyphname = Thorn;
lastChange = "2014-11-08 03:27:49 -0300";
layers = (
{
layerId = "B954E078-309A-4CF1-B397-1A2EBEB3E29A";
name = Light;
paths = (
{
closed = 1;
nodes = (
"229 582 OFFCURVE",
"243 594 OFFCURVE",
"299 601 CURVE",
"303 646 LINE",
"303 646 OFFCURVE",
"234 637 OFFCURVE",
"188 637 CURVE SMOOTH",
"147 637 OFFCURVE",
"69 640 OFFCURVE",
"69 640 CURVE",
"62 596 LINE",
"64 592 LINE",
"64 592 OFFCURVE",
"91 594 OFFCURVE",
"106 594 CURVE SMOOTH",
"136 594 OFFCURVE",
"143 582 OFFCURVE",
"143 540 CURVE SMOOTH",
"142 120 LINE SMOOTH",
"142 64 OFFCURVE",
"125 46 OFFCURVE",
"62 34 CURVE",
"56 -12 LINE",
"56 -12 OFFCURVE",
"121 0 OFFCURVE",
"172 0 CURVE SMOOTH",
"219 0 OFFCURVE",
"303 -3 OFFCURVE",
"303 -3 CURVE",
"312 43 LINE",
"310 47 LINE",
"310 47 OFFCURVE",
"281 44 OFFCURVE",
"257 44 CURVE SMOOTH",
"222 44 OFFCURVE",
"213 58 OFFCURVE",
"213 112 CURVE SMOOTH",
"213 148 LINE",
"284 148 LINE SMOOTH",
"410 148 OFFCURVE",
"521 237 OFFCURVE",
"521 340 CURVE SMOOTH",
"521 445 OFFCURVE",
"445 503 OFFCURVE",
"307 503 CURVE SMOOTH",
"225 503 LINE",
"224 513 OFFCURVE",
"226 523 OFFCURVE",
"227 544 CURVE"
);
},
{
closed = 1;
nodes = (
"224 453 OFFCURVE",
"226 454 OFFCURVE",
"249 454 CURVE SMOOTH",
"379 454 OFFCURVE",
"437 413 OFFCURVE",
"437 321 CURVE SMOOTH",
"437 246 OFFCURVE",
"396 202 OFFCURVE",
"316 192 CURVE",
"287 193 OFFCURVE",
"238 201 OFFCURVE",
"214 209 CURVE",
"215 260 OFFCURVE",
"217 331 OFFCURVE",
"222 446 CURVE SMOOTH"
);
}
);
width = 543;
}
);
leftKerningGroup = H;
rightKerningGroup = P;
unicode = 00DE;
},
{
glyphname = Q;
lastChange = "2014-11-08 03:27:49 -0300";
layers = (
{
anchors = (
{
name = bottom;
position = "{423, 0}";
},
{
name = top;
position = "{333, 647}";
}
);
layerId = "B954E078-309A-4CF1-B397-1A2EBEB3E29A";
name = Light;
paths = (
{
closed = 1;
nodes = (
"554 -185 OFFCURVE",
"614 -216 OFFCURVE",
"709 -216 CURVE SMOOTH",
"729 -216 OFFCURVE",
"804 -148 OFFCURVE",
"804 -148 CURVE",
"798 -130 LINE",
"794 -127 LINE",
"794 -127 OFFCURVE",
"761 -137 OFFCURVE",
"714 -137 CURVE SMOOTH",
"634 -137 OFFCURVE",
"549 -101 OFFCURVE",
"407 -5 CURVE",
"407 0 LINE",
"550 40 OFFCURVE",
"652 175 OFFCURVE",
"652 341 CURVE SMOOTH",
"652 523 OFFCURVE",
"536 649 OFFCURVE",
"369 649 CURVE SMOOTH",
"184 649 OFFCURVE",
"40 495 OFFCURVE",
"40 297 CURVE SMOOTH",
"40 114 OFFCURVE",
"153 -12 OFFCURVE",
"317 -12 CURVE"
);
},
{
closed = 1;
nodes = (
"217 39 OFFCURVE",
"126 158 OFFCURVE",
"126 329 CURVE SMOOTH",
"126 483 OFFCURVE",
"211 589 OFFCURVE",
"335 589 CURVE SMOOTH",
"470 589 OFFCURVE",
"563 470 OFFCURVE",
"563 299 CURVE SMOOTH",
"563 145 OFFCURVE",
"475 39 OFFCURVE",
"348 39 CURVE SMOOTH"
);
}
);
width = 697;
}
);
leftKerningGroup = O;
rightKerningGroup = O;
unicode = 0051;
},
{
glyphname = R;
lastChange = "2014-11-08 03:27:49 -0300";
layers = (
{
layerId = "B954E078-309A-4CF1-B397-1A2EBEB3E29A";
name = Light;
paths = (
{
closed = 1;
nodes = (
"299 273 LINE",
"406 79 LINE SMOOTH",
"438 21 OFFCURVE",
"479 -16 OFFCURVE",
"512 -16 CURVE",
"597 -5 LINE",
"603 29 LINE",
"599 33 LINE",
"545 33 OFFCURVE",
"514 55 OFFCURVE",
"475 118 CURVE SMOOTH",
"365 292 LINE",
"458 334 OFFCURVE",
"512 404 OFFCURVE",
"512 484 CURVE SMOOTH",
"512 581 OFFCURVE",
"435 641 OFFCURVE",
"311 641 CURVE SMOOTH",
"311 641 OFFCURVE",
"222 637 OFFCURVE",
"188 637 CURVE SMOOTH",
"150 637 OFFCURVE",
"77 640 OFFCURVE",
"77 640 CURVE",
"70 596 LINE",
"72 592 LINE",
"72 592 OFFCURVE",
"94 594 OFFCURVE",
"106 594 CURVE SMOOTH",
"135 594 OFFCURVE",
"143 583 OFFCURVE",
"143 540 CURVE SMOOTH",
"142 120 LINE SMOOTH",
"142 62 OFFCURVE",
"128 48 OFFCURVE",
"66 41 CURVE",
"57 -4 LINE",
"57 -4 OFFCURVE",
"122 0 OFFCURVE",
"172 -1 CURVE SMOOTH",
"219 -2 OFFCURVE",
"278 -3 OFFCURVE",
"278 -4 CURVE",
"287 38 LINE",
"285 42 LINE",
"221 42 OFFCURVE",
"213 52 OFFCURVE",
"213 124 CURVE SMOOTH",
"216 273 LINE"
);
},
{
closed = 1;
nodes = (
"218 329 LINE",
"219 399 OFFCURVE",
"222 469 OFFCURVE",
"228 575 CURVE SMOOTH",
"229 593 OFFCURVE",
"232 598 OFFCURVE",
"246 598 CURVE SMOOTH",
"368 598 OFFCURVE",
"429 554 OFFCURVE",
"429 466 CURVE SMOOTH",
"429 348 OFFCURVE",
"321 319 OFFCURVE",
"321 319 CURVE"
);
}
);
width = 611;
}
);
leftKerningGroup = H;
rightKerningGroup = R;
unicode = 0052;
},
{
glyphname = S;
lastChange = "2014-11-08 03:27:49 -0300";
layers = (
{
anchors = (
{
name = bottom;
position = "{253, 0}";
},
{
name = top;
position = "{287, 647}";
}
);
layerId = "B954E078-309A-4CF1-B397-1A2EBEB3E29A";
name = Light;
paths = (
{
closed = 1;
nodes = (
"364 -12 OFFCURVE",
"466 69 OFFCURVE",
"466 183 CURVE SMOOTH",
"466 274 OFFCURVE",
"368 320 OFFCURVE",
"281 365 CURVE SMOOTH",
"210 402 OFFCURVE",
"145 439 OFFCURVE",
"145 499 CURVE SMOOTH",
"145 554 OFFCURVE",
"198 595 OFFCURVE",
"271 595 CURVE SMOOTH",
"361 595 OFFCURVE",
"390 572 OFFCURVE",
"390 502 CURVE SMOOTH",
"390 471 OFFCURVE",
"387 450 OFFCURVE",
"387 450 CURVE",
"393 445 LINE",
"432 449 LINE",
"438 541 OFFCURVE",
"454 618 OFFCURVE",
"454 618 CURVE",
"451 624 LINE",
"451 624 OFFCURVE",
"387 649 OFFCURVE",
"298 649 CURVE SMOOTH",
"168 649 OFFCURVE",
"68 568 OFFCURVE",
"68 463 CURVE SMOOTH",
"68 376 OFFCURVE",
"151 330 OFFCURVE",
"231 288 CURVE SMOOTH",
"308 248 OFFCURVE",
"383 212 OFFCURVE",
"383 147 CURVE SMOOTH",
"383 79 OFFCURVE",
"327 37 OFFCURVE",
"244 37 CURVE SMOOTH",
"136 37 OFFCURVE",
"114 67 OFFCURVE",
"114 211 CURVE",
"69 206 LINE",
"69 109 OFFCURVE",
"57 32 OFFCURVE",
"57 32 CURVE",
"62 22 LINE",
"62 22 OFFCURVE",
"125 -12 OFFCURVE",
"219 -12 CURVE SMOOTH"
);
}
);
width = 530;
}
);
leftKerningGroup = S;
rightKerningGroup = S;
unicode = 0053;
},
{
glyphname = T;
lastChange = "2014-11-08 03:27:49 -0300";
layers = (
{
anchors = (
{
name = bottom;
position = "{292, 0}";
},
{
name = center;
position = "{297, 324}";
},
{
name = top;
position = "{300, 647}";
}
);
layerId = "B954E078-309A-4CF1-B397-1A2EBEB3E29A";
name = Light;
paths = (
{
closed = 1;
nodes = (
"233 162 LINE SMOOTH",
"233 56 OFFCURVE",
"226 47 OFFCURVE",
"133 39 CURVE",
"125 -4 LINE",
"125 -4 OFFCURVE",
"213 0 OFFCURVE",
"262 0 CURVE SMOOTH",
"309 0 OFFCURVE",
"409 -3 OFFCURVE",
"409 -3 CURVE",
"418 43 LINE",
"415 47 LINE",
"415 47 OFFCURVE",
"395 44 OFFCURVE",
"360 44 CURVE SMOOTH",
"319 44 OFFCURVE",
"303 63 OFFCURVE",
"303 112 CURVE SMOOTH",
"303 274 OFFCURVE",
"311 518 OFFCURVE",
"319 598 CURVE",
"464 591 OFFCURVE",
"468 588 OFFCURVE",
"488 468 CURVE",
"535 472 LINE",
"535 472 OFFCURVE",
"523 556 OFFCURVE",
"520 641 CURVE",
"511 649 LINE",
"426 638 LINE",
"116 638 LINE",
"33 649 LINE",
"24 641 LINE",
"21 556 OFFCURVE",
"9 468 OFFCURVE",
"9 468 CURVE",
"56 472 LINE",
"73 589 OFFCURVE",
"76 591 OFFCURVE",
"233 598 CURVE"
);
}
);
width = 546;
}
);
leftKerningGroup = T;
rightKerningGroup = T;
unicode = 0054;
},
{
glyphname = Tbar;
lastChange = "2014-11-08 03:27:49 -0300";
layers = (
{
components = (
{
disableAlignment = 1;
name = T;
transform = "{1, 0, 0, 1, 0, 0}";
}
);
layerId = "B954E078-309A-4CF1-B397-1A2EBEB3E29A";
name = Light;
paths = (
{
closed = 1;
nodes = (
"220 345 OFFCURVE",
"138 346 OFFCURVE",
"138 346 CURVE",
"131 307 LINE",
"140 298 LINE",
"140 298 OFFCURVE",
"203 299 OFFCURVE",
"253 299 CURVE SMOOTH",
"392 300 LINE",
"396 337 LINE",
"383 350 LINE",
"383 350 OFFCURVE",
"318 345 OFFCURVE",
"275 345 CURVE SMOOTH"
);
}
);
width = 546;
}
);
leftKerningGroup = T;
rightKerningGroup = T;
unicode = 0166;
},
{
glyphname = U;
lastChange = "2014-11-08 03:27:49 -0300";
layers = (
{
anchors = (
{
name = bottom;
position = "{298, 0}";
},
{
name = ogonek;
position = "{461, 40}";
},
{
name = top;
position = "{332, 647}";
}
);
layerId = "B954E078-309A-4CF1-B397-1A2EBEB3E29A";
name = Light;
paths = (
{
closed = 1;
nodes = (
"192 544 LINE SMOOTH",
"194 582 OFFCURVE",
"206 594 OFFCURVE",
"256 601 CURVE",
"260 646 LINE",
"260 646 OFFCURVE",
"198 637 OFFCURVE",
"155 637 CURVE SMOOTH",
"117 637 OFFCURVE",
"42 640 OFFCURVE",
"42 640 CURVE",
"35 596 LINE",
"37 592 LINE",
"37 592 OFFCURVE",
"59 594 OFFCURVE",
"71 594 CURVE SMOOTH",
"101 594 OFFCURVE",
"108 583 OFFCURVE",
"108 540 CURVE SMOOTH",
"108 209 LINE SMOOTH",
"108 68 OFFCURVE",
"187 -12 OFFCURVE",
"327 -12 CURVE SMOOTH",
"484 -12 OFFCURVE",
"575 68 OFFCURVE",
"575 208 CURVE SMOOTH",
"575 544 LINE SMOOTH",
"575 585 OFFCURVE",
"586 593 OFFCURVE",
"644 601 CURVE",
"648 646 LINE",
"648 646 OFFCURVE",
"594 637 OFFCURVE",
"551 637 CURVE SMOOTH",
"513 637 OFFCURVE",
"438 640 OFFCURVE",
"438 640 CURVE",
"431 596 LINE",
"433 592 LINE",
"433 592 OFFCURVE",
"464 594 OFFCURVE",
"476 594 CURVE SMOOTH",
"505 594 OFFCURVE",
"510 586 OFFCURVE",
"513 540 CURVE SMOOTH",
"513 540 OFFCURVE",
"519 284 OFFCURVE",
"519 214 CURVE SMOOTH",
"519 104 OFFCURVE",
"460 45 OFFCURVE",
"351 45 CURVE SMOOTH",
"243 45 OFFCURVE",
"184 118 OFFCURVE",
"184 250 CURVE"
);
}
);
width = 681;
}
);
leftKerningGroup = U;
rightKerningGroup = U;
unicode = 0055;
},
{
glyphname = Uogonek;
lastChange = "2014-11-08 03:27:49 -0300";
layers = (
{
layerId = "B954E078-309A-4CF1-B397-1A2EBEB3E29A";
name = Light;
paths = (
{
closed = 1;
nodes = (
"525 -159 LINE",
"525 -159 OFFCURVE",
"487 -182 OFFCURVE",
"448 -182 CURVE SMOOTH",
"414 -182 OFFCURVE",
"390 -160 OFFCURVE",
"390 -128 CURVE SMOOTH",
"390 -85 OFFCURVE",
"412 -53 OFFCURVE",
"509 42 CURVE SMOOTH",
"553 86 OFFCURVE",
"575 141 OFFCURVE",
"575 208 CURVE SMOOTH",
"575 544 LINE SMOOTH",
"575 584 OFFCURVE",
"585 592 OFFCURVE",
"644 601 CURVE",
"648 646 LINE",
"648 646 OFFCURVE",
"594 637 OFFCURVE",
"551 637 CURVE SMOOTH",
"513 637 OFFCURVE",
"438 640 OFFCURVE",
"438 640 CURVE",
"431 596 LINE",
"433 592 LINE",
"433 592 OFFCURVE",
"464 594 OFFCURVE",
"476 594 CURVE SMOOTH",
"505 594 OFFCURVE",
"510 587 OFFCURVE",
"513 540 CURVE SMOOTH",
"513 540 OFFCURVE",
"519 284 OFFCURVE",
"519 214 CURVE SMOOTH",
"519 104 OFFCURVE",
"460 45 OFFCURVE",
"351 45 CURVE SMOOTH",
"243 45 OFFCURVE",
"184 118 OFFCURVE",
"184 250 CURVE",
"192 544 LINE SMOOTH",
"194 582 OFFCURVE",
"206 594 OFFCURVE",
"256 601 CURVE",
"260 646 LINE",
"260 646 OFFCURVE",
"198 637 OFFCURVE",
"155 637 CURVE SMOOTH",
"117 637 OFFCURVE",
"42 640 OFFCURVE",
"42 640 CURVE",
"35 596 LINE",
"37 592 LINE",
"37 592 OFFCURVE",
"59 594 OFFCURVE",
"71 594 CURVE SMOOTH",
"101 594 OFFCURVE",
"108 583 OFFCURVE",
"108 540 CURVE SMOOTH",
"108 209 LINE SMOOTH",
"108 68 OFFCURVE",
"187 -12 OFFCURVE",
"327 -12 CURVE SMOOTH",
"361 -12 OFFCURVE",
"393 -8 OFFCURVE",
"421 0 CURVE",
"352 -70 OFFCURVE",
"327 -110 OFFCURVE",
"327 -147 CURVE SMOOTH",
"327 -205 OFFCURVE",
"370 -241 OFFCURVE",
"438 -241 CURVE",
"489 -224 OFFCURVE",
"538 -178 OFFCURVE",
"538 -178 CURVE"
);
}
);
width = 681;
}
);
leftKerningGroup = U;
rightKerningGroup = U;
unicode = 0172;
},
{
glyphname = V;
lastChange = "2014-11-08 03:27:49 -0300";
layers = (
{
anchors = (
{
name = bottom;
position = "{312, 0}";
},
{
name = top;
position = "{346, 647}";
}
);
layerId = "B954E078-309A-4CF1-B397-1A2EBEB3E29A";
name = Light;
paths = (
{
closed = 1;
nodes = (
"169 275 OFFCURVE",
"258 -17 OFFCURVE",
"258 -17 CURVE",
"322 5 LINE",
"537 545 LINE",
"551 583 OFFCURVE",
"562 591 OFFCURVE",
"603 593 CURVE",
"611 640 LINE",
"611 640 OFFCURVE",
"549 637 OFFCURVE",
"501 637 CURVE SMOOTH",
"435 637 OFFCURVE",
"358 644 OFFCURVE",
"358 644 CURVE",
"352 601 LINE",
"354 597 LINE",
"406 597 LINE SMOOTH",
"455 597 OFFCURVE",
"475 585 OFFCURVE",
"475 557 CURVE SMOOTH",
"475 527 OFFCURVE",
"361 231 OFFCURVE",
"309 97 CURVE",
"300 97 LINE",
"300 97 OFFCURVE",
"174 528 OFFCURVE",
"174 560 CURVE SMOOTH",
"174 589 OFFCURVE",
"192 597 OFFCURVE",
"263 602 CURVE",
"267 641 LINE",
"264 648 LINE",
"264 648 OFFCURVE",
"167 637 OFFCURVE",
"114 637 CURVE SMOOTH",
"80 637 OFFCURVE",
"-2 640 OFFCURVE",
"-2 640 CURVE",
"-9 597 LINE",
"-7 593 LINE",
"45 592 OFFCURVE",
"73 574 OFFCURVE",
"85 536 CURVE SMOOTH"
);
}
);
width = 610;
}
);
leftKerningGroup = V;
rightKerningGroup = V;
unicode = 0056;
},
{
glyphname = W;
lastChange = "2014-11-08 03:27:49 -0300";
layers = (
{
anchors = (
{
name = bottom;
position = "{495, 0}";
},
{
name = top;
position = "{518, 647}";
}
);
layerId = "B954E078-309A-4CF1-B397-1A2EBEB3E29A";
name = Light;
paths = (
{
closed = 1;
nodes = (
"650 5 LINE",
"860 545 LINE",
"874 584 OFFCURVE",
"885 591 OFFCURVE",
"924 593 CURVE",
"931 640 LINE",
"931 640 OFFCURVE",
"871 637 OFFCURVE",
"825 637 CURVE SMOOTH",
"761 637 OFFCURVE",
"686 644 OFFCURVE",
"686 644 CURVE",
"679 601 LINE",
"681 597 LINE",
"731 597 LINE SMOOTH",
"779 597 OFFCURVE",
"799 587 OFFCURVE",
"799 562 CURVE SMOOTH",
"799 532 OFFCURVE",
"687 232 OFFCURVE",
"637 97 CURVE",
"631 97 LINE",
"631 97 OFFCURVE",
"507 527 OFFCURVE",
"507 560 CURVE SMOOTH",
"507 589 OFFCURVE",
"525 597 OFFCURVE",
"594 602 CURVE",
"598 641 LINE",
"595 648 LINE",
"595 648 OFFCURVE",
"510 637 OFFCURVE",
"450 637 CURVE SMOOTH",
"417 637 OFFCURVE",
"337 640 OFFCURVE",
"337 640 CURVE",
"330 597 LINE",
"332 593 LINE",
"381 591 OFFCURVE",
"409 576 OFFCURVE",
"422 536 CURVE SMOOTH",
"428 518 OFFCURVE",
"434 499 OFFCURVE",
"440 481 CURVE",
"393 353 OFFCURVE",
"346 225 OFFCURVE",
"299 97 CURVE",
"293 97 LINE",
"293 97 OFFCURVE",
"170 522 OFFCURVE",
"170 561 CURVE SMOOTH",
"170 589 OFFCURVE",
"188 597 OFFCURVE",
"256 602 CURVE",
"260 641 LINE",
"257 648 LINE",
"257 648 OFFCURVE",
"183 637 OFFCURVE",
"112 637 CURVE SMOOTH",
"79 637 OFFCURVE",
"-1 640 OFFCURVE",
"-1 640 CURVE",
"-7 597 LINE",
"-7 596 OFFCURVE",
"-6 594 OFFCURVE",
"-6 593 CURVE",
"44 592 OFFCURVE",
"72 574 OFFCURVE",
"84 536 CURVE SMOOTH",
"168 276 OFFCURVE",
"251 -17 OFFCURVE",
"251 -17 CURVE",
"315 5 LINE",
"457 407 LINE",
"463 407 LINE",
"531 188 OFFCURVE",
"588 -17 OFFCURVE",
"588 -17 CURVE"
);
}
);
width = 932;
}
);
leftKerningGroup = V;
rightKerningGroup = V;
unicode = 0057;
},
{
glyphname = X;
lastChange = "2014-11-08 03:27:49 -0300";
layers = (
{
anchors = (
{
name = bottom;
position = "{271, 0}";
},
{
name = top;
position = "{390, 647}";
}
);
layerId = "B954E078-309A-4CF1-B397-1A2EBEB3E29A";
name = Light;
paths = (
{
closed = 1;
nodes = (
"291 318 LINE",
"160 514 LINE SMOOTH",
"127 563 OFFCURVE",
"84 589 OFFCURVE",
"23 597 CURVE",
"21 601 LINE",
"27 640 LINE",
"27 640 OFFCURVE",
"125 637 OFFCURVE",
"171 637 CURVE SMOOTH",
"250 637 OFFCURVE",
"306 645 OFFCURVE",
"306 645 CURVE",
"309 638 LINE",
"306 603 LINE",
"251 599 OFFCURVE",
"228 589 OFFCURVE",
"228 567 CURVE SMOOTH",
"228 551 OFFCURVE",
"274 479 OFFCURVE",
"341 377 CURVE",
"386 439 OFFCURVE",
"472 543 OFFCURVE",
"472 571 CURVE SMOOTH",
"472 589 OFFCURVE",
"455 597 OFFCURVE",
"414 601 CURVE",
"412 605 LINE",
"418 644 LINE",
"418 644 OFFCURVE",
"491 637 OFFCURVE",
"528 637 CURVE SMOOTH",
"567 637 OFFCURVE",
"625 641 OFFCURVE",
"625 641 CURVE",
"629 634 LINE",
"623 597 LINE",
"563 585 OFFCURVE",
"542 562 OFFCURVE",
"487 493 CURVE SMOOTH",
"366 340 LINE",
"512 127 LINE SMOOTH",
"548 75 OFFCURVE",
"586 50 OFFCURVE",
"649 44 CURVE",
"651 40 LINE",
"644 -3 LINE",
"644 -3 OFFCURVE",
"566 0 OFFCURVE",
"520 0 CURVE SMOOTH",
"464 0 OFFCURVE",
"365 -8 OFFCURVE",
"365 -8 CURVE",
"362 -1 LINE",
"366 38 LINE",
"419 41 OFFCURVE",
"444 50 OFFCURVE",
"444 73 CURVE SMOOTH",
"444 85 OFFCURVE",
"437 98 OFFCURVE",
"424 117 CURVE SMOOTH",
"315 281 LINE",
"223 159 LINE SMOOTH",
"184 107 OFFCURVE",
"172 89 OFFCURVE",
"172 70 CURVE SMOOTH",
"172 52 OFFCURVE",
"190 43 OFFCURVE",
"230 40 CURVE",
"232 36 LINE",
"225 -7 LINE",
"225 -7 OFFCURVE",
"152 0 OFFCURVE",
"115 0 CURVE SMOOTH",
"76 0 OFFCURVE",
"16 -4 OFFCURVE",
"16 -4 CURVE",
"12 3 LINE",
"19 44 LINE",
"78 61 OFFCURVE",
"121 108 OFFCURVE",
"181 182 CURVE SMOOTH"
);
}
);
width = 656;
}
);
leftKerningGroup = X;
rightKerningGroup = X;
unicode = 0058;
},
{
glyphname = Y;
lastChange = "2014-11-08 03:27:49 -0300";
layers = (
{
anchors = (
{
name = bottom;
position = "{333, 0}";
},
{
name = top;
position = "{364, 647}";
}
);
layerId = "B954E078-309A-4CF1-B397-1A2EBEB3E29A";
name = Light;
paths = (
{
closed = 1;
nodes = (
"163 590 OFFCURVE",
"179 598 OFFCURVE",
"239 603 CURVE",
"242 638 LINE",
"239 645 LINE",
"239 645 OFFCURVE",
"153 637 OFFCURVE",
"97 637 CURVE SMOOTH",
"51 637 OFFCURVE",
"-13 640 OFFCURVE",
"-13 640 CURVE",
"-19 601 LINE",
"-17 597 LINE",
"61 590 OFFCURVE",
"69 564 OFFCURVE",
"109 482 CURVE SMOOTH",
"199 299 LINE SMOOTH",
"223 251 OFFCURVE",
"228 225 OFFCURVE",
"228 186 CURVE SMOOTH",
"228 142 LINE SMOOTH",
"228 68 OFFCURVE",
"222 48 OFFCURVE",
"150 34 CURVE",
"144 -12 LINE",
"144 -12 OFFCURVE",
"208 0 OFFCURVE",
"258 0 CURVE SMOOTH",
"302 0 OFFCURVE",
"385 -3 OFFCURVE",
"385 -3 CURVE",
"394 43 LINE",
"392 47 LINE",
"392 47 OFFCURVE",
"363 44 OFFCURVE",
"343 44 CURVE SMOOTH",
"308 44 OFFCURVE",
"298 61 OFFCURVE",
"299 112 CURVE SMOOTH",
"301 221 OFFCURVE",
"300 255 OFFCURVE",
"321 291 CURVE SMOOTH",
"421 467 LINE SMOOTH",
"475 562 OFFCURVE",
"483 584 OFFCURVE",
"552 597 CURVE",
"558 634 LINE",
"554 641 LINE",
"554 641 OFFCURVE",
"501 637 OFFCURVE",
"462 637 CURVE SMOOTH",
"425 637 OFFCURVE",
"351 644 OFFCURVE",
"351 644 CURVE",
"345 605 LINE",
"347 601 LINE",
"390 598 OFFCURVE",
"410 588 OFFCURVE",
"410 571 CURVE SMOOTH",
"410 557 OFFCURVE",
"404 539 OFFCURVE",
"394 521 CURVE SMOOTH",
"280 309 LINE",
"275 309 LINE",
"274 309 OFFCURVE",
"163 538 OFFCURVE",
"163 567 CURVE SMOOTH"
);
}
);
width = 538;
}
);
leftKerningGroup = Y;
rightKerningGroup = Y;
unicode = 0059;
},
{
glyphname = Z;
lastChange = "2014-11-08 03:27:49 -0300";
layers = (
{
anchors = (
{
name = bottom;
position = "{313, 0}";
},
{
name = top;
position = "{331, 647}";
}
);
layerId = "B954E078-309A-4CF1-B397-1A2EBEB3E29A";
name = Light;
paths = (
{
closed = 1;
nodes = (
"495 13 LINE",
"500 109 OFFCURVE",
"520 218 OFFCURVE",
"520 218 CURVE",
"473 213 LINE",
"451 99 OFFCURVE",
"410 48 OFFCURVE",
"341 47 CURVE",
"138 40 LINE",
"181 108 OFFCURVE",
"335 351 OFFCURVE",
"524 602 CURVE",
"513 631 LINE",
"255 638 LINE",
"80 649 LINE",
"70 640 LINE",
"68 548 OFFCURVE",
"52 445 OFFCURVE",
"52 445 CURVE",
"99 449 LINE",
"110 550 OFFCURVE",
"142 583 OFFCURVE",
"234 587 CURVE",
"407 593 LINE",
"34 29 LINE",
"48 -3 LINE",
"118 3 LINE",
"480 -3 LINE"
);
}
);
width = 568;
}
);
leftKerningGroup = Z;
rightKerningGroup = Z;
unicode = 005A;
},
{
glyphname = a;
lastChange = "2014-11-08 03:27:49 -0300";
layers = (
{
anchors = (
{
name = bottom;
position = "{229, 0}";
},
{
name = ogonek;
position = "{420, 41}";
},
{
name = top;
position = "{235, 474}";
}
);
layerId = "B954E078-309A-4CF1-B397-1A2EBEB3E29A";
name = Light;
paths = (
{
closed = 1;
nodes = (
"283 248 LINE",
"94 196 LINE SMOOTH",
"62 187 OFFCURVE",
"41 155 OFFCURVE",
"41 116 CURVE SMOOTH",
"41 44 OFFCURVE",
"95 -8 OFFCURVE",
"169 -8 CURVE SMOOTH",
"189 -8 OFFCURVE",
"231 22 OFFCURVE",
"279 70 CURVE",
"283 69 LINE",
"288 15 OFFCURVE",
"318 -12 OFFCURVE",
"372 -12 CURVE",
"401 -3 OFFCURVE",
"437 30 OFFCURVE",
"459 68 CURVE",
"445 84 LINE",
"428 69 OFFCURVE",
"404 59 OFFCURVE",
"385 59 CURVE SMOOTH",
"359 59 OFFCURVE",
"344 76 OFFCURVE",
"344 105 CURVE SMOOTH",
"344 164 OFFCURVE",
"362 299 OFFCURVE",
"362 335 CURVE SMOOTH",
"362 416 OFFCURVE",
"310 464 OFFCURVE",
"223 464 CURVE SMOOTH",
"198 464 OFFCURVE",
"128 434 OFFCURVE",
"60 394 CURVE",
"72 351 LINE",
"77 348 LINE",
"109 377 OFFCURVE",
"159 398 OFFCURVE",
"197 398 CURVE SMOOTH",
"253 398 OFFCURVE",
"285 359 OFFCURVE",
"285 292 CURVE"
);
},
{
closed = 1;
nodes = (
"277 108 LINE",
"249 80 OFFCURVE",
"211 60 OFFCURVE",
"186 60 CURVE SMOOTH",
"146 60 OFFCURVE",
"117 89 OFFCURVE",
"117 127 CURVE SMOOTH",
"117 148 OFFCURVE",
"127 163 OFFCURVE",
"146 169 CURVE SMOOTH",
"281 210 LINE"
);
}
);
width = 466;
}
);
leftKerningGroup = a;
rightKerningGroup = n;
unicode = 0061;
},
{
glyphname = aogonek;
lastChange = "2014-11-08 03:27:49 -0300";
layers = (
{
layerId = "B954E078-309A-4CF1-B397-1A2EBEB3E29A";
name = Light;
paths = (
{
closed = 1;
nodes = (
"460 -159 LINE",
"460 -159 OFFCURVE",
"422 -182 OFFCURVE",
"383 -182 CURVE SMOOTH",
"348 -182 OFFCURVE",
"325 -160 OFFCURVE",
"325 -128 CURVE SMOOTH",
"325 -89 OFFCURVE",
"355 -46 OFFCURVE",
"461 65 CURVE",
"445 84 LINE",
"445 84 OFFCURVE",
"417 59 OFFCURVE",
"385 59 CURVE SMOOTH",
"359 59 OFFCURVE",
"344 76 OFFCURVE",
"344 105 CURVE SMOOTH",
"344 132 OFFCURVE",
"343 116 OFFCURVE",
"358 284 CURVE SMOOTH",
"361 315 OFFCURVE",
"362 325 OFFCURVE",
"362 335 CURVE SMOOTH",
"362 404 OFFCURVE",
"324 450 OFFCURVE",
"258 461 CURVE SMOOTH",
"247 463 OFFCURVE",
"235 464 OFFCURVE",
"223 464 CURVE SMOOTH",
"180 464 OFFCURVE",
"60 394 OFFCURVE",
"60 394 CURVE",
"72 351 LINE",
"77 348 LINE",
"77 348 OFFCURVE",
"132 398 OFFCURVE",
"197 398 CURVE SMOOTH",
"253 398 OFFCURVE",
"285 359 OFFCURVE",
"285 292 CURVE",
"283 248 LINE",
"94 196 LINE SMOOTH",
"62 187 OFFCURVE",
"41 155 OFFCURVE",
"41 116 CURVE SMOOTH",
"41 44 OFFCURVE",
"95 -8 OFFCURVE",
"169 -8 CURVE SMOOTH",
"189 -8 OFFCURVE",
"231 22 OFFCURVE",
"279 70 CURVE",
"280 70 OFFCURVE",
"282 69 OFFCURVE",
"283 69 CURVE",
"286 25 OFFCURVE",
"308 -3 OFFCURVE",
"347 -9 CURVE",
"285 -73 OFFCURVE",
"262 -111 OFFCURVE",
"262 -147 CURVE SMOOTH",
"262 -205 OFFCURVE",
"305 -241 OFFCURVE",
"373 -241 CURVE",
"424 -224 OFFCURVE",
"473 -178 OFFCURVE",
"473 -178 CURVE"
);
},
{
closed = 1;
nodes = (
"277 108 LINE",
"249 80 OFFCURVE",
"211 60 OFFCURVE",
"186 60 CURVE SMOOTH",
"146 60 OFFCURVE",
"117 89 OFFCURVE",
"117 127 CURVE SMOOTH",
"117 148 OFFCURVE",
"127 162 OFFCURVE",
"146 169 CURVE SMOOTH",
"281 210 LINE"
);
}
);
width = 466;
}
);
leftKerningGroup = a;
rightKerningGroup = n;
unicode = 0105;
},
{
glyphname = ae;
lastChange = "2014-11-08 03:27:49 -0300";
layers = (
{
anchors = (
{
name = top;
position = "{350, 472}";
}
);
layerId = "B954E078-309A-4CF1-B397-1A2EBEB3E29A";
name = Light;
paths = (
{
closed = 1;
nodes = (
"622 85 LINE",
"616 87 LINE",
"616 87 OFFCURVE",
"553 52 OFFCURVE",
"493 52 CURVE SMOOTH",
"411 52 OFFCURVE",
"351 122 OFFCURVE",
"344 225 CURVE",
"614 289 LINE",
"623 303 LINE",
"623 303 OFFCURVE",
"625 313 OFFCURVE",
"625 322 CURVE SMOOTH",
"625 411 OFFCURVE",
"573 464 OFFCURVE",
"488 464 CURVE SMOOTH",
"431 464 OFFCURVE",
"375 435 OFFCURVE",
"336 384 CURVE",
"319 437 OFFCURVE",
"277 464 OFFCURVE",
"212 464 CURVE SMOOTH",
"170 464 OFFCURVE",
"49 394 OFFCURVE",
"49 394 CURVE",
"61 351 LINE",
"66 348 LINE",
"66 348 OFFCURVE",
"124 401 OFFCURVE",
"189 401 CURVE SMOOTH",
"245 401 OFFCURVE",
"275 364 OFFCURVE",
"275 297 CURVE SMOOTH",
"274 247 LINE",
"83 195 LINE SMOOTH",
"51 186 OFFCURVE",
"30 155 OFFCURVE",
"30 116 CURVE SMOOTH",
"30 44 OFFCURVE",
"84 -8 OFFCURVE",
"158 -8 CURVE SMOOTH",
"193 1 OFFCURVE",
"245 40 OFFCURVE",
"297 95 CURVE",
"329 27 OFFCURVE",
"396 -12 OFFCURVE",
"480 -12 CURVE SMOOTH",
"541 -12 OFFCURVE",
"633 56 OFFCURVE",
"633 56 CURVE"
);
},
{
closed = 1;
nodes = (
"273 210 LINE",
"273 178 OFFCURVE",
"277 150 OFFCURVE",
"285 125 CURVE",
"238 81 OFFCURVE",
"198 57 OFFCURVE",
"170 57 CURVE SMOOTH",
"134 57 OFFCURVE",
"103 90 OFFCURVE",
"103 127 CURVE SMOOTH",
"103 146 OFFCURVE",
"113 163 OFFCURVE",
"135 169 CURVE SMOOTH"
);
},
{
closed = 1;
nodes = (
"343 269 LINE SMOOTH",
"343 352 OFFCURVE",
"392 408 OFFCURVE",
"465 408 CURVE SMOOTH",
"507 408 OFFCURVE",
"538 374 OFFCURVE",
"538 330 CURVE SMOOTH",
"538 321 OFFCURVE",
"531 316 OFFCURVE",
"518 312 CURVE SMOOTH",
"343 262 LINE"
);
}
);
width = 653;
}
);
leftKerningGroup = a;
rightKerningGroup = e;
unicode = 00E6;
},
{
glyphname = b;
lastChange = "2014-11-08 03:27:49 -0300";
layers = (
{
anchors = (
{
name = bottom;
position = "{252, 0}";
},
{
name = top;
position = "{215, 463}";
}
);
layerId = "B954E078-309A-4CF1-B397-1A2EBEB3E29A";
name = Light;
paths = (
{
closed = 1;
nodes = (
"85 8 LINE",
"94 0 LINE SMOOTH",
"94 0 OFFCURVE",
"156 -12 OFFCURVE",
"223 -12 CURVE SMOOTH",
"361 -12 OFFCURVE",
"472 104 OFFCURVE",
"472 250 CURVE SMOOTH",
"472 377 OFFCURVE",
"393 464 OFFCURVE",
"279 464 CURVE SMOOTH",
"265 464 OFFCURVE",
"219 438 OFFCURVE",
"158 394 CURVE SMOOTH",
"163 582 OFFCURVE",
"172 715 OFFCURVE",
"181 729 CURVE SMOOTH",
"175 742 LINE SMOOTH",
"175 742 OFFCURVE",
"96 722 OFFCURVE",
"27 713 CURVE SMOOTH",
"23 680 LINE",
"26 677 LINE",
"26 677 OFFCURVE",
"37 680 OFFCURVE",
"48 680 CURVE SMOOTH",
"73 680 OFFCURVE",
"85 663 OFFCURVE",
"85 626 CURVE"
);
},
{
closed = 1;
nodes = (
"156 342 LINE SMOOTH",
"190 373 OFFCURVE",
"236 396 OFFCURVE",
"263 396 CURVE SMOOTH",
"337 396 OFFCURVE",
"395 315 OFFCURVE",
"395 213 CURVE SMOOTH",
"395 108 OFFCURVE",
"340 43 OFFCURVE",
"251 43 CURVE SMOOTH",
"219 43 OFFCURVE",
"177 52 OFFCURVE",
"153 64 CURVE SMOOTH"
);
}
);
width = 508;
}
);
leftKerningGroup = h;
rightKerningGroup = o;
unicode = 0062;
},
{
glyphname = c;
lastChange = "2014-11-08 03:27:49 -0300";
layers = (
{
anchors = (
{
name = bottom;
position = "{248, 0}";
},
{
name = top;
position = "{260, 472}";
}
);
layerId = "B954E078-309A-4CF1-B397-1A2EBEB3E29A";
name = Light;
paths = (
{
closed = 1;
nodes = (
"365 88 LINE",
"365 88 OFFCURVE",
"308 55 OFFCURVE",
"252 55 CURVE SMOOTH",
"168 55 OFFCURVE",
"116 127 OFFCURVE",
"116 243 CURVE SMOOTH",
"116 350 OFFCURVE",
"161 410 OFFCURVE",
"243 410 CURVE SMOOTH",
"292 410 OFFCURVE",
"325 377 OFFCURVE",
"325 328 CURVE SMOOTH",
"325 297 LINE",
"366 300 LINE",
"369 378 OFFCURVE",
"387 438 OFFCURVE",
"387 438 CURVE",
"384 445 LINE",
"384 445 OFFCURVE",
"331 464 OFFCURVE",
"267 464 CURVE SMOOTH",
"136 464 OFFCURVE",
"36 353 OFFCURVE",
"36 209 CURVE SMOOTH",
"36 75 OFFCURVE",
"118 -12 OFFCURVE",
"245 -12 CURVE SMOOTH",
"294 -12 OFFCURVE",
"382 55 OFFCURVE",
"382 55 CURVE",
"371 86 LINE"
);
}
);
width = 424;
}
);
leftKerningGroup = o;
rightKerningGroup = c;
unicode = 0063;
},
{
glyphname = d;
lastChange = "2014-11-08 03:27:49 -0300";
layers = (
{
anchors = (
{
name = bottom;
position = "{264, 0}";
},
{
name = center;
position = "{376, 236}";
},
{
name = top;
position = "{390, 730}";
}
);
layerId = "B954E078-309A-4CF1-B397-1A2EBEB3E29A";
name = Light;
paths = (
{
closed = 1;
nodes = (
"361 59 LINE",
"368 12 OFFCURVE",
"397 -12 OFFCURVE",
"450 -12 CURVE",
"497 2 OFFCURVE",
"537 68 OFFCURVE",
"537 68 CURVE",
"523 84 LINE",
"523 84 OFFCURVE",
"495 59 OFFCURVE",
"463 59 CURVE SMOOTH",
"437 59 OFFCURVE",
"422 76 OFFCURVE",
"422 105 CURVE SMOOTH",
"422 398 OFFCURVE",
"436 706 OFFCURVE",
"450 729 CURVE",
"444 742 LINE",
"444 742 OFFCURVE",
"365 722 OFFCURVE",
"296 713 CURVE",
"292 676 LINE",
"292 676 OFFCURVE",
"306 680 OFFCURVE",
"317 680 CURVE SMOOTH",
"342 680 OFFCURVE",
"354 663 OFFCURVE",
"354 626 CURVE SMOOTH",
"354 460 LINE",
"326 463 OFFCURVE",
"303 464 OFFCURVE",
"285 464 CURVE SMOOTH",
"148 464 OFFCURVE",
"36 346 OFFCURVE",
"36 202 CURVE SMOOTH",
"36 76 OFFCURVE",
"114 -9 OFFCURVE",
"229 -9 CURVE SMOOTH",
"243 -9 OFFCURVE",
"285 15 OFFCURVE",
"354 62 CURVE"
);
},
{
closed = 1;
nodes = (
"354 109 LINE",
"354 109 OFFCURVE",
"293 56 OFFCURVE",
"245 56 CURVE SMOOTH",
"171 56 OFFCURVE",
"113 135 OFFCURVE",
"113 236 CURVE SMOOTH",
"113 341 OFFCURVE",
"168 406 OFFCURVE",
"257 406 CURVE SMOOTH",
"317 406 OFFCURVE",
"354 383 OFFCURVE",
"354 383 CURVE"
);
}
);
width = 537;
}
);
leftKerningGroup = o;
unicode = 0064;
},
{
glyphname = eth;
lastChange = "2014-11-08 03:27:49 -0300";
layers = (
{
layerId = "B954E078-309A-4CF1-B397-1A2EBEB3E29A";
name = Light;
paths = (
{
closed = 1;
nodes = (
"410 692 LINE",
"272 625 LINE",
"217 670 OFFCURVE",
"152 709 OFFCURVE",
"78 741 CURVE",
"68 737 LINE",
"53 704 LINE",
"118 674 OFFCURVE",
"173 639 OFFCURVE",
"219 599 CURVE",
"101 541 LINE",
"105 511 LINE",
"114 508 LINE",
"247 572 LINE",
"288 530 OFFCURVE",
"319 482 OFFCURVE",
"342 429 CURVE",
"340 427 LINE",
"340 427 OFFCURVE",
"297 453 OFFCURVE",
"266 453 CURVE SMOOTH",
"144 453 OFFCURVE",
"43 342 OFFCURVE",
"43 206 CURVE SMOOTH",
"43 77 OFFCURVE",
"125 -12 OFFCURVE",
"243 -12 CURVE SMOOTH",
"368 -12 OFFCURVE",
"465 99 OFFCURVE",
"465 242 CURVE SMOOTH",
"465 376 OFFCURVE",
"407 500 OFFCURVE",
"301 599 CURVE",
"422 658 LINE",
"418 687 LINE"
);
},
{
closed = 1;
nodes = (
"383 102 OFFCURVE",
"340 37 OFFCURVE",
"271 37 CURVE SMOOTH",
"184 37 OFFCURVE",
"123 118 OFFCURVE",
"123 235 CURVE SMOOTH",
"123 338 OFFCURVE",
"171 399 OFFCURVE",
"250 399 CURVE SMOOTH",
"313 399 OFFCURVE",
"349 373 OFFCURVE",
"365 358 CURVE",
"377 311 OFFCURVE",
"383 261 OFFCURVE",
"383 206 CURVE SMOOTH"
);
}
);
width = 508;
}
);
leftKerningGroup = o;
unicode = 00F0;
},
{
glyphname = dcaron;
lastChange = "2014-11-08 03:27:49 -0300";
layers = (
{
components = (
{
disableAlignment = 1;
name = d;
transform = "{1, 0, 0, 1, 0, 0}";
}
);
layerId = "B954E078-309A-4CF1-B397-1A2EBEB3E29A";
name = Light;
paths = (
{
closed = 1;
nodes = (
"572 709 LINE",
"502 695 LINE",
"502 695 OFFCURVE",
"512 587 OFFCURVE",
"508 477 CURVE",
"519 475 LINE",
"544 489 LINE",
"565 591 OFFCURVE",
"579 701 OFFCURVE",
"579 701 CURVE"
);
}
);
width = 549;
}
);
leftKerningGroup = o;
unicode = 010F;
},
{
glyphname = dcroat;
lastChange = "2014-11-08 03:27:49 -0300";
layers = (
{
components = (
{
disableAlignment = 1;
name = d;
transform = "{1, 0, 0, 1, 0, 0}";
}
);
layerId = "B954E078-309A-4CF1-B397-1A2EBEB3E29A";
name = Light;
paths = (
{
closed = 1;
nodes = (
"405 582 LINE",
"238 583 LINE",
"231 544 LINE",
"240 535 LINE",
"383 536 LINE",
"522 537 LINE",
"526 574 LINE",
"513 587 LINE"
);
}
);
width = 537;
}
);
leftKerningGroup = o;
unicode = 0111;
},
{
glyphname = e;
lastChange = "2014-11-08 03:27:49 -0300";
layers = (
{
anchors = (
{
name = bottom;
position = "{261, 0}";
},
{
name = ogonek;
position = "{392, 41}";
},
{
name = top;
position = "{255, 472}";
}
);
layerId = "B954E078-309A-4CF1-B397-1A2EBEB3E29A";
name = Light;
paths = (
{
closed = 1;
nodes = (
"115 295 LINE",
"127 368 OFFCURVE",
"176 413 OFFCURVE",
"238 413 CURVE SMOOTH",
"291 413 OFFCURVE",
"321 384 OFFCURVE",
"321 331 CURVE SMOOTH",
"321 311 OFFCURVE",
"316 306 OFFCURVE",
"296 304 CURVE SMOOTH"
);
},
{
closed = 1;
nodes = (
"387 258 LINE",
"400 270 LINE",
"400 270 OFFCURVE",
"406 294 OFFCURVE",
"406 319 CURVE SMOOTH",
"406 414 OFFCURVE",
"355 464 OFFCURVE",
"257 464 CURVE SMOOTH",
"138 464 OFFCURVE",
"36 346 OFFCURVE",
"36 209 CURVE SMOOTH",
"36 77 OFFCURVE",
"120 -12 OFFCURVE",
"246 -12 CURVE SMOOTH",
"306 -12 OFFCURVE",
"399 56 OFFCURVE",
"399 56 CURVE",
"388 85 LINE",
"382 87 LINE",
"382 87 OFFCURVE",
"321 56 OFFCURVE",
"259 56 CURVE SMOOTH",
"170 56 OFFCURVE",
"111 130 OFFCURVE",
"111 242 CURVE SMOOTH",
"111 258 LINE"
);
}
);
width = 448;
}
);
leftKerningGroup = o;
rightKerningGroup = e;
unicode = 0065;
},
{
glyphname = eogonek;
lastChange = "2014-11-08 03:27:49 -0300";
layers = (
{
layerId = "B954E078-309A-4CF1-B397-1A2EBEB3E29A";
name = Light;
paths = (
{
closed = 1;
nodes = (
"115 295 LINE",
"127 368 OFFCURVE",
"176 413 OFFCURVE",
"238 413 CURVE SMOOTH",
"291 413 OFFCURVE",
"321 384 OFFCURVE",
"321 331 CURVE SMOOTH",
"321 311 OFFCURVE",
"316 306 OFFCURVE",
"296 304 CURVE SMOOTH"
);
},
{
closed = 1;
nodes = (
"387 258 LINE",
"400 270 LINE",
"400 270 OFFCURVE",
"406 294 OFFCURVE",
"406 319 CURVE SMOOTH",
"406 414 OFFCURVE",
"355 464 OFFCURVE",
"257 464 CURVE SMOOTH",
"138 464 OFFCURVE",
"36 346 OFFCURVE",
"36 209 CURVE SMOOTH",
"36 77 OFFCURVE",
"120 -12 OFFCURVE",
"246 -12 CURVE SMOOTH",
"306 -12 OFFCURVE",
"399 56 OFFCURVE",
"399 56 CURVE",
"388 85 LINE",
"382 87 LINE",
"382 87 OFFCURVE",
"321 56 OFFCURVE",
"259 56 CURVE SMOOTH",
"170 56 OFFCURVE",
"111 130 OFFCURVE",
"111 242 CURVE SMOOTH",
"111 258 LINE"
);
},
{
closed = 1;
nodes = (
"402 -159 LINE",
"402 -159 OFFCURVE",
"364 -182 OFFCURVE",
"325 -182 CURVE SMOOTH",
"290 -182 OFFCURVE",
"267 -159 OFFCURVE",
"267 -128 CURVE SMOOTH",
"267 -75 OFFCURVE",
"307 -35 OFFCURVE",
"399 56 CURVE",
"357 56 LINE",
"278 -22 OFFCURVE",
"204 -85 OFFCURVE",
"204 -147 CURVE SMOOTH",
"204 -207 OFFCURVE",
"250 -241 OFFCURVE",
"315 -241 CURVE",
"366 -224 OFFCURVE",
"415 -178 OFFCURVE",
"415 -178 CURVE"
);
}
);
width = 448;
}
);
leftKerningGroup = o;
rightKerningGroup = e;
unicode = 0119;
},
{
glyphname = f;
lastChange = "2014-11-08 03:27:49 -0300";
layers = (
{
anchors = (
{
name = bottom;
position = "{157, 0}";
},
{
name = top;
position = "{265, 749}";
}
);
layerId = "B954E078-309A-4CF1-B397-1A2EBEB3E29A";
name = Light;
paths = (
{
closed = 1;
nodes = (
"45 405 LINE",
"94 403 OFFCURVE",
"106 396 OFFCURVE",
"108 364 CURVE",
"108 94 LINE SMOOTH",
"108 60 OFFCURVE",
"89 40 OFFCURVE",
"51 35 CURVE",
"46 -4 LINE",
"46 -4 OFFCURVE",
"102 0 OFFCURVE",
"158 0 CURVE SMOOTH",
"197 0 OFFCURVE",
"282 -2 OFFCURVE",
"282 -2 CURVE",
"289 41 LINE",
"287 45 LINE",
"287 45 OFFCURVE",
"261 43 OFFCURVE",
"227 43 CURVE SMOOTH",
"192 43 OFFCURVE",
"176 60 OFFCURVE",
"176 98 CURVE SMOOTH",
"180 399 LINE",
"250 399 OFFCURVE",
"312 396 OFFCURVE",
"312 396 CURVE",
"322 449 LINE",
"319 452 LINE",
"319 452 OFFCURVE",
"252 449 OFFCURVE",
"181 449 CURVE",
"182 498 LINE SMOOTH",
"184 623 OFFCURVE",
"221 683 OFFCURVE",
"297 683 CURVE SMOOTH",
"362 683 OFFCURVE",
"412 646 OFFCURVE",
"412 646 CURVE",
"423 649 LINE",
"438 686 OFFCURVE",
"454 714 OFFCURVE",
"454 714 CURVE",
"452 723 LINE",
"452 723 OFFCURVE",
"406 742 OFFCURVE",
"338 742 CURVE SMOOTH",
"198 742 OFFCURVE",
"109 634 OFFCURVE",
"108 460 CURVE SMOOTH",
"108 456 LINE",
"48 445 LINE",
"41 411 LINE"
);
}
);
width = 330;
}
);
leftKerningGroup = f;
rightKerningGroup = f;
unicode = 0066;
},
{
glyphname = g;
lastChange = "2014-11-08 03:27:49 -0300";
layers = (
{
anchors = (
{
name = bottom;
position = "{245, -215}";
},
{
name = top;
position = "{264, 472}";
}
);
layerId = "B954E078-309A-4CF1-B397-1A2EBEB3E29A";
name = Light;
paths = (
{
closed = 1;
nodes = (
"338 130 OFFCURVE",
"425 209 OFFCURVE",
"425 307 CURVE SMOOTH",
"425 345 OFFCURVE",
"412 379 OFFCURVE",
"385 409 CURVE",
"389 414 LINE",
"417 416 OFFCURVE",
"454 420 OFFCURVE",
"475 423 CURVE",
"486 479 LINE",
"483 483 LINE",
"426 468 OFFCURVE",
"372 456 OFFCURVE",
"345 453 CURVE",
"319 453 OFFCURVE",
"284 464 OFFCURVE",
"247 464 CURVE SMOOTH",
"146 464 OFFCURVE",
"61 381 OFFCURVE",
"61 283 CURVE SMOOTH",
"61 227 OFFCURVE",
"89 177 OFFCURVE",
"135 153 CURVE",
"135 149 LINE",
"105 131 OFFCURVE",
"77 110 OFFCURVE",
"51 85 CURVE",
"51 34 OFFCURVE",
"90 -1 OFFCURVE",
"160 -13 CURVE",
"160 -19 LINE",
"120 -48 OFFCURVE",
"79 -84 OFFCURVE",
"61 -109 CURVE",
"61 -193 OFFCURVE",
"117 -242 OFFCURVE",
"211 -242 CURVE SMOOTH",
"336 -242 OFFCURVE",
"460 -154 OFFCURVE",
"460 -65 CURVE SMOOTH",
"460 82 OFFCURVE",
"129 12 OFFCURVE",
"129 92 CURVE SMOOTH",
"129 107 OFFCURVE",
"140 119 OFFCURVE",
"171 137 CURVE",
"194 132 OFFCURVE",
"211 130 OFFCURVE",
"228 130 CURVE SMOOTH"
);
},
{
closed = 1;
nodes = (
"183 174 OFFCURVE",
"136 226 OFFCURVE",
"136 302 CURVE SMOOTH",
"136 370 OFFCURVE",
"174 413 OFFCURVE",
"235 413 CURVE SMOOTH",
"303 413 OFFCURVE",
"350 360 OFFCURVE",
"350 283 CURVE SMOOTH",
"350 215 OFFCURVE",
"312 174 OFFCURVE",
"251 174 CURVE SMOOTH"
);
},
{
closed = 1;
nodes = (
"184 -193 OFFCURVE",
"141 -163 OFFCURVE",
"141 -118 CURVE SMOOTH",
"141 -86 OFFCURVE",
"168 -44 OFFCURVE",
"203 -21 CURVE",
"358 -40 OFFCURVE",
"396 -54 OFFCURVE",
"396 -93 CURVE SMOOTH",
"396 -147 OFFCURVE",
"327 -193 OFFCURVE",
"247 -193 CURVE SMOOTH"
);
}
);
width = 504;
}
);
leftKerningGroup = g;
rightKerningGroup = g;
unicode = 0067;
},
{
glyphname = h;
lastChange = "2014-11-08 03:27:49 -0300";
layers = (
{
anchors = (
{
name = bottom;
position = "{265, 0}";
},
{
name = center;
position = "{277, 236}";
},
{
name = top;
position = "{128, 710}";
}
);
layerId = "B954E078-309A-4CF1-B397-1A2EBEB3E29A";
name = Light;
paths = (
{
closed = 1;
nodes = (
"29 -2 LINE",
"29 -2 OFFCURVE",
"86 0 OFFCURVE",
"128 0 CURVE SMOOTH",
"165 0 OFFCURVE",
"219 -3 OFFCURVE",
"219 -3 CURVE",
"228 40 LINE",
"226 44 LINE",
"226 44 OFFCURVE",
"203 42 OFFCURVE",
"191 42 CURVE SMOOTH",
"165 42 OFFCURVE",
"155 57 OFFCURVE",
"155 98 CURVE SMOOTH",
"155 180 OFFCURVE",
"156 264 OFFCURVE",
"158 341 CURVE",
"173 353 OFFCURVE",
"232 396 OFFCURVE",
"285 396 CURVE SMOOTH",
"338 396 OFFCURVE",
"368 358 OFFCURVE",
"368 292 CURVE SMOOTH",
"362 94 LINE SMOOTH",
"362 59 OFFCURVE",
"346 40 OFFCURVE",
"306 29 CURVE",
"302 -12 LINE",
"302 -12 OFFCURVE",
"363 0 OFFCURVE",
"405 0 CURVE SMOOTH",
"442 0 OFFCURVE",
"494 -3 OFFCURVE",
"494 -3 CURVE",
"502 40 LINE",
"500 44 LINE",
"500 44 OFFCURVE",
"477 42 OFFCURVE",
"465 42 CURVE SMOOTH",
"440 42 OFFCURVE",
"430 59 OFFCURVE",
"430 98 CURVE SMOOTH",
"430 156 OFFCURVE",
"446 300 OFFCURVE",
"446 335 CURVE SMOOTH",
"446 417 OFFCURVE",
"396 464 OFFCURVE",
"309 464 CURVE SMOOTH",
"271 464 OFFCURVE",
"178 399 OFFCURVE",
"159 386 CURVE",
"164 570 OFFCURVE",
"173 714 OFFCURVE",
"183 729 CURVE",
"177 742 LINE",
"177 742 OFFCURVE",
"98 722 OFFCURVE",
"29 713 CURVE",
"25 681 LINE",
"29 678 LINE",
"50 678 LINE",
"76 678 OFFCURVE",
"87 662 OFFCURVE",
"87 626 CURVE SMOOTH",
"87 94 LINE",
"87 57 OFFCURVE",
"73 43 OFFCURVE",
"35 39 CURVE"
);
}
);
width = 534;
}
);
leftKerningGroup = h;
rightKerningGroup = n;
unicode = 0068;
},
{
glyphname = hbar;
lastChange = "2014-11-08 03:27:49 -0300";
layers = (
{
components = (
{
disableAlignment = 1;
name = h;
transform = "{1, 0, 0, 1, 2, 0}";
}
);
layerId = "B954E078-309A-4CF1-B397-1A2EBEB3E29A";
name = Light;
paths = (
{
closed = 1;
nodes = (
"97 568 OFFCURVE",
"15 569 OFFCURVE",
"15 569 CURVE",
"8 530 LINE",
"17 521 LINE",
"17 521 OFFCURVE",
"80 522 OFFCURVE",
"130 522 CURVE SMOOTH",
"269 523 LINE",
"273 560 LINE",
"260 573 LINE",
"260 573 OFFCURVE",
"195 568 OFFCURVE",
"152 568 CURVE SMOOTH"
);
}
);
width = 536;
}
);
leftKerningGroup = h;
rightKerningGroup = n;
unicode = 0127;
},
{
glyphname = i;
lastChange = "2014-11-08 03:27:49 -0300";
layers = (
{
anchors = (
{
name = bottom;
position = "{159, 0}";
},
{
name = ogonek;
position = "{159, 49}";
},
{
name = top;
position = "{136, 472}";
}
);
layerId = "B954E078-309A-4CF1-B397-1A2EBEB3E29A";
name = Light;
paths = (
{
closed = 1;
nodes = (
"166 602 OFFCURVE",
"192 628 OFFCURVE",
"192 661 CURVE SMOOTH",
"192 691 OFFCURVE",
"171 712 OFFCURVE",
"143 712 CURVE SMOOTH",
"110 712 OFFCURVE",
"84 686 OFFCURVE",
"84 653 CURVE SMOOTH",
"84 623 OFFCURVE",
"104 602 OFFCURVE",
"133 602 CURVE SMOOTH"
);
},
{
closed = 1;
nodes = (
"44 -12 LINE",
"44 -12 OFFCURVE",
"105 0 OFFCURVE",
"147 0 CURVE SMOOTH",
"184 0 OFFCURVE",
"236 -3 OFFCURVE",
"236 -3 CURVE",
"244 40 LINE",
"242 44 LINE",
"242 44 OFFCURVE",
"219 42 OFFCURVE",
"207 42 CURVE SMOOTH",
"182 42 OFFCURVE",
"172 59 OFFCURVE",
"172 98 CURVE SMOOTH",
"172 255 OFFCURVE",
"183 424 OFFCURVE",
"195 452 CURVE",
"190 464 LINE",
"190 464 OFFCURVE",
"113 445 OFFCURVE",
"46 435 CURVE",
"42 398 LINE",
"42 398 OFFCURVE",
"56 402 OFFCURVE",
"67 402 CURVE SMOOTH",
"92 402 OFFCURVE",
"104 385 OFFCURVE",
"104 348 CURVE SMOOTH",
"104 94 LINE SMOOTH",
"104 59 OFFCURVE",
"88 40 OFFCURVE",
"48 29 CURVE"
);
}
);
width = 282;
}
);
leftKerningGroup = n;
rightKerningGroup = i;
unicode = 0069;
},
{
glyphname = dotlessi;
lastChange = "2014-11-08 03:27:49 -0300";
layers = (
{
anchors = (
{
name = bottom;
position = "{159, 0}";
},
{
name = ogonek;
position = "{238, 49}";
},
{
name = top;
position = "{137, 472}";
}
);
layerId = "B954E078-309A-4CF1-B397-1A2EBEB3E29A";
name = Light;
paths = (
{
closed = 1;
nodes = (
"44 -12 LINE",
"44 -12 OFFCURVE",
"105 0 OFFCURVE",
"147 0 CURVE SMOOTH",
"184 0 OFFCURVE",
"236 -3 OFFCURVE",
"236 -3 CURVE",
"244 40 LINE",
"242 44 LINE",
"242 44 OFFCURVE",
"219 42 OFFCURVE",
"207 42 CURVE SMOOTH",
"182 42 OFFCURVE",
"172 59 OFFCURVE",
"172 98 CURVE SMOOTH",
"172 255 OFFCURVE",
"183 424 OFFCURVE",
"195 452 CURVE",
"190 464 LINE",
"190 464 OFFCURVE",
"113 445 OFFCURVE",
"46 435 CURVE",
"42 398 LINE",
"42 398 OFFCURVE",
"56 402 OFFCURVE",
"67 402 CURVE SMOOTH",
"92 402 OFFCURVE",
"104 385 OFFCURVE",
"104 348 CURVE SMOOTH",
"104 94 LINE SMOOTH",
"104 59 OFFCURVE",
"88 40 OFFCURVE",
"48 29 CURVE"
);
}
);
width = 282;
}
);
unicode = 0131;
},
{
glyphname = idotaccent;
lastChange = "2014-11-08 03:27:49 -0300";
layers = (
{
anchors = (
{
name = bottom;
position = "{159, 0}";
},
{
name = ogonek;
position = "{159, 49}";
},
{
name = top;
position = "{136, 472}";
}
);
layerId = "B954E078-309A-4CF1-B397-1A2EBEB3E29A";
name = Light;
paths = (
{
closed = 1;
nodes = (
"166 602 OFFCURVE",
"192 628 OFFCURVE",
"192 661 CURVE SMOOTH",
"192 691 OFFCURVE",
"171 712 OFFCURVE",
"143 712 CURVE SMOOTH",
"110 712 OFFCURVE",
"84 686 OFFCURVE",
"84 653 CURVE SMOOTH",
"84 623 OFFCURVE",
"104 602 OFFCURVE",
"133 602 CURVE SMOOTH"
);
},
{
closed = 1;
nodes = (
"44 -12 LINE",
"44 -12 OFFCURVE",
"105 0 OFFCURVE",
"147 0 CURVE SMOOTH",
"184 0 OFFCURVE",
"236 -3 OFFCURVE",
"236 -3 CURVE",
"244 40 LINE",
"242 44 LINE",
"242 44 OFFCURVE",
"219 42 OFFCURVE",
"207 42 CURVE SMOOTH",
"182 42 OFFCURVE",
"172 59 OFFCURVE",
"172 98 CURVE SMOOTH",
"172 255 OFFCURVE",
"183 424 OFFCURVE",
"195 452 CURVE",
"190 464 LINE",
"190 464 OFFCURVE",
"113 445 OFFCURVE",
"46 435 CURVE",
"42 398 LINE",
"42 398 OFFCURVE",
"56 402 OFFCURVE",
"67 402 CURVE SMOOTH",
"92 402 OFFCURVE",
"104 385 OFFCURVE",
"104 348 CURVE SMOOTH",
"104 94 LINE SMOOTH",
"104 59 OFFCURVE",
"88 40 OFFCURVE",
"48 29 CURVE"
);
}
);
width = 282;
}
);
leftKerningGroup = n;
rightKerningGroup = i;
},
{
glyphname = j;
lastChange = "2014-11-08 03:27:49 -0300";
layers = (
{
anchors = (
{
name = bottom;
position = "{243, 0}";
},
{
name = top;
position = "{125, 463}";
}
);
layerId = "B954E078-309A-4CF1-B397-1A2EBEB3E29A";
name = Light;
paths = (
{
closed = 1;
nodes = (
"33 -241 LINE",
"115 -191 OFFCURVE",
"160 -110 OFFCURVE",
"160 -14 CURVE SMOOTH",
"160 269 OFFCURVE",
"166 433 OFFCURVE",
"177 452 CURVE",
"172 464 LINE",
"172 464 OFFCURVE",
"89 444 OFFCURVE",
"28 436 CURVE",
"24 399 LINE",
"24 399 OFFCURVE",
"40 402 OFFCURVE",
"51 402 CURVE SMOOTH",
"81 402 OFFCURVE",
"91 389 OFFCURVE",
"91 348 CURVE SMOOTH",
"91 38 LINE SMOOTH",
"91 -99 OFFCURVE",
"74 -157 OFFCURVE",
"17 -214 CURVE",
"15 -222 LINE"
);
},
{
closed = 1;
nodes = (
"154 602 OFFCURVE",
"180 628 OFFCURVE",
"180 661 CURVE SMOOTH",
"180 691 OFFCURVE",
"159 712 OFFCURVE",
"131 712 CURVE SMOOTH",
"98 712 OFFCURVE",
"72 686 OFFCURVE",
"72 653 CURVE SMOOTH",
"72 623 OFFCURVE",
"92 602 OFFCURVE",
"121 602 CURVE SMOOTH"
);
}
);
width = 250;
}
);
leftKerningGroup = j;
rightKerningGroup = j;
unicode = 006A;
},
{
glyphname = dotlessj;
lastChange = "2014-11-08 03:27:49 -0300";
layers = (
{
layerId = "B954E078-309A-4CF1-B397-1A2EBEB3E29A";
name = Light;
paths = (
{
closed = 1;
nodes = (
"33 -241 LINE",
"115 -191 OFFCURVE",
"160 -110 OFFCURVE",
"160 -14 CURVE SMOOTH",
"160 269 OFFCURVE",
"166 433 OFFCURVE",
"177 452 CURVE",
"172 464 LINE",
"172 464 OFFCURVE",
"89 444 OFFCURVE",
"28 436 CURVE",
"24 399 LINE",
"24 399 OFFCURVE",
"40 402 OFFCURVE",
"51 402 CURVE SMOOTH",
"81 402 OFFCURVE",
"91 389 OFFCURVE",
"91 348 CURVE SMOOTH",
"91 38 LINE SMOOTH",
"91 -99 OFFCURVE",
"74 -157 OFFCURVE",
"17 -214 CURVE",
"15 -222 LINE"
);
}
);
width = 250;
}
);
leftKerningGroup = j;
unicode = 0237;
},
{
glyphname = k;
lastChange = "2014-11-08 03:27:49 -0300";
layers = (
{
anchors = (
{
name = bottom;
position = "{282, 0}";
},
{
name = top;
position = "{119, 687}";
}
);
layerId = "B954E078-309A-4CF1-B397-1A2EBEB3E29A";
name = Light;
paths = (
{
closed = 1;
nodes = (
"29 -6 LINE",
"29 -6 OFFCURVE",
"86 0 OFFCURVE",
"128 0 CURVE SMOOTH",
"165 0 OFFCURVE",
"219 -3 OFFCURVE",
"219 -3 CURVE",
"228 40 LINE",
"226 44 LINE",
"226 44 OFFCURVE",
"203 42 OFFCURVE",
"191 42 CURVE SMOOTH",
"165 42 OFFCURVE",
"155 57 OFFCURVE",
"155 98 CURVE SMOOTH",
"155 398 OFFCURVE",
"169 707 OFFCURVE",
"183 729 CURVE",
"177 742 LINE",
"177 742 OFFCURVE",
"98 722 OFFCURVE",
"29 713 CURVE",
"27 694 LINE SMOOTH",
"26 688 OFFCURVE",
"25 682 OFFCURVE",
"25 676 CURVE SMOOTH",
"25 676 OFFCURVE",
"39 680 OFFCURVE",
"50 680 CURVE SMOOTH",
"75 680 OFFCURVE",
"87 663 OFFCURVE",
"87 626 CURVE SMOOTH",
"87 135 LINE SMOOTH",
"87 68 OFFCURVE",
"88 43 OFFCURVE",
"34 35 CURVE"
);
},
{
closed = 1;
nodes = (
"298 71 LINE SMOOTH",
"328 28 OFFCURVE",
"347 7 OFFCURVE",
"368 -4 CURVE SMOOTH",
"378 -9 OFFCURVE",
"390 -14 OFFCURVE",
"403 -14 CURVE SMOOTH",
"418 -14 OFFCURVE",
"477 2 OFFCURVE",
"477 2 CURVE",
"483 31 LINE",
"480 36 LINE",
"439 36 OFFCURVE",
"405 59 OFFCURVE",
"359 118 CURVE SMOOTH",
"254 253 LINE",
"320 317 OFFCURVE",
"395 401 OFFCURVE",
"467 422 CURVE",
"475 453 LINE",
"472 458 LINE",
"472 458 OFFCURVE",
"415 452 OFFCURVE",
"377 452 CURVE SMOOTH",
"341 452 OFFCURVE",
"279 454 OFFCURVE",
"279 454 CURVE",
"270 425 LINE",
"273 420 LINE",
"312 420 OFFCURVE",
"328 414 OFFCURVE",
"328 399 CURVE SMOOTH",
"328 389 OFFCURVE",
"322 381 OFFCURVE",
"304 364 CURVE SMOOTH",
"182 252 LINE",
"180 238 LINE"
);
}
);
width = 497;
}
);
leftKerningGroup = h;
rightKerningGroup = x;
unicode = 006B;
},
{
glyphname = kgreenlandic;
lastChange = "2014-11-08 03:27:49 -0300";
layers = (
{
layerId = "B954E078-309A-4CF1-B397-1A2EBEB3E29A";
name = Light;
paths = (
{
closed = 1;
nodes = (
"44 -6 LINE",
"44 -6 OFFCURVE",
"101 0 OFFCURVE",
"143 0 CURVE SMOOTH",
"180 0 OFFCURVE",
"234 -3 OFFCURVE",
"234 -3 CURVE",
"243 40 LINE",
"241 44 LINE",
"241 44 OFFCURVE",
"218 42 OFFCURVE",
"206 42 CURVE SMOOTH",
"180 42 OFFCURVE",
"170 57 OFFCURVE",
"170 98 CURVE SMOOTH",
"170 310 OFFCURVE",
"178 429 OFFCURVE",
"182 451 CURVE",
"176 464 LINE",
"176 464 OFFCURVE",
"102 453 OFFCURVE",
"43 447 CURVE",
"39 412 LINE",
"45 407 LINE",
"92 407 OFFCURVE",
"102 392 OFFCURVE",
"102 358 CURVE SMOOTH",
"102 135 LINE SMOOTH",
"102 68 OFFCURVE",
"103 43 OFFCURVE",
"49 35 CURVE"
);
},
{
closed = 1;
nodes = (
"313 71 LINE SMOOTH",
"343 28 OFFCURVE",
"362 7 OFFCURVE",
"383 -4 CURVE SMOOTH",
"393 -9 OFFCURVE",
"405 -14 OFFCURVE",
"418 -14 CURVE SMOOTH",
"433 -14 OFFCURVE",
"492 2 OFFCURVE",
"492 2 CURVE",
"498 31 LINE",
"495 36 LINE",
"454 36 OFFCURVE",
"420 59 OFFCURVE",
"374 118 CURVE SMOOTH",
"269 253 LINE",
"335 317 OFFCURVE",
"410 401 OFFCURVE",
"482 422 CURVE",
"490 453 LINE",
"487 458 LINE",
"487 458 OFFCURVE",
"430 452 OFFCURVE",
"392 452 CURVE SMOOTH",
"356 452 OFFCURVE",
"294 454 OFFCURVE",
"294 454 CURVE",
"285 425 LINE",
"288 420 LINE",
"327 420 OFFCURVE",
"343 414 OFFCURVE",
"343 399 CURVE SMOOTH",
"343 389 OFFCURVE",
"337 381 OFFCURVE",
"319 364 CURVE SMOOTH",
"197 252 LINE",
"195 238 LINE"
);
}
);
width = 512;
}
);
rightKerningGroup = x;
unicode = 0138;
},
{
glyphname = l;
lastChange = "2014-11-08 03:27:49 -0300";
layers = (
{
anchors = (
{
name = bottom;
position = "{140, 0}";
},
{
name = top;
position = "{146, 720}";
},
{
name = topright;
position = "{267, 472}";
}
);
layerId = "B954E078-309A-4CF1-B397-1A2EBEB3E29A";
name = Light;
paths = (
{
closed = 1;
nodes = (
"27 -12 LINE",
"27 -12 OFFCURVE",
"88 0 OFFCURVE",
"130 0 CURVE SMOOTH",
"167 0 OFFCURVE",
"219 -3 OFFCURVE",
"219 -3 CURVE",
"227 40 LINE",
"225 44 LINE",
"225 44 OFFCURVE",
"202 42 OFFCURVE",
"190 42 CURVE SMOOTH",
"165 42 OFFCURVE",
"155 58 OFFCURVE",
"155 98 CURVE SMOOTH",
"155 395 OFFCURVE",
"169 707 OFFCURVE",
"183 729 CURVE",
"177 742 LINE",
"177 742 OFFCURVE",
"98 722 OFFCURVE",
"29 713 CURVE",
"27 694 LINE SMOOTH",
"26 688 OFFCURVE",
"25 682 OFFCURVE",
"25 676 CURVE SMOOTH",
"25 676 OFFCURVE",
"39 680 OFFCURVE",
"50 680 CURVE SMOOTH",
"75 680 OFFCURVE",
"87 663 OFFCURVE",
"87 626 CURVE SMOOTH",
"87 135 LINE SMOOTH",
"87 72 OFFCURVE",
"89 45 OFFCURVE",
"31 29 CURVE"
);
}
);
width = 244;
}
);
leftKerningGroup = h;
rightKerningGroup = l;
unicode = 006C;
},
{
glyphname = lcaron;
lastChange = "2014-11-08 03:27:49 -0300";
layers = (
{
components = (
{
disableAlignment = 1;
name = l;
transform = "{1, 0, 0, 1, 0, 0}";
}
);
layerId = "B954E078-309A-4CF1-B397-1A2EBEB3E29A";
name = Light;
paths = (
{
closed = 1;
nodes = (
"297 699 LINE",
"227 685 LINE",
"227 685 OFFCURVE",
"237 577 OFFCURVE",
"233 467 CURVE",
"244 465 LINE",
"269 479 LINE",
"290 581 OFFCURVE",
"304 691 OFFCURVE",
"304 691 CURVE"
);
}
);
width = 304;
}
);
leftKerningGroup = h;
rightKerningGroup = l;
unicode = 013E;
},
{
glyphname = lslash;
lastChange = "2014-11-08 03:27:49 -0300";
layers = (
{
components = (
{
disableAlignment = 1;
name = l;
transform = "{1, 0, 0, 1, 0, 0}";
}
);
layerId = "B954E078-309A-4CF1-B397-1A2EBEB3E29A";
name = Light;
paths = (
{
closed = 1;
nodes = (
"121 361 LINE",
"242 428 LINE",
"236 459 LINE",
"228 463 LINE",
"121 404 LINE",
"121 408 LINE",
"3 342 LINE",
"9 310 LINE",
"18 308 LINE",
"121 365 LINE"
);
}
);
width = 247;
}
);
leftKerningGroup = h;
rightKerningGroup = l;
unicode = 0142;
},
{
glyphname = m;
lastChange = "2014-11-08 03:27:49 -0300";
layers = (
{
anchors = (
{
name = bottom;
position = "{438, 0}";
},
{
name = top;
position = "{435, 463}";
}
);
layerId = "B954E078-309A-4CF1-B397-1A2EBEB3E29A";
name = Light;
paths = (
{
closed = 1;
nodes = (
"321 -12 LINE",
"321 -12 OFFCURVE",
"382 0 OFFCURVE",
"424 0 CURVE SMOOTH",
"461 0 OFFCURVE",
"513 -3 OFFCURVE",
"513 -3 CURVE",
"521 40 LINE",
"519 44 LINE",
"519 44 OFFCURVE",
"496 42 OFFCURVE",
"484 42 CURVE SMOOTH",
"459 42 OFFCURVE",
"449 59 OFFCURVE",
"449 98 CURVE",
"460 346 LINE",
"482 362 OFFCURVE",
"533 396 OFFCURVE",
"581 396 CURVE SMOOTH",
"634 396 OFFCURVE",
"664 358 OFFCURVE",
"664 292 CURVE SMOOTH",
"660 94 LINE",
"660 57 OFFCURVE",
"645 41 OFFCURVE",
"607 35 CURVE",
"602 -6 LINE",
"602 -6 OFFCURVE",
"659 0 OFFCURVE",
"701 0 CURVE SMOOTH",
"738 0 OFFCURVE",
"792 -3 OFFCURVE",
"792 -3 CURVE",
"801 40 LINE",
"799 44 LINE",
"799 44 OFFCURVE",
"776 42 OFFCURVE",
"764 42 CURVE SMOOTH",
"738 42 OFFCURVE",
"728 57 OFFCURVE",
"728 98 CURVE SMOOTH",
"728 156 OFFCURVE",
"742 300 OFFCURVE",
"742 335 CURVE SMOOTH",
"742 414 OFFCURVE",
"689 464 OFFCURVE",
"605 464 CURVE SMOOTH",
"566 464 OFFCURVE",
"471 397 OFFCURVE",
"454 385 CURVE",
"436 435 OFFCURVE",
"390 464 OFFCURVE",
"326 464 CURVE SMOOTH",
"290 464 OFFCURVE",
"204 405 OFFCURVE",
"179 388 CURVE",
"177 391 LINE",
"179 425 OFFCURVE",
"188 457 OFFCURVE",
"188 457 CURVE",
"182 465 LINE",
"182 465 OFFCURVE",
"111 447 OFFCURVE",
"42 436 CURVE",
"39 403 LINE",
"42 399 LINE",
"53 399 LINE",
"89 399 OFFCURVE",
"102 383 OFFCURVE",
"102 338 CURVE SMOOTH",
"102 94 LINE",
"102 57 OFFCURVE",
"88 43 OFFCURVE",
"50 39 CURVE",
"44 -2 LINE",
"44 -2 OFFCURVE",
"101 0 OFFCURVE",
"143 0 CURVE SMOOTH",
"180 0 OFFCURVE",
"234 -3 OFFCURVE",
"234 -3 CURVE",
"243 40 LINE",
"241 44 LINE",
"241 44 OFFCURVE",
"218 42 OFFCURVE",
"206 42 CURVE SMOOTH",
"180 42 OFFCURVE",
"170 57 OFFCURVE",
"170 98 CURVE SMOOTH",
"170 137 OFFCURVE",
"176 275 OFFCURVE",
"179 344 CURVE",
"199 359 OFFCURVE",
"253 396 OFFCURVE",
"302 396 CURVE SMOOTH",
"355 396 OFFCURVE",
"385 358 OFFCURVE",
"385 292 CURVE SMOOTH",
"381 94 LINE",
"381 59 OFFCURVE",
"365 40 OFFCURVE",
"325 29 CURVE"
);
}
);
width = 832;
}
);
leftKerningGroup = n;
rightKerningGroup = n;
unicode = 006D;
},
{
glyphname = n;
lastChange = "2014-11-08 03:27:49 -0300";
layers = (
{
anchors = (
{
name = bottom;
position = "{291, 0}";
},
{
name = top;
position = "{308, 472}";
}
);
layerId = "B954E078-309A-4CF1-B397-1A2EBEB3E29A";
name = Light;
paths = (
{
closed = 1;
nodes = (
"321 -12 LINE",
"321 -12 OFFCURVE",
"382 0 OFFCURVE",
"424 0 CURVE SMOOTH",
"461 0 OFFCURVE",
"513 -3 OFFCURVE",
"513 -3 CURVE",
"521 40 LINE",
"519 44 LINE",
"519 44 OFFCURVE",
"496 42 OFFCURVE",
"484 42 CURVE SMOOTH",
"459 42 OFFCURVE",
"449 59 OFFCURVE",
"449 98 CURVE SMOOTH",
"449 156 OFFCURVE",
"463 300 OFFCURVE",
"463 335 CURVE SMOOTH",
"463 414 OFFCURVE",
"410 464 OFFCURVE",
"326 464 CURVE SMOOTH",
"294 464 OFFCURVE",
"203 404 OFFCURVE",
"179 388 CURVE",
"177 391 LINE",
"179 425 OFFCURVE",
"188 457 OFFCURVE",
"188 457 CURVE",
"182 465 LINE",
"182 465 OFFCURVE",
"111 447 OFFCURVE",
"42 436 CURVE",
"39 403 LINE",
"42 399 LINE",
"53 399 LINE SMOOTH",
"89 399 OFFCURVE",
"102 383 OFFCURVE",
"102 338 CURVE SMOOTH",
"102 94 LINE SMOOTH",
"102 57 OFFCURVE",
"87 41 OFFCURVE",
"49 35 CURVE",
"44 -6 LINE",
"44 -6 OFFCURVE",
"101 0 OFFCURVE",
"143 0 CURVE SMOOTH",
"180 0 OFFCURVE",
"234 -3 OFFCURVE",
"234 -3 CURVE",
"243 40 LINE",
"241 44 LINE",
"241 44 OFFCURVE",
"218 42 OFFCURVE",
"206 42 CURVE SMOOTH",
"180 42 OFFCURVE",
"170 57 OFFCURVE",
"170 98 CURVE SMOOTH",
"170 137 OFFCURVE",
"176 275 OFFCURVE",
"179 344 CURVE",
"199 359 OFFCURVE",
"253 396 OFFCURVE",
"302 396 CURVE SMOOTH",
"355 396 OFFCURVE",
"385 358 OFFCURVE",
"385 292 CURVE SMOOTH",
"381 94 LINE SMOOTH",
"381 59 OFFCURVE",
"365 40 OFFCURVE",
"325 29 CURVE"
);
}
);
width = 562;
}
);
leftKerningGroup = n;
rightKerningGroup = n;
unicode = 006E;
},
{
glyphname = eng;
lastChange = "2014-11-08 03:27:49 -0300";
layers = (
{
anchors = (
{
name = bottom;
position = "{291, 0}";
},
{
name = top;
position = "{308, 472}";
}
);
layerId = "B954E078-309A-4CF1-B397-1A2EBEB3E29A";
name = Light;
paths = (
{
closed = 1;
nodes = (
"294 464 OFFCURVE",
"203 404 OFFCURVE",
"179 388 CURVE",
"177 391 LINE",
"179 425 OFFCURVE",
"188 457 OFFCURVE",
"188 457 CURVE",
"182 465 LINE",
"182 465 OFFCURVE",
"111 447 OFFCURVE",
"42 436 CURVE",
"39 403 LINE",
"42 399 LINE",
"53 399 LINE SMOOTH",
"89 399 OFFCURVE",
"102 383 OFFCURVE",
"102 338 CURVE SMOOTH",
"102 94 LINE SMOOTH",
"102 57 OFFCURVE",
"87 41 OFFCURVE",
"49 35 CURVE",
"44 -6 LINE",
"44 -6 OFFCURVE",
"101 0 OFFCURVE",
"143 0 CURVE SMOOTH",
"180 0 OFFCURVE",
"234 -3 OFFCURVE",
"234 -3 CURVE",
"243 40 LINE",
"241 44 LINE",
"241 44 OFFCURVE",
"218 42 OFFCURVE",
"206 42 CURVE SMOOTH",
"180 42 OFFCURVE",
"170 57 OFFCURVE",
"170 98 CURVE SMOOTH",
"170 137 OFFCURVE",
"176 275 OFFCURVE",
"179 344 CURVE",
"199 359 OFFCURVE",
"253 396 OFFCURVE",
"302 396 CURVE SMOOTH",
"355 396 OFFCURVE",
"385 358 OFFCURVE",
"385 292 CURVE SMOOTH",
"384 94 LINE SMOOTH",
"382 -15 OFFCURVE",
"361 -58 OFFCURVE",
"278 -103 CURVE",
"275 -111 LINE",
"292 -144 LINE",
"405 -102 OFFCURVE",
"444 -38 OFFCURVE",
"452 96 CURVE SMOOTH",
"463 335 LINE",
"463 414 OFFCURVE",
"410 464 OFFCURVE",
"326 464 CURVE SMOOTH"
);
}
);
width = 533;
}
);
unicode = 014B;
},
{
glyphname = o;
lastChange = "2014-11-08 03:27:49 -0300";
layers = (
{
anchors = (
{
name = bottom;
position = "{259, 0}";
},
{
name = top;
position = "{263, 472}";
}
);
layerId = "B954E078-309A-4CF1-B397-1A2EBEB3E29A";
name = Light;
paths = (
{
closed = 1;
nodes = (
"361 -12 OFFCURVE",
"462 99 OFFCURVE",
"462 242 CURVE SMOOTH",
"462 373 OFFCURVE",
"382 464 OFFCURVE",
"268 464 CURVE SMOOTH",
"137 464 OFFCURVE",
"36 353 OFFCURVE",
"36 210 CURVE SMOOTH",
"36 79 OFFCURVE",
"115 -12 OFFCURVE",
"230 -12 CURVE SMOOTH"
);
},
{
closed = 1;
nodes = (
"174 37 OFFCURVE",
"116 119 OFFCURVE",
"116 239 CURVE SMOOTH",
"116 344 OFFCURVE",
"163 410 OFFCURVE",
"238 410 CURVE SMOOTH",
"322 410 OFFCURVE",
"380 326 OFFCURVE",
"380 206 CURVE SMOOTH",
"380 102 OFFCURVE",
"333 37 OFFCURVE",
"258 37 CURVE SMOOTH"
);
}
);
width = 498;
}
);
leftKerningGroup = o;
rightKerningGroup = o;
unicode = 006F;
},
{
glyphname = oslash;
lastChange = "2014-11-08 03:27:49 -0300";
layers = (
{
anchors = (
{
name = top;
position = "{255, 472}";
}
);
components = (
{
disableAlignment = 1;
name = o;
transform = "{1, 0, 0, 1, 0, 0}";
}
);
layerId = "B954E078-309A-4CF1-B397-1A2EBEB3E29A";
name = Light;
paths = (
{
closed = 1;
nodes = (
"420 520 LINE",
"417 532 LINE",
"388 539 LINE",
"324 417 LINE",
"357 403 LINE"
);
},
{
closed = 1;
nodes = (
"357 403 LINE",
"324 417 LINE",
"144 70 LINE",
"176 56 LINE"
);
},
{
closed = 1;
nodes = (
"65 -82 LINE",
"67 -92 LINE",
"94 -98 LINE",
"176 56 LINE",
"144 70 LINE"
);
}
);
width = 498;
}
);
leftKerningGroup = o;
rightKerningGroup = o;
unicode = 00F8;
},
{
glyphname = oe;
lastChange = "2014-11-08 03:27:49 -0300";
layers = (
{
anchors = (
{
name = top;
position = "{405, 472}";
}
);
layerId = "B954E078-309A-4CF1-B397-1A2EBEB3E29A";
name = Light;
paths = (
{
closed = 1;
nodes = (
"494 56 OFFCURVE",
"435 130 OFFCURVE",
"435 242 CURVE SMOOTH",
"435 258 LINE",
"707 258 LINE",
"720 270 LINE",
"720 270 OFFCURVE",
"731 294 OFFCURVE",
"731 330 CURVE SMOOTH",
"731 415 OFFCURVE",
"676 464 OFFCURVE",
"581 464 CURVE SMOOTH",
"531 464 OFFCURVE",
"464 439 OFFCURVE",
"416 377 CURVE",
"383 433 OFFCURVE",
"329 464 OFFCURVE",
"263 464 CURVE SMOOTH",
"135 464 OFFCURVE",
"36 353 OFFCURVE",
"36 210 CURVE SMOOTH",
"36 79 OFFCURVE",
"113 -12 OFFCURVE",
"225 -12 CURVE SMOOTH",
"293 -12 OFFCURVE",
"354 19 OFFCURVE",
"396 74 CURVE",
"439 7 OFFCURVE",
"507 -12 OFFCURVE",
"570 -12 CURVE SMOOTH",
"630 -12 OFFCURVE",
"723 56 OFFCURVE",
"723 56 CURVE",
"712 85 LINE",
"706 87 LINE",
"706 87 OFFCURVE",
"645 56 OFFCURVE",
"583 56 CURVE SMOOTH"
);
},
{
closed = 1;
nodes = (
"172 37 OFFCURVE",
"116 119 OFFCURVE",
"116 239 CURVE SMOOTH",
"116 344 OFFCURVE",
"161 410 OFFCURVE",
"233 410 CURVE SMOOTH",
"314 410 OFFCURVE",
"370 326 OFFCURVE",
"370 206 CURVE SMOOTH",
"370 102 OFFCURVE",
"325 37 OFFCURVE",
"253 37 CURVE SMOOTH"
);
},
{
closed = 1;
nodes = (
"615 413 OFFCURVE",
"645 384 OFFCURVE",
"645 331 CURVE SMOOTH",
"645 311 OFFCURVE",
"640 305 OFFCURVE",
"620 304 CURVE SMOOTH",
"439 295 LINE",
"451 368 OFFCURVE",
"500 413 OFFCURVE",
"562 413 CURVE SMOOTH"
);
}
);
width = 771;
}
);
leftKerningGroup = o;
rightKerningGroup = e;
unicode = 0153;
},
{
glyphname = p;
lastChange = "2014-11-08 03:27:49 -0300";
layers = (
{
anchors = (
{
name = bottom;
position = "{380, 0}";
},
{
name = top;
position = "{291, 472}";
}
);
layerId = "B954E078-309A-4CF1-B397-1A2EBEB3E29A";
name = Light;
paths = (
{
closed = 1;
nodes = (
"45 -237 LINE",
"45 -237 OFFCURVE",
"94 -230 OFFCURVE",
"151 -230 CURVE SMOOTH",
"183 -230 OFFCURVE",
"214 -230 OFFCURVE",
"246 -230 CURVE",
"254 -192 LINE",
"252 -189 LINE",
"241 -189 OFFCURVE",
"229 -190 OFFCURVE",
"218 -190 CURVE SMOOTH",
"180 -190 OFFCURVE",
"171 -172 OFFCURVE",
"171 -111 CURVE SMOOTH",
"171 -77 OFFCURVE",
"170 -42 OFFCURVE",
"170 -8 CURVE SMOOTH",
"170 -8 OFFCURVE",
"219 -12 OFFCURVE",
"243 -12 CURVE SMOOTH",
"379 -12 OFFCURVE",
"492 106 OFFCURVE",
"492 250 CURVE SMOOTH",
"492 376 OFFCURVE",
"414 461 OFFCURVE",
"299 461 CURVE SMOOTH",
"284 461 OFFCURVE",
"242 437 OFFCURVE",
"183 396 CURVE",
"179 403 LINE",
"182 429 OFFCURVE",
"189 457 OFFCURVE",
"189 457 CURVE",
"183 465 LINE",
"183 465 OFFCURVE",
"112 447 OFFCURVE",
"43 436 CURVE",
"40 403 LINE",
"43 399 LINE",
"54 399 LINE SMOOTH",
"90 399 OFFCURVE",
"103 383 OFFCURVE",
"103 338 CURVE SMOOTH",
"103 40 LINE SMOOTH",
"103 -3 OFFCURVE",
"101 -94 OFFCURVE",
"101 -126 CURVE SMOOTH",
"101 -181 OFFCURVE",
"93 -193 OFFCURVE",
"50 -198 CURVE"
);
},
{
closed = 1;
nodes = (
"171 148 OFFCURVE",
"174 262 OFFCURVE",
"179 344 CURVE",
"214 373 OFFCURVE",
"256 393 OFFCURVE",
"283 393 CURVE SMOOTH",
"357 393 OFFCURVE",
"415 314 OFFCURVE",
"415 213 CURVE SMOOTH",
"415 108 OFFCURVE",
"360 43 OFFCURVE",
"271 43 CURVE SMOOTH",
"238 43 OFFCURVE",
"197 51 OFFCURVE",
"171 62 CURVE"
);
}
);
width = 528;
}
);
leftKerningGroup = p;
rightKerningGroup = o;
unicode = 0070;
},
{
glyphname = thorn;
lastChange = "2014-11-08 03:27:49 -0300";
layers = (
{
anchors = (
{
name = bottom;
position = "{217, 0}";
},
{
name = top;
position = "{217, 463}";
}
);
layerId = "B954E078-309A-4CF1-B397-1A2EBEB3E29A";
name = Light;
paths = (
{
closed = 1;
nodes = (
"85 94 LINE",
"83 -97 LINE SMOOTH",
"82 -168 OFFCURVE",
"84 -191 OFFCURVE",
"26 -198 CURVE",
"21 -237 LINE SMOOTH",
"21 -235 OFFCURVE",
"99 -230 OFFCURVE",
"165 -230 CURVE SMOOTH",
"186 -230 OFFCURVE",
"207 -230 OFFCURVE",
"228 -230 CURVE",
"236 -192 LINE",
"234 -189 LINE",
"234 -189 OFFCURVE",
"209 -190 OFFCURVE",
"200 -190 CURVE SMOOTH",
"145 -190 OFFCURVE",
"152 -143 OFFCURVE",
"152 -8 CURVE",
"178 -11 OFFCURVE",
"200 -12 OFFCURVE",
"223 -12 CURVE SMOOTH",
"360 -12 OFFCURVE",
"472 106 OFFCURVE",
"472 250 CURVE SMOOTH",
"472 361 OFFCURVE",
"411 442 OFFCURVE",
"320 460 CURVE SMOOTH",
"307 463 OFFCURVE",
"293 464 OFFCURVE",
"279 464 CURVE SMOOTH",
"265 464 OFFCURVE",
"221 439 OFFCURVE",
"158 394 CURVE",
"163 581 OFFCURVE",
"172 715 OFFCURVE",
"181 729 CURVE",
"175 742 LINE",
"175 742 OFFCURVE",
"96 722 OFFCURVE",
"27 713 CURVE",
"25 694 LINE SMOOTH",
"24 688 OFFCURVE",
"23 682 OFFCURVE",
"23 676 CURVE SMOOTH",
"23 676 OFFCURVE",
"37 680 OFFCURVE",
"48 680 CURVE SMOOTH",
"73 680 OFFCURVE",
"85 663 OFFCURVE",
"85 626 CURVE SMOOTH"
);
},
{
closed = 1;
nodes = (
"156 342 LINE",
"194 374 OFFCURVE",
"238 396 OFFCURVE",
"263 396 CURVE SMOOTH",
"337 396 OFFCURVE",
"395 315 OFFCURVE",
"395 213 CURVE SMOOTH",
"395 109 OFFCURVE",
"340 43 OFFCURVE",
"251 43 CURVE SMOOTH",
"219 43 OFFCURVE",
"177 52 OFFCURVE",
"153 64 CURVE"
);
}
);
width = 510;
}
);
leftKerningGroup = h;
rightKerningGroup = o;
unicode = 00FE;
},
{
glyphname = q;
lastChange = "2014-11-08 03:27:49 -0300";
layers = (
{
anchors = (
{
name = bottom;
position = "{149, 0}";
},
{
name = top;
position = "{272, 472}";
}
);
layerId = "B954E078-309A-4CF1-B397-1A2EBEB3E29A";
name = Light;
paths = (
{
closed = 1;
nodes = (
"279 -234 LINE",
"279 -234 OFFCURVE",
"340 -230 OFFCURVE",
"386 -230 CURVE SMOOTH",
"478 -230 LINE",
"485 -191 LINE",
"483 -189 LINE",
"483 -189 OFFCURVE",
"471 -190 OFFCURVE",
"457 -190 CURVE SMOOTH",
"426 -190 OFFCURVE",
"421 -178 OFFCURVE",
"421 -106 CURVE SMOOTH",
"421 222 OFFCURVE",
"428 439 OFFCURVE",
"440 469 CURVE",
"432 478 LINE",
"432 478 OFFCURVE",
"407 466 OFFCURVE",
"377 455 CURVE",
"347 461 OFFCURVE",
"313 464 OFFCURVE",
"285 464 CURVE SMOOTH",
"148 464 OFFCURVE",
"36 346 OFFCURVE",
"36 202 CURVE SMOOTH",
"36 75 OFFCURVE",
"115 -12 OFFCURVE",
"229 -12 CURVE SMOOTH",
"243 -12 OFFCURVE",
"289 15 OFFCURVE",
"354 60 CURVE",
"350 -135 LINE SMOOTH",
"348 -184 OFFCURVE",
"339 -193 OFFCURVE",
"284 -196 CURVE"
);
},
{
closed = 1;
nodes = (
"354 109 LINE",
"354 109 OFFCURVE",
"293 53 OFFCURVE",
"245 53 CURVE SMOOTH",
"171 53 OFFCURVE",
"113 134 OFFCURVE",
"113 236 CURVE SMOOTH",
"113 341 OFFCURVE",
"168 406 OFFCURVE",
"257 406 CURVE SMOOTH",
"317 406 OFFCURVE",
"354 383 OFFCURVE",
"354 383 CURVE"
);
}
);
width = 516;
}
);
leftKerningGroup = o;
unicode = 0071;
},
{
glyphname = r;
lastChange = "2014-11-08 03:27:49 -0300";
layers = (
{
anchors = (
{
name = bottom;
position = "{149, 0}";
},
{
name = top;
position = "{198, 472}";
}
);
layerId = "B954E078-309A-4CF1-B397-1A2EBEB3E29A";
name = Light;
paths = (
{
closed = 1;
nodes = (
"54 -4 LINE SMOOTH",
"54 -4 OFFCURVE",
"100 0 OFFCURVE",
"159 0 CURVE SMOOTH",
"198 0 OFFCURVE",
"261 -2 OFFCURVE",
"261 -2 CURVE SMOOTH",
"270 42 LINE",
"269 46 LINE SMOOTH",
"269 46 OFFCURVE",
"239 44 OFFCURVE",
"225 44 CURVE SMOOTH",
"187 44 OFFCURVE",
"177 57 OFFCURVE",
"177 102 CURVE SMOOTH",
"177 124 OFFCURVE",
"185 306 OFFCURVE",
"185 306 CURVE",
"213 348 OFFCURVE",
"249 374 OFFCURVE",
"278 374 CURVE SMOOTH",
"300 374 OFFCURVE",
"305 361 OFFCURVE",
"305 306 CURVE SMOOTH",
"344 309 LINE SMOOTH",
"346 370 OFFCURVE",
"360 452 OFFCURVE",
"360 452 CURVE SMOOTH",
"357 456 LINE SMOOTH",
"357 456 OFFCURVE",
"348 460 OFFCURVE",
"326 460 CURVE SMOOTH",
"286 460 OFFCURVE",
"226 416 OFFCURVE",
"185 353 CURVE SMOOTH",
"181 356 LINE SMOOTH",
"180 403 OFFCURVE",
"190 459 OFFCURVE",
"190 459 CURVE SMOOTH",
"183 465 LINE SMOOTH",
"183 465 OFFCURVE",
"109 446 OFFCURVE",
"48 435 CURVE SMOOTH",
"45 404 LINE",
"50 397 LINE",
"50 397 OFFCURVE",
"60 400 OFFCURVE",
"71 400 CURVE SMOOTH",
"98 400 OFFCURVE",
"109 383 OFFCURVE",
"109 339 CURVE SMOOTH",
"109 119 LINE SMOOTH",
"109 56 OFFCURVE",
"99 40 OFFCURVE",
"59 36 CURVE SMOOTH"
);
}
);
width = 383;
}
);
leftKerningGroup = n;
rightKerningGroup = r;
unicode = 0072;
},
{
glyphname = s;
lastChange = "2014-11-08 03:27:49 -0300";
layers = (
{
layerId = "B954E078-309A-4CF1-B397-1A2EBEB3E29A";
name = Light;
paths = (
{
closed = 1;
nodes = (
"269 -12 OFFCURVE",
"354 55 OFFCURVE",
"354 132 CURVE SMOOTH",
"354 182 OFFCURVE",
"322 214 OFFCURVE",
"214 271 CURVE SMOOTH",
"152 303 OFFCURVE",
"127 329 OFFCURVE",
"127 361 CURVE SMOOTH",
"127 391 OFFCURVE",
"163 416 OFFCURVE",
"208 416 CURVE SMOOTH",
"265 416 OFFCURVE",
"290 395 OFFCURVE",
"290 347 CURVE SMOOTH",
"290 338 OFFCURVE",
"288 318 OFFCURVE",
"288 318 CURVE",
"325 321 LINE",
"330 387 OFFCURVE",
"344 443 OFFCURVE",
"344 443 CURVE",
"342 448 LINE",
"342 448 OFFCURVE",
"296 464 OFFCURVE",
"242 464 CURVE SMOOTH",
"137 464 OFFCURVE",
"58 403 OFFCURVE",
"58 321 CURVE SMOOTH",
"58 273 OFFCURVE",
"91 236 OFFCURVE",
"167 197 CURVE SMOOTH",
"259 148 OFFCURVE",
"283 127 OFFCURVE",
"283 94 CURVE SMOOTH",
"283 61 OFFCURVE",
"243 35 OFFCURVE",
"193 35 CURVE SMOOTH",
"122 35 OFFCURVE",
"96 67 OFFCURVE",
"96 155 CURVE",
"61 150 LINE",
"60 117 OFFCURVE",
"53 37 OFFCURVE",
"49 16 CURVE",
"52 9 LINE",
"52 9 OFFCURVE",
"98 -12 OFFCURVE",
"171 -12 CURVE SMOOTH"
);
}
);
width = 402;
}
);
leftKerningGroup = s;
rightKerningGroup = s;
unicode = 0073;
},
{
glyphname = germandbls;
lastChange = "2014-11-08 03:27:49 -0300";
layers = (
{
layerId = "B954E078-309A-4CF1-B397-1A2EBEB3E29A";
name = Light;
paths = (
{
closed = 1;
nodes = (
"288 11 OFFCURVE",
"339 -12 OFFCURVE",
"404 -12 CURVE SMOOTH",
"500 -12 OFFCURVE",
"582 62 OFFCURVE",
"582 147 CURVE SMOOTH",
"582 284 OFFCURVE",
"365 309 OFFCURVE",
"365 397 CURVE SMOOTH",
"365 473 OFFCURVE",
"491 507 OFFCURVE",
"491 620 CURVE SMOOTH",
"491 683 OFFCURVE",
"418 742 OFFCURVE",
"339 742 CURVE SMOOTH",
"194 742 OFFCURVE",
"108 636 OFFCURVE",
"108 456 CURVE SMOOTH",
"48 445 LINE",
"41 411 LINE",
"45 405 LINE SMOOTH",
"92 403 OFFCURVE",
"106 394 OFFCURVE",
"108 364 CURVE SMOOTH",
"108 108 LINE SMOOTH",
"108 58 OFFCURVE",
"98 41 OFFCURVE",
"51 35 CURVE SMOOTH",
"46 -4 LINE SMOOTH",
"46 -4 OFFCURVE",
"102 0 OFFCURVE",
"158 0 CURVE SMOOTH",
"188 0 OFFCURVE",
"257 -2 OFFCURVE",
"257 -2 CURVE SMOOTH",
"264 40 LINE",
"262 44 LINE SMOOTH",
"262 44 OFFCURVE",
"244 43 OFFCURVE",
"215 43 CURVE SMOOTH",
"189 43 OFFCURVE",
"175 63 OFFCURVE",
"176 98 CURVE SMOOTH",
"182 498 LINE SMOOTH",
"183 625 OFFCURVE",
"219 683 OFFCURVE",
"295 683 CURVE SMOOTH",
"373 683 OFFCURVE",
"422 646 OFFCURVE",
"422 588 CURVE SMOOTH",
"422 513 OFFCURVE",
"291 471 OFFCURVE",
"291 378 CURVE SMOOTH",
"291 241 OFFCURVE",
"511 220 OFFCURVE",
"511 115 CURVE SMOOTH",
"511 72 OFFCURVE",
"475 32 OFFCURVE",
"435 32 CURVE SMOOTH",
"375 32 OFFCURVE",
"340 67 OFFCURVE",
"340 127 CURVE",
"326 127 LINE",
"310 108 OFFCURVE",
"288 60 OFFCURVE",
"288 41 CURVE SMOOTH"
);
}
);
width = 591;
}
);
leftKerningGroup = f;
unicode = 00DF;
},
{
glyphname = t;
lastChange = "2014-11-08 03:27:49 -0300";
layers = (
{
anchors = (
{
name = bottom;
position = "{195, 0}";
},
{
name = center;
position = "{167, 236}";
},
{
name = top;
position = "{134, 531}";
}
);
layerId = "B954E078-309A-4CF1-B397-1A2EBEB3E29A";
name = Light;
paths = (
{
closed = 1;
nodes = (
"82 109 LINE SMOOTH",
"82 21 OFFCURVE",
"115 -12 OFFCURVE",
"206 -12 CURVE SMOOTH",
"230 -12 OFFCURVE",
"307 48 OFFCURVE",
"307 48 CURVE",
"297 74 LINE",
"297 74 OFFCURVE",
"262 56 OFFCURVE",
"229 56 CURVE SMOOTH",
"172 56 OFFCURVE",
"151 81 OFFCURVE",
"151 149 CURVE SMOOTH",
"151 252 OFFCURVE",
"154 336 OFFCURVE",
"158 399 CURVE",
"303 396 LINE",
"312 449 LINE",
"309 452 LINE",
"162 449 LINE",
"166 498 OFFCURVE",
"170 524 OFFCURVE",
"170 524 CURVE",
"150 532 LINE",
"150 532 OFFCURVE",
"91 473 OFFCURVE",
"26 441 CURVE",
"21 411 LINE",
"25 405 LINE",
"69 403 OFFCURVE",
"82 391 OFFCURVE",
"82 355 CURVE SMOOTH"
);
}
);
width = 330;
}
);
unicode = 0074;
},
{
glyphname = tbar;
lastChange = "2014-11-08 03:27:49 -0300";
layers = (
{
components = (
{
disableAlignment = 1;
name = t;
transform = "{1, 0, 0, 1, 0, 0}";
}
);
layerId = "B954E078-309A-4CF1-B397-1A2EBEB3E29A";
name = Light;
paths = (
{
closed = 1;
nodes = (
"110 285 OFFCURVE",
"28 286 OFFCURVE",
"28 286 CURVE",
"21 247 LINE",
"30 238 LINE",
"30 238 OFFCURVE",
"93 239 OFFCURVE",
"143 239 CURVE SMOOTH",
"282 240 LINE",
"286 277 LINE",
"273 290 LINE",
"273 290 OFFCURVE",
"208 285 OFFCURVE",
"165 285 CURVE SMOOTH"
);
}
);
width = 338;
}
);
unicode = 0167;
},
{
glyphname = tcaron;
lastChange = "2014-11-08 03:27:49 -0300";
layers = (
{
layerId = "B954E078-309A-4CF1-B397-1A2EBEB3E29A";
name = Light;
paths = (
{
closed = 1;
nodes = (
"393 513 LINE",
"323 499 LINE",
"323 499 OFFCURVE",
"333 391 OFFCURVE",
"329 281 CURVE",
"340 279 LINE",
"365 293 LINE",
"386 395 OFFCURVE",
"400 505 OFFCURVE",
"400 505 CURVE"
);
},
{
closed = 1;
nodes = (
"82 109 LINE SMOOTH",
"82 21 OFFCURVE",
"115 -12 OFFCURVE",
"206 -12 CURVE SMOOTH",
"230 -12 OFFCURVE",
"307 48 OFFCURVE",
"307 48 CURVE",
"297 74 LINE",
"297 74 OFFCURVE",
"262 56 OFFCURVE",
"229 56 CURVE SMOOTH",
"172 56 OFFCURVE",
"151 81 OFFCURVE",
"151 149 CURVE SMOOTH",
"151 252 OFFCURVE",
"154 336 OFFCURVE",
"158 399 CURVE",
"283 396 LINE",
"292 449 LINE",
"289 452 LINE",
"162 449 LINE",
"166 498 OFFCURVE",
"170 524 OFFCURVE",
"170 524 CURVE",
"150 532 LINE",
"150 532 OFFCURVE",
"91 473 OFFCURVE",
"26 441 CURVE",
"21 411 LINE",
"25 405 LINE",
"69 403 OFFCURVE",
"82 391 OFFCURVE",
"82 355 CURVE SMOOTH"
);
}
);
width = 384;
}
);
unicode = 0165;
},
{
glyphname = u;
lastChange = "2014-11-08 03:27:49 -0300";
layers = (
{
anchors = (
{
name = bottom;
position = "{273, 0}";
},
{
name = ogonek;
position = "{480, 41}";
},
{
name = top;
position = "{271, 472}";
}
);
layerId = "B954E078-309A-4CF1-B397-1A2EBEB3E29A";
name = Light;
paths = (
{
closed = 1;
nodes = (
"86 104 LINE",
"86 29 OFFCURVE",
"133 -12 OFFCURVE",
"219 -12 CURVE SMOOTH",
"237 -12 OFFCURVE",
"294 22 OFFCURVE",
"358 71 CURVE",
"363 69 LINE",
"368 15 OFFCURVE",
"398 -12 OFFCURVE",
"452 -12 CURVE SMOOTH",
"486 -12 OFFCURVE",
"539 68 OFFCURVE",
"539 68 CURVE",
"525 84 LINE",
"525 84 OFFCURVE",
"497 59 OFFCURVE",
"465 59 CURVE SMOOTH",
"439 59 OFFCURVE",
"424 76 OFFCURVE",
"424 105 CURVE SMOOTH",
"424 265 OFFCURVE",
"434 422 OFFCURVE",
"446 452 CURVE",
"440 464 LINE",
"440 464 OFFCURVE",
"357 445 OFFCURVE",
"286 435 CURVE",
"282 399 LINE",
"282 399 OFFCURVE",
"300 400 OFFCURVE",
"306 400 CURVE SMOOTH",
"343 400 OFFCURVE",
"356 386 OFFCURVE",
"356 346 CURVE SMOOTH",
"356 114 LINE",
"323 90 OFFCURVE",
"281 57 OFFCURVE",
"235 57 CURVE SMOOTH",
"181 57 OFFCURVE",
"155 89 OFFCURVE",
"155 155 CURVE SMOOTH",
"155 272 OFFCURVE",
"168 417 OFFCURVE",
"181 452 CURVE",
"175 464 LINE",
"175 464 OFFCURVE",
"94 444 OFFCURVE",
"32 434 CURVE",
"28 397 LINE",
"28 397 OFFCURVE",
"42 401 OFFCURVE",
"53 401 CURVE SMOOTH",
"78 401 OFFCURVE",
"90 382 OFFCURVE",
"90 347 CURVE SMOOTH"
);
}
);
width = 541;
}
);
rightKerningGroup = u;
unicode = 0075;
},
{
glyphname = uogonek;
lastChange = "2014-11-08 03:27:49 -0300";
layers = (
{
layerId = "B954E078-309A-4CF1-B397-1A2EBEB3E29A";
name = Light;
paths = (
{
closed = 1;
nodes = (
"86 104 LINE",
"86 29 OFFCURVE",
"133 -12 OFFCURVE",
"219 -12 CURVE SMOOTH",
"236 -12 OFFCURVE",
"290 20 OFFCURVE",
"358 71 CURVE",
"363 69 LINE",
"368 15 OFFCURVE",
"398 -12 OFFCURVE",
"452 -12 CURVE",
"542 65 LINE",
"525 84 LINE",
"525 84 OFFCURVE",
"497 59 OFFCURVE",
"465 59 CURVE SMOOTH",
"439 59 OFFCURVE",
"424 76 OFFCURVE",
"424 105 CURVE SMOOTH",
"424 265 OFFCURVE",
"434 422 OFFCURVE",
"446 452 CURVE",
"440 464 LINE",
"440 464 OFFCURVE",
"357 445 OFFCURVE",
"286 435 CURVE",
"282 399 LINE",
"282 399 OFFCURVE",
"300 400 OFFCURVE",
"306 400 CURVE SMOOTH",
"343 400 OFFCURVE",
"356 386 OFFCURVE",
"356 346 CURVE SMOOTH",
"356 114 LINE",
"295 71 OFFCURVE",
"266 57 OFFCURVE",
"235 57 CURVE SMOOTH",
"181 57 OFFCURVE",
"155 89 OFFCURVE",
"155 155 CURVE SMOOTH",
"155 268 OFFCURVE",
"168 416 OFFCURVE",
"181 452 CURVE",
"175 464 LINE",
"175 464 OFFCURVE",
"94 444 OFFCURVE",
"32 434 CURVE",
"28 397 LINE",
"28 397 OFFCURVE",
"42 401 OFFCURVE",
"53 401 CURVE SMOOTH",
"77 401 OFFCURVE",
"90 383 OFFCURVE",
"90 347 CURVE SMOOTH"
);
},
{
closed = 1;
nodes = (
"540 -159 LINE",
"540 -159 OFFCURVE",
"502 -182 OFFCURVE",
"463 -182 CURVE SMOOTH",
"429 -182 OFFCURVE",
"405 -158 OFFCURVE",
"405 -126 CURVE SMOOTH",
"405 -83 OFFCURVE",
"420 -62 OFFCURVE",
"542 65 CURVE",
"492 57 LINE",
"381 -48 OFFCURVE",
"342 -101 OFFCURVE",
"342 -147 CURVE SMOOTH",
"342 -205 OFFCURVE",
"385 -241 OFFCURVE",
"453 -241 CURVE",
"504 -224 OFFCURVE",
"553 -178 OFFCURVE",
"553 -178 CURVE"
);
}
);
width = 541;
}
);
rightKerningGroup = u;
unicode = 0173;
},
{
glyphname = v;
lastChange = "2014-11-08 03:27:49 -0300";
layers = (
{
anchors = (
{
name = bottom;
position = "{200, 0}";
},
{
name = top;
position = "{270, 474}";
}
);
layerId = "B954E078-309A-4CF1-B397-1A2EBEB3E29A";
name = Light;
paths = (
{
closed = 1;
nodes = (
"346 368 OFFCURVE",
"299 265 OFFCURVE",
"225 81 CURVE",
"221 81 LINE",
"221 81 OFFCURVE",
"136 368 OFFCURVE",
"136 397 CURVE SMOOTH",
"136 415 OFFCURVE",
"149 421 OFFCURVE",
"195 423 CURVE",
"201 454 LINE",
"199 459 LINE",
"199 459 OFFCURVE",
"140 452 OFFCURVE",
"79 452 CURVE SMOOTH",
"56 452 OFFCURVE",
"-4 453 OFFCURVE",
"-4 453 CURVE",
"-10 420 LINE",
"-8 416 LINE",
"26 415 OFFCURVE",
"49 398 OFFCURVE",
"60 366 CURVE SMOOTH",
"89 280 OFFCURVE",
"182 -17 OFFCURVE",
"182 -17 CURVE",
"236 0 LINE",
"381 341 LINE",
"406 399 OFFCURVE",
"417 412 OFFCURVE",
"445 416 CURVE",
"452 453 LINE",
"452 453 OFFCURVE",
"405 452 OFFCURVE",
"370 452 CURVE SMOOTH",
"321 452 OFFCURVE",
"266 453 OFFCURVE",
"266 453 CURVE",
"261 422 LINE",
"265 416 LINE",
"303 416 LINE",
"335 416 OFFCURVE",
"346 410 OFFCURVE",
"346 392 CURVE SMOOTH"
);
}
);
width = 445;
}
);
leftKerningGroup = v;
rightKerningGroup = v;
unicode = 0076;
},
{
glyphname = w;
lastChange = "2014-11-08 03:27:49 -0300";
layers = (
{
anchors = (
{
name = bottom;
position = "{345, 0}";
},
{
name = top;
position = "{394, 472}";
}
);
layerId = "B954E078-309A-4CF1-B397-1A2EBEB3E29A";
name = Light;
paths = (
{
closed = 1;
nodes = (
"602 368 OFFCURVE",
"557 265 OFFCURVE",
"485 81 CURVE",
"481 81 LINE",
"481 81 OFFCURVE",
"399 368 OFFCURVE",
"399 397 CURVE SMOOTH",
"399 414 OFFCURVE",
"410 419 OFFCURVE",
"456 421 CURVE",
"462 452 LINE",
"460 457 LINE",
"460 457 OFFCURVE",
"402 452 OFFCURVE",
"343 452 CURVE SMOOTH",
"321 452 OFFCURVE",
"263 453 OFFCURVE",
"263 453 CURVE",
"257 420 LINE",
"259 416 LINE",
"300 416 OFFCURVE",
"316 392 OFFCURVE",
"330 350 CURVE",
"312 300 OFFCURVE",
"275 211 OFFCURVE",
"224 81 CURVE",
"220 81 LINE",
"220 81 OFFCURVE",
"138 366 OFFCURVE",
"138 397 CURVE SMOOTH",
"138 415 OFFCURVE",
"151 421 OFFCURVE",
"195 423 CURVE",
"201 454 LINE",
"199 459 LINE",
"199 459 OFFCURVE",
"142 452 OFFCURVE",
"82 452 CURVE SMOOTH",
"60 452 OFFCURVE",
"2 453 OFFCURVE",
"2 453 CURVE",
"-4 420 LINE",
"-2 416 LINE",
"32 415 OFFCURVE",
"53 398 OFFCURVE",
"64 366 CURVE SMOOTH",
"92 280 OFFCURVE",
"182 -17 OFFCURVE",
"182 -17 CURVE",
"236 0 LINE",
"347 278 LINE",
"353 278 LINE",
"390 158 OFFCURVE",
"443 -17 OFFCURVE",
"443 -17 CURVE",
"496 0 LINE",
"637 341 LINE SMOOTH",
"661 399 OFFCURVE",
"672 413 OFFCURVE",
"699 416 CURVE",
"706 453 LINE",
"706 453 OFFCURVE",
"657 452 OFFCURVE",
"624 452 CURVE SMOOTH",
"576 452 OFFCURVE",
"525 454 OFFCURVE",
"525 454 CURVE",
"520 423 LINE",
"524 417 LINE",
"561 417 LINE SMOOTH",
"591 417 OFFCURVE",
"602 410 OFFCURVE",
"602 392 CURVE SMOOTH"
);
}
);
width = 705;
}
);
leftKerningGroup = v;
rightKerningGroup = v;
unicode = 0077;
},
{
glyphname = x;
lastChange = "2014-11-08 03:27:49 -0300";
layers = (
{
anchors = (
{
name = bottom;
position = "{182, 0}";
},
{
name = top;
position = "{199, 463}";
}
);
layerId = "B954E078-309A-4CF1-B397-1A2EBEB3E29A";
name = Light;
paths = (
{
closed = 1;
nodes = (
"328 0 OFFCURVE",
"256 -6 OFFCURVE",
"256 -6 CURVE",
"254 -1 LINE",
"260 30 LINE",
"293 31 OFFCURVE",
"306 37 OFFCURVE",
"306 51 CURVE SMOOTH",
"306 59 OFFCURVE",
"301 71 OFFCURVE",
"289 88 CURVE SMOOTH",
"216 190 LINE",
"179 145 OFFCURVE",
"115 69 OFFCURVE",
"115 51 CURVE SMOOTH",
"115 38 OFFCURVE",
"124 35 OFFCURVE",
"159 33 CURVE",
"161 29 LINE",
"155 -4 LINE",
"155 -4 OFFCURVE",
"95 0 OFFCURVE",
"72 0 CURVE SMOOTH",
"45 0 OFFCURVE",
"12 -3 OFFCURVE",
"12 -3 CURVE",
"9 2 LINE",
"15 33 LINE",
"51 52 OFFCURVE",
"65 71 OFFCURVE",
"108 121 CURVE SMOOTH",
"194 221 LINE",
"118 329 LINE SMOOTH",
"74 392 OFFCURVE",
"58 408 OFFCURVE",
"10 416 CURVE",
"8 420 LINE",
"14 454 LINE",
"14 454 OFFCURVE",
"83 452 OFFCURVE",
"115 452 CURVE SMOOTH",
"172 452 OFFCURVE",
"217 456 OFFCURVE",
"217 456 CURVE",
"219 451 LINE",
"213 420 LINE",
"181 420 OFFCURVE",
"168 415 OFFCURVE",
"168 401 CURVE SMOOTH",
"168 388 OFFCURVE",
"179 373 OFFCURVE",
"192 354 CURVE SMOOTH",
"247 274 LINE",
"308 351 LINE SMOOTH",
"326 373 OFFCURVE",
"339 388 OFFCURVE",
"339 402 CURVE SMOOTH",
"339 412 OFFCURVE",
"330 415 OFFCURVE",
"296 415 CURVE",
"294 419 LINE",
"299 452 LINE",
"372 452 LINE SMOOTH",
"399 452 OFFCURVE",
"443 455 OFFCURVE",
"443 455 CURVE",
"446 450 LINE",
"440 418 LINE",
"419 411 OFFCURVE",
"389 381 OFFCURVE",
"356 343 CURVE SMOOTH",
"270 242 LINE",
"362 111 LINE SMOOTH",
"396 62 OFFCURVE",
"423 40 OFFCURVE",
"463 36 CURVE",
"465 32 LINE",
"459 -2 LINE",
"459 -2 OFFCURVE",
"400 0 OFFCURVE",
"368 0 CURVE SMOOTH"
);
}
);
width = 475;
}
);
rightKerningGroup = x;
unicode = 0078;
},
{
glyphname = y;
lastChange = "2014-11-08 03:27:49 -0300";
layers = (
{
anchors = (
{
name = bottom;
position = "{239, 0}";
},
{
name = top;
position = "{267, 472}";
}
);
layerId = "B954E078-309A-4CF1-B397-1A2EBEB3E29A";
name = Light;
paths = (
{
closed = 1;
nodes = (
"226 91 LINE",
"226 91 OFFCURVE",
"137 362 OFFCURVE",
"137 397 CURVE SMOOTH",
"137 415 OFFCURVE",
"150 421 OFFCURVE",
"196 423 CURVE",
"202 454 LINE",
"200 459 LINE",
"200 459 OFFCURVE",
"139 452 OFFCURVE",
"80 452 CURVE SMOOTH",
"57 452 OFFCURVE",
"-3 453 OFFCURVE",
"-3 453 CURVE",
"-9 420 LINE",
"-7 416 LINE",
"26 415 OFFCURVE",
"45 401 OFFCURVE",
"61 368 CURVE",
"99 273 OFFCURVE",
"161 97 OFFCURVE",
"192 -1 CURVE",
"147 -111 OFFCURVE",
"74 -177 OFFCURVE",
"-3 -177 CURVE",
"-8 -184 LINE",
"-8 -197 OFFCURVE",
"26 -241 OFFCURVE",
"36 -241 CURVE SMOOTH",
"124 -243 OFFCURVE",
"158 -181 OFFCURVE",
"261 55 CURVE",
"390 359 LINE",
"404 398 OFFCURVE",
"416 411 OFFCURVE",
"446 416 CURVE",
"453 453 LINE",
"453 453 OFFCURVE",
"403 452 OFFCURVE",
"368 452 CURVE SMOOTH",
"319 452 OFFCURVE",
"267 456 OFFCURVE",
"267 456 CURVE",
"261 423 LINE",
"263 419 LINE",
"309 419 LINE SMOOTH",
"335 419 OFFCURVE",
"347 411 OFFCURVE",
"347 393 CURVE SMOOTH",
"347 373 OFFCURVE",
"276 201 OFFCURVE",
"230 91 CURVE"
);
}
);
width = 446;
}
);
leftKerningGroup = v;
rightKerningGroup = v;
unicode = 0079;
},
{
glyphname = z;
lastChange = "2014-11-08 03:27:49 -0300";
layers = (
{
anchors = (
{
name = bottom;
position = "{210, 0}";
},
{
name = top;
position = "{245, 472}";
}
);
layerId = "B954E078-309A-4CF1-B397-1A2EBEB3E29A";
name = Light;
paths = (
{
closed = 1;
nodes = (
"46 -2 LINE",
"98 3 LINE",
"379 -6 LINE",
"395 10 LINE",
"395 82 OFFCURVE",
"412 171 OFFCURVE",
"412 171 CURVE",
"372 166 LINE",
"358 83 OFFCURVE",
"331 48 OFFCURVE",
"278 44 CURVE SMOOTH",
"130 35 LINE",
"159 78 OFFCURVE",
"274 245 OFFCURVE",
"416 428 CURVE",
"408 449 LINE",
"198 454 LINE",
"70 462 LINE",
"64 457 LINE",
"63 393 OFFCURVE",
"53 312 OFFCURVE",
"53 312 CURVE",
"92 318 LINE",
"99 385 OFFCURVE",
"118 404 OFFCURVE",
"183 408 CURVE",
"308 414 LINE",
"36 23 LINE"
);
}
);
width = 460;
}
);
leftKerningGroup = z;
rightKerningGroup = z;
unicode = 007A;
},
{
glyphname = f.f;
lastChange = "2014-11-08 03:27:49 -0300";
layers = (
{
anchors = (
{
name = bottom;
position = "{157, 0}";
},
{
name = top;
position = "{265, 749}";
}
);
layerId = "B954E078-309A-4CF1-B397-1A2EBEB3E29A";
name = Light;
paths = (
{
closed = 1;
nodes = (
"184 603 OFFCURVE",
"220 671 OFFCURVE",
"319 671 CURVE SMOOTH",
"401 671 OFFCURVE",
"462 611 OFFCURVE",
"462 611 CURVE",
"473 614 LINE",
"493 647 OFFCURVE",
"514 672 OFFCURVE",
"514 672 CURVE",
"512 681 LINE",
"512 681 OFFCURVE",
"444 730 OFFCURVE",
"352 730 CURVE SMOOTH",
"226 730 OFFCURVE",
"108 639 OFFCURVE",
"108 456 CURVE",
"48 445 LINE",
"41 411 LINE",
"45 405 LINE",
"88 403 OFFCURVE",
"106 397 OFFCURVE",
"108 362 CURVE",
"108 127 LINE SMOOTH",
"108 69 OFFCURVE",
"110 41 OFFCURVE",
"51 37 CURVE",
"46 -2 LINE",
"46 -2 OFFCURVE",
"101 0 OFFCURVE",
"158 0 CURVE SMOOTH",
"171 0 OFFCURVE",
"186 -1 OFFCURVE",
"200 -1 CURVE SMOOTH",
"243 -1 OFFCURVE",
"283 -5 OFFCURVE",
"283 -4 CURVE",
"290 41 LINE",
"288 45 LINE",
"288 45 OFFCURVE",
"262 43 OFFCURVE",
"221 43 CURVE SMOOTH",
"189 43 OFFCURVE",
"176 66 OFFCURVE",
"176 98 CURVE SMOOTH",
"176 199 OFFCURVE",
"180 299 OFFCURVE",
"180 400 CURVE",
"396 400 LINE",
"433 398 LINE",
"442 443 LINE",
"437 451 LINE",
"381 449 LINE",
"181 449 LINE",
"181 465 OFFCURVE",
"182 482 OFFCURVE",
"182 498 CURVE SMOOTH"
);
}
);
width = 300;
}
);
leftKerningGroup = f;
},
{
glyphname = f.l;
lastChange = "2014-11-08 03:27:49 -0300";
layers = (
{
anchors = (
{
name = bottom;
position = "{157, 0}";
},
{
name = top;
position = "{265, 749}";
}
);
layerId = "B954E078-309A-4CF1-B397-1A2EBEB3E29A";
name = Light;
paths = (
{
closed = 1;
nodes = (
"184 610 OFFCURVE",
"217 683 OFFCURVE",
"309 683 CURVE SMOOTH",
"389 683 OFFCURVE",
"454 623 OFFCURVE",
"454 623 CURVE",
"465 626 LINE",
"480 669 OFFCURVE",
"491 699 OFFCURVE",
"491 699 CURVE",
"489 708 LINE",
"489 708 OFFCURVE",
"433 742 OFFCURVE",
"350 742 CURVE SMOOTH",
"218 742 OFFCURVE",
"108 648 OFFCURVE",
"108 456 CURVE",
"48 445 LINE",
"41 411 LINE",
"45 405 LINE",
"88 403 OFFCURVE",
"106 397 OFFCURVE",
"108 362 CURVE",
"108 127 LINE SMOOTH",
"108 67 OFFCURVE",
"103 42 OFFCURVE",
"51 35 CURVE",
"46 -4 LINE",
"46 -3 OFFCURVE",
"128 0 OFFCURVE",
"194 0 CURVE SMOOTH",
"234 0 OFFCURVE",
"282 -3 OFFCURVE",
"282 -2 CURVE",
"289 40 LINE",
"287 44 LINE",
"287 44 OFFCURVE",
"263 43 OFFCURVE",
"225 43 CURVE SMOOTH",
"190 43 OFFCURVE",
"176 65 OFFCURVE",
"176 98 CURVE SMOOTH",
"176 198 OFFCURVE",
"180 299 OFFCURVE",
"180 399 CURVE",
"250 399 OFFCURVE",
"310 396 OFFCURVE",
"310 396 CURVE",
"320 449 LINE",
"317 452 LINE",
"317 452 OFFCURVE",
"251 449 OFFCURVE",
"181 449 CURVE",
"181 465 OFFCURVE",
"182 482 OFFCURVE",
"182 498 CURVE SMOOTH"
);
}
);
width = 330;
}
);
leftKerningGroup = f;
},
{
glyphname = a.sups;
lastChange = "2014-11-08 03:27:49 -0300";
layers = (
{
anchors = (
{
name = bottom;
position = "{229, 0}";
},
{
name = ogonek;
position = "{420, 41}";
},
{
name = top;
position = "{235, 474}";
}
);
layerId = "B954E078-309A-4CF1-B397-1A2EBEB3E29A";
name = Light;
paths = (
{
closed = 1;
nodes = (
"188 514 LINE",
"66 484 LINE SMOOTH",
"44 478 OFFCURVE",
"30 457 OFFCURVE",
"30 432 CURVE SMOOTH",
"30 383 OFFCURVE",
"67 346 OFFCURVE",
"115 346 CURVE SMOOTH",
"130 346 OFFCURVE",
"158 367 OFFCURVE",
"186 394 CURVE",
"190 393 LINE",
"193 360 OFFCURVE",
"214 343 OFFCURVE",
"251 343 CURVE",
"282 353 OFFCURVE",
"310 401 OFFCURVE",
"310 401 CURVE",
"301 413 LINE",
"301 413 OFFCURVE",
"284 400 OFFCURVE",
"266 400 CURVE SMOOTH",
"251 400 OFFCURVE",
"242 410 OFFCURVE",
"242 427 CURVE SMOOTH",
"242 459 OFFCURVE",
"254 541 OFFCURVE",
"254 563 CURVE SMOOTH",
"254 612 OFFCURVE",
"222 647 OFFCURVE",
"155 647 CURVE SMOOTH",
"126 647 OFFCURVE",
"44 600 OFFCURVE",
"44 600 CURVE",
"53 567 LINE",
"58 565 LINE",
"58 565 OFFCURVE",
"94 595 OFFCURVE",
"134 595 CURVE SMOOTH",
"169 595 OFFCURVE",
"189 572 OFFCURVE",
"189 534 CURVE"
);
},
{
closed = 1;
nodes = (
"185 422 LINE",
"169 409 OFFCURVE",
"148 399 OFFCURVE",
"134 399 CURVE SMOOTH",
"111 399 OFFCURVE",
"94 416 OFFCURVE",
"94 439 CURVE SMOOTH",
"94 451 OFFCURVE",
"100 459 OFFCURVE",
"111 462 CURVE SMOOTH",
"187 484 LINE"
);
}
);
width = 321;
}
);
},
{
glyphname = b.sups;
lastChange = "2014-11-08 03:27:49 -0300";
layers = (
{
anchors = (
{
name = bottom;
position = "{252, 0}";
},
{
name = top;
position = "{215, 463}";
}
);
layerId = "B954E078-309A-4CF1-B397-1A2EBEB3E29A";
name = Light;
paths = (
{
closed = 1;
nodes = (
"57 359 LINE",
"63 353 LINE SMOOTH",
"63 353 OFFCURVE",
"109 344 OFFCURVE",
"156 344 CURVE SMOOTH",
"248 344 OFFCURVE",
"317 414 OFFCURVE",
"317 509 CURVE SMOOTH",
"317 592 OFFCURVE",
"268 646 OFFCURVE",
"194 646 CURVE SMOOTH",
"186 646 OFFCURVE",
"158 629 OFFCURVE",
"121 604 CURVE SMOOTH",
"124 721 OFFCURVE",
"130 799 OFFCURVE",
"137 808 CURVE SMOOTH",
"133 818 LINE SMOOTH",
"133 818 OFFCURVE",
"70 806 OFFCURVE",
"18 799 CURVE SMOOTH",
"15 771 LINE",
"17 768 LINE",
"18 768 OFFCURVE",
"25 770 OFFCURVE",
"32 770 CURVE SMOOTH",
"50 770 OFFCURVE",
"57 760 OFFCURVE",
"57 735 CURVE"
);
},
{
closed = 1;
nodes = (
"120 567 LINE SMOOTH",
"137 582 OFFCURVE",
"160 593 OFFCURVE",
"176 593 CURVE SMOOTH",
"218 593 OFFCURVE",
"249 548 OFFCURVE",
"249 485 CURVE SMOOTH",
"249 424 OFFCURVE",
"220 389 OFFCURVE",
"172 389 CURVE SMOOTH",
"153 389 OFFCURVE",
"130 395 OFFCURVE",
"118 400 CURVE SMOOTH"
);
}
);
width = 345;
}
);
},
{
glyphname = c.sups;
lastChange = "2014-11-08 03:27:49 -0300";
layers = (
{
anchors = (
{
name = bottom;
position = "{248, 0}";
},
{
name = top;
position = "{260, 472}";
}
);
layerId = "B954E078-309A-4CF1-B397-1A2EBEB3E29A";
name = Light;
paths = (
{
closed = 1;
nodes = (
"245 417 LINE",
"245 417 OFFCURVE",
"211 398 OFFCURVE",
"176 398 CURVE SMOOTH",
"127 398 OFFCURVE",
"98 439 OFFCURVE",
"98 509 CURVE SMOOTH",
"98 569 OFFCURVE",
"122 602 OFFCURVE",
"167 602 CURVE SMOOTH",
"195 602 OFFCURVE",
"213 584 OFFCURVE",
"213 554 CURVE SMOOTH",
"213 534 LINE",
"248 536 LINE",
"250 587 OFFCURVE",
"261 629 OFFCURVE",
"261 629 CURVE",
"259 634 LINE",
"259 634 OFFCURVE",
"226 647 OFFCURVE",
"181 647 CURVE SMOOTH",
"93 647 OFFCURVE",
"28 579 OFFCURVE",
"28 486 CURVE SMOOTH",
"28 399 OFFCURVE",
"81 343 OFFCURVE",
"166 343 CURVE SMOOTH",
"202 343 OFFCURVE",
"259 388 OFFCURVE",
"259 388 CURVE",
"250 416 LINE"
);
}
);
width = 292;
}
);
},
{
glyphname = d.sups;
lastChange = "2014-11-08 03:27:49 -0300";
layers = (
{
anchors = (
{
name = bottom;
position = "{264, 0}";
},
{
name = center;
position = "{376, 236}";
},
{
name = top;
position = "{390, 730}";
}
);
layerId = "B954E078-309A-4CF1-B397-1A2EBEB3E29A";
name = Light;
paths = (
{
closed = 1;
nodes = (
"232 389 LINE",
"236 359 OFFCURVE",
"257 343 OFFCURVE",
"293 343 CURVE",
"326 354 OFFCURVE",
"353 401 OFFCURVE",
"353 401 CURVE",
"344 413 LINE",
"344 413 OFFCURVE",
"328 400 OFFCURVE",
"311 400 CURVE SMOOTH",
"296 400 OFFCURVE",
"287 410 OFFCURVE",
"287 427 CURVE SMOOTH",
"287 613 OFFCURVE",
"296 793 OFFCURVE",
"307 809 CURVE",
"302 818 LINE",
"302 818 OFFCURVE",
"242 805 OFFCURVE",
"189 799 CURVE",
"185 767 LINE",
"185 767 OFFCURVE",
"195 769 OFFCURVE",
"201 769 CURVE SMOOTH",
"219 769 OFFCURVE",
"226 759 OFFCURVE",
"226 734 CURVE SMOOTH",
"226 644 LINE",
"212 645 OFFCURVE",
"200 646 OFFCURVE",
"189 646 CURVE SMOOTH",
"98 646 OFFCURVE",
"28 575 OFFCURVE",
"28 482 CURVE SMOOTH",
"28 399 OFFCURVE",
"77 346 OFFCURVE",
"151 346 CURVE SMOOTH",
"159 346 OFFCURVE",
"185 361 OFFCURVE",
"228 390 CURVE"
);
},
{
closed = 1;
nodes = (
"226 423 LINE",
"226 423 OFFCURVE",
"196 397 OFFCURVE",
"169 397 CURVE SMOOTH",
"127 397 OFFCURVE",
"96 441 OFFCURVE",
"96 504 CURVE SMOOTH",
"96 564 OFFCURVE",
"125 600 OFFCURVE",
"173 600 CURVE SMOOTH",
"205 600 OFFCURVE",
"226 588 OFFCURVE",
"226 588 CURVE"
);
}
);
width = 362;
}
);
},
{
glyphname = e.sups;
lastChange = "2014-11-08 03:27:49 -0300";
layers = (
{
anchors = (
{
name = bottom;
position = "{261, 0}";
},
{
name = ogonek;
position = "{392, 41}";
},
{
name = top;
position = "{255, 472}";
}
);
layerId = "B954E078-309A-4CF1-B397-1A2EBEB3E29A";
name = Light;
paths = (
{
closed = 1;
nodes = (
"97 535 LINE",
"102 579 OFFCURVE",
"128 604 OFFCURVE",
"164 604 CURVE SMOOTH",
"193 604 OFFCURVE",
"210 587 OFFCURVE",
"210 556 CURVE SMOOTH",
"210 544 OFFCURVE",
"207 541 OFFCURVE",
"196 540 CURVE SMOOTH"
);
},
{
closed = 1;
nodes = (
"266 505 LINE",
"274 512 LINE",
"274 512 OFFCURVE",
"278 529 OFFCURVE",
"278 546 CURVE SMOOTH",
"278 613 OFFCURVE",
"243 647 OFFCURVE",
"175 647 CURVE SMOOTH",
"93 647 OFFCURVE",
"28 576 OFFCURVE",
"28 486 CURVE SMOOTH",
"28 399 OFFCURVE",
"83 343 OFFCURVE",
"169 343 CURVE SMOOTH",
"212 343 OFFCURVE",
"273 389 OFFCURVE",
"273 389 CURVE",
"264 415 LINE",
"260 416 LINE",
"260 416 OFFCURVE",
"222 397 OFFCURVE",
"182 397 CURVE SMOOTH",
"130 397 OFFCURVE",
"97 435 OFFCURVE",
"95 497 CURVE SMOOTH",
"95 505 LINE"
);
}
);
width = 310;
}
);
},
{
glyphname = f.sups;
lastChange = "2014-11-08 03:27:49 -0300";
layers = (
{
anchors = (
{
name = bottom;
position = "{157, 0}";
},
{
name = top;
position = "{265, 749}";
}
);
layerId = "B954E078-309A-4CF1-B397-1A2EBEB3E29A";
name = Light;
paths = (
{
closed = 1;
nodes = (
"32 599 LINE",
"64 598 OFFCURVE",
"72 594 OFFCURVE",
"73 574 CURVE",
"73 417 LINE SMOOTH",
"73 395 OFFCURVE",
"62 384 OFFCURVE",
"37 381 CURVE",
"33 348 LINE",
"33 348 OFFCURVE",
"76 351 OFFCURVE",
"112 351 CURVE SMOOTH",
"138 351 OFFCURVE",
"199 349 OFFCURVE",
"199 349 CURVE",
"204 385 LINE",
"202 388 LINE",
"202 388 OFFCURVE",
"184 387 OFFCURVE",
"163 387 CURVE SMOOTH",
"143 387 OFFCURVE",
"134 396 OFFCURVE",
"134 418 CURVE SMOOTH",
"136 597 LINE",
"181 596 OFFCURVE",
"217 595 OFFCURVE",
"217 595 CURVE",
"224 634 LINE",
"222 636 LINE",
"222 636 OFFCURVE",
"182 634 OFFCURVE",
"137 634 CURVE",
"137 664 LINE SMOOTH",
"138 738 OFFCURVE",
"158 770 OFFCURVE",
"204 770 CURVE SMOOTH",
"244 770 OFFCURVE",
"275 746 OFFCURVE",
"275 746 CURVE",
"282 748 LINE",
"293 776 OFFCURVE",
"303 798 OFFCURVE",
"303 798 CURVE",
"301 806 LINE",
"301 806 OFFCURVE",
"272 818 OFFCURVE",
"228 818 CURVE SMOOTH",
"134 818 OFFCURVE",
"73 750 OFFCURVE",
"73 642 CURVE SMOOTH",
"73 637 LINE",
"34 631 LINE",
"29 603 LINE"
);
}
);
width = 233;
}
);
},
{
glyphname = g.sups;
lastChange = "2014-11-08 03:27:49 -0300";
layers = (
{
anchors = (
{
name = bottom;
position = "{245, -215}";
},
{
name = top;
position = "{264, 472}";
}
);
layerId = "B954E078-309A-4CF1-B397-1A2EBEB3E29A";
name = Light;
paths = (
{
closed = 1;
nodes = (
"235 432 OFFCURVE",
"292 480 OFFCURVE",
"292 544 CURVE SMOOTH",
"292 567 OFFCURVE",
"283 589 OFFCURVE",
"266 607 CURVE",
"269 610 LINE",
"294 612 OFFCURVE",
"319 615 OFFCURVE",
"319 615 CURVE",
"327 658 LINE",
"324 661 LINE",
"324 661 OFFCURVE",
"267 644 OFFCURVE",
"235 641 CURVE",
"217 641 OFFCURVE",
"196 647 OFFCURVE",
"170 647 CURVE SMOOTH",
"100 647 OFFCURVE",
"44 597 OFFCURVE",
"44 533 CURVE SMOOTH",
"44 496 OFFCURVE",
"61 465 OFFCURVE",
"92 448 CURVE",
"92 445 LINE",
"92 445 OFFCURVE",
"57 423 OFFCURVE",
"38 403 CURVE",
"38 371 OFFCURVE",
"66 345 OFFCURVE",
"106 340 CURVE",
"106 336 LINE",
"106 336 OFFCURVE",
"62 309 OFFCURVE",
"42 285 CURVE",
"42 231 OFFCURVE",
"83 199 OFFCURVE",
"149 199 CURVE SMOOTH",
"233 199 OFFCURVE",
"313 255 OFFCURVE",
"313 315 CURVE SMOOTH",
"313 420 OFFCURVE",
"98 359 OFFCURVE",
"98 412 CURVE SMOOTH",
"98 420 OFFCURVE",
"107 430 OFFCURVE",
"120 437 CURVE",
"132 434 OFFCURVE",
"145 432 OFFCURVE",
"158 432 CURVE SMOOTH"
);
},
{
closed = 1;
nodes = (
"134 468 OFFCURVE",
"109 496 OFFCURVE",
"109 541 CURVE SMOOTH",
"109 582 OFFCURVE",
"129 606 OFFCURVE",
"163 606 CURVE SMOOTH",
"201 606 OFFCURVE",
"226 578 OFFCURVE",
"226 533 CURVE SMOOTH",
"226 491 OFFCURVE",
"206 468 OFFCURVE",
"172 468 CURVE SMOOTH"
);
},
{
closed = 1;
nodes = (
"133 239 OFFCURVE",
"109 256 OFFCURVE",
"109 284 CURVE SMOOTH",
"109 309 OFFCURVE",
"140 333 OFFCURVE",
"140 333 CURVE",
"239 320 OFFCURVE",
"255 314 OFFCURVE",
"255 292 CURVE SMOOTH",
"255 264 OFFCURVE",
"216 239 OFFCURVE",
"172 239 CURVE SMOOTH"
);
}
);
width = 343;
}
);
},
{
glyphname = h.sups;
lastChange = "2014-11-08 03:27:49 -0300";
layers = (
{
anchors = (
{
name = bottom;
position = "{265, 0}";
},
{
name = center;
position = "{277, 236}";
},
{
name = top;
position = "{128, 710}";
}
);
layerId = "B954E078-309A-4CF1-B397-1A2EBEB3E29A";
name = Light;
paths = (
{
closed = 1;
nodes = (
"23 349 LINE",
"23 349 OFFCURVE",
"62 351 OFFCURVE",
"91 351 CURVE SMOOTH",
"116 351 OFFCURVE",
"156 349 OFFCURVE",
"156 349 CURVE",
"162 383 LINE",
"160 386 LINE",
"160 386 OFFCURVE",
"148 385 OFFCURVE",
"141 385 CURVE SMOOTH",
"126 385 OFFCURVE",
"120 393 OFFCURVE",
"120 416 CURVE SMOOTH",
"120 466 OFFCURVE",
"121 515 OFFCURVE",
"122 561 CURVE",
"131 568 OFFCURVE",
"163 591 OFFCURVE",
"191 591 CURVE SMOOTH",
"221 591 OFFCURVE",
"237 570 OFFCURVE",
"237 531 CURVE SMOOTH",
"234 416 LINE SMOOTH",
"234 395 OFFCURVE",
"225 384 OFFCURVE",
"202 379 CURVE",
"198 345 LINE",
"198 345 OFFCURVE",
"242 351 OFFCURVE",
"268 351 CURVE SMOOTH",
"292 351 OFFCURVE",
"331 349 OFFCURVE",
"331 349 CURVE",
"337 383 LINE",
"336 386 LINE",
"336 386 OFFCURVE",
"322 385 OFFCURVE",
"315 385 CURVE SMOOTH",
"300 385 OFFCURVE",
"294 394 OFFCURVE",
"294 417 CURVE SMOOTH",
"294 450 OFFCURVE",
"305 542 OFFCURVE",
"305 565 CURVE SMOOTH",
"305 617 OFFCURVE",
"272 647 OFFCURVE",
"213 647 CURVE SMOOTH",
"191 647 OFFCURVE",
"138 608 OFFCURVE",
"123 595 CURVE",
"126 713 OFFCURVE",
"132 798 OFFCURVE",
"140 808 CURVE",
"135 818 LINE",
"135 818 OFFCURVE",
"73 806 OFFCURVE",
"20 799 CURVE",
"17 771 LINE",
"20 769 LINE",
"34 769 LINE",
"53 769 OFFCURVE",
"59 760 OFFCURVE",
"59 735 CURVE SMOOTH",
"59 417 LINE",
"59 394 OFFCURVE",
"51 385 OFFCURVE",
"28 383 CURVE"
);
}
);
width = 363;
}
);
},
{
glyphname = i.sups;
lastChange = "2014-11-08 03:27:49 -0300";
layers = (
{
anchors = (
{
name = bottom;
position = "{159, 0}";
},
{
name = ogonek;
position = "{159, 49}";
},
{
name = top;
position = "{136, 472}";
}
);
layerId = "B954E078-309A-4CF1-B397-1A2EBEB3E29A";
name = Light;
paths = (
{
closed = 1;
nodes = (
"125 720 OFFCURVE",
"144 739 OFFCURVE",
"144 765 CURVE SMOOTH",
"144 789 OFFCURVE",
"129 805 OFFCURVE",
"106 805 CURVE SMOOTH",
"79 805 OFFCURVE",
"61 786 OFFCURVE",
"61 760 CURVE SMOOTH",
"61 736 OFFCURVE",
"76 720 OFFCURVE",
"99 720 CURVE SMOOTH"
);
},
{
closed = 1;
nodes = (
"31 344 LINE",
"31 344 OFFCURVE",
"74 351 OFFCURVE",
"104 351 CURVE SMOOTH",
"129 351 OFFCURVE",
"169 349 OFFCURVE",
"169 349 CURVE",
"174 383 LINE",
"173 386 LINE",
"173 386 OFFCURVE",
"160 385 OFFCURVE",
"153 385 CURVE SMOOTH",
"138 385 OFFCURVE",
"132 394 OFFCURVE",
"132 415 CURVE SMOOTH",
"132 522 OFFCURVE",
"138 619 OFFCURVE",
"147 637 CURVE",
"142 647 LINE",
"142 647 OFFCURVE",
"85 634 OFFCURVE",
"33 627 CURVE",
"30 596 LINE",
"30 596 OFFCURVE",
"39 598 OFFCURVE",
"45 598 CURVE SMOOTH",
"64 598 OFFCURVE",
"71 589 OFFCURVE",
"71 564 CURVE SMOOTH",
"71 418 LINE SMOOTH",
"71 395 OFFCURVE",
"60 383 OFFCURVE",
"35 378 CURVE"
);
}
);
width = 202;
}
);
},
{
glyphname = j.sups;
lastChange = "2014-11-08 03:27:49 -0300";
layers = (
{
anchors = (
{
name = bottom;
position = "{243, 0}";
},
{
name = top;
position = "{125, 463}";
}
);
layerId = "B954E078-309A-4CF1-B397-1A2EBEB3E29A";
name = Light;
paths = (
{
closed = 1;
nodes = (
"32 198 LINE",
"91 230 OFFCURVE",
"126 282 OFFCURVE",
"126 342 CURVE SMOOTH",
"126 519 OFFCURVE",
"130 622 OFFCURVE",
"138 637 CURVE",
"134 647 LINE",
"134 647 OFFCURVE",
"71 633 OFFCURVE",
"25 627 CURVE",
"22 596 LINE",
"22 596 OFFCURVE",
"32 598 OFFCURVE",
"40 598 CURVE SMOOTH",
"58 598 OFFCURVE",
"64 590 OFFCURVE",
"64 564 CURVE SMOOTH",
"64 374 LINE SMOOTH",
"64 291 OFFCURVE",
"54 256 OFFCURVE",
"17 220 CURVE",
"16 214 LINE"
);
},
{
closed = 1;
nodes = (
"119 720 OFFCURVE",
"138 739 OFFCURVE",
"138 765 CURVE SMOOTH",
"138 789 OFFCURVE",
"123 805 OFFCURVE",
"99 805 CURVE SMOOTH",
"73 805 OFFCURVE",
"54 786 OFFCURVE",
"54 760 CURVE SMOOTH",
"54 736 OFFCURVE",
"69 720 OFFCURVE",
"93 720 CURVE SMOOTH"
);
}
);
width = 186;
}
);
},
{
glyphname = k.sups;
lastChange = "2014-11-08 03:27:49 -0300";
layers = (
{
anchors = (
{
name = bottom;
position = "{282, 0}";
},
{
name = top;
position = "{119, 687}";
}
);
layerId = "B954E078-309A-4CF1-B397-1A2EBEB3E29A";
name = Light;
paths = (
{
closed = 1;
nodes = (
"23 347 LINE",
"23 347 OFFCURVE",
"62 351 OFFCURVE",
"91 351 CURVE SMOOTH",
"116 351 OFFCURVE",
"156 349 OFFCURVE",
"156 349 CURVE",
"162 382 LINE",
"161 385 LINE",
"161 385 OFFCURVE",
"148 384 OFFCURVE",
"141 384 CURVE SMOOTH",
"126 384 OFFCURVE",
"120 393 OFFCURVE",
"120 415 CURVE SMOOTH",
"120 617 OFFCURVE",
"129 794 OFFCURVE",
"140 808 CURVE",
"135 818 LINE",
"135 818 OFFCURVE",
"73 806 OFFCURVE",
"20 799 CURVE",
"18 777 LINE SMOOTH",
"18 774 OFFCURVE",
"18 771 OFFCURVE",
"18 768 CURVE SMOOTH",
"21 768 OFFCURVE",
"32 770 OFFCURVE",
"39 769 CURVE SMOOTH",
"53 768 OFFCURVE",
"59 757 OFFCURVE",
"59 735 CURVE SMOOTH",
"59 436 LINE SMOOTH",
"59 399 OFFCURVE",
"58 385 OFFCURVE",
"27 381 CURVE"
);
},
{
closed = 1;
nodes = (
"202 395 LINE SMOOTH",
"221 365 OFFCURVE",
"234 352 OFFCURVE",
"252 346 CURVE SMOOTH",
"258 344 OFFCURVE",
"268 342 OFFCURVE",
"278 343 CURVE SMOOTH",
"291 343 OFFCURVE",
"325 351 OFFCURVE",
"325 351 CURVE",
"329 377 LINE",
"327 381 LINE",
"301 382 OFFCURVE",
"281 397 OFFCURVE",
"256 430 CURVE SMOOTH",
"196 513 LINE",
"234 550 OFFCURVE",
"277 596 OFFCURVE",
"320 610 CURVE",
"325 639 LINE",
"323 642 LINE",
"323 642 OFFCURVE",
"285 639 OFFCURVE",
"258 639 CURVE SMOOTH",
"230 639 OFFCURVE",
"188 640 OFFCURVE",
"188 640 CURVE",
"182 615 LINE",
"184 611 LINE",
"208 611 OFFCURVE",
"218 608 OFFCURVE",
"218 598 CURVE SMOOTH",
"218 592 OFFCURVE",
"214 587 OFFCURVE",
"204 577 CURVE SMOOTH",
"135 512 LINE",
"133 500 LINE"
);
}
);
width = 344;
}
);
},
{
glyphname = l.sups;
lastChange = "2014-11-08 03:27:49 -0300";
layers = (
{
anchors = (
{
name = bottom;
position = "{140, 0}";
},
{
name = top;
position = "{146, 720}";
},
{
name = topright;
position = "{267, 472}";
}
);
layerId = "B954E078-309A-4CF1-B397-1A2EBEB3E29A";
name = Light;
paths = (
{
closed = 1;
nodes = (
"22 345 LINE",
"22 345 OFFCURVE",
"62 351 OFFCURVE",
"92 351 CURVE SMOOTH",
"117 351 OFFCURVE",
"158 349 OFFCURVE",
"158 349 CURVE",
"164 382 LINE",
"163 385 LINE",
"163 385 OFFCURVE",
"148 384 OFFCURVE",
"141 384 CURVE SMOOTH",
"126 384 OFFCURVE",
"120 393 OFFCURVE",
"120 415 CURVE SMOOTH",
"120 616 OFFCURVE",
"129 794 OFFCURVE",
"140 808 CURVE",
"135 818 LINE",
"135 818 OFFCURVE",
"73 806 OFFCURVE",
"20 799 CURVE",
"18 777 LINE SMOOTH",
"18 774 OFFCURVE",
"18 771 OFFCURVE",
"18 768 CURVE SMOOTH",
"21 768 OFFCURVE",
"32 770 OFFCURVE",
"39 769 CURVE SMOOTH",
"53 768 OFFCURVE",
"59 757 OFFCURVE",
"59 735 CURVE SMOOTH",
"59 436 LINE SMOOTH",
"59 401 OFFCURVE",
"59 386 OFFCURVE",
"26 378 CURVE"
);
}
);
width = 181;
}
);
},
{
glyphname = m.sups;
lastChange = "2014-11-08 03:27:49 -0300";
layers = (
{
anchors = (
{
name = bottom;
position = "{438, 0}";
},
{
name = top;
position = "{435, 463}";
}
);
layerId = "B954E078-309A-4CF1-B397-1A2EBEB3E29A";
name = Light;
paths = (
{
closed = 1;
nodes = (
"211 345 LINE",
"211 345 OFFCURVE",
"254 351 OFFCURVE",
"280 351 CURVE SMOOTH",
"305 351 OFFCURVE",
"343 349 OFFCURVE",
"343 349 CURVE",
"349 383 LINE",
"348 386 LINE",
"348 386 OFFCURVE",
"335 385 OFFCURVE",
"328 385 CURVE SMOOTH",
"313 385 OFFCURVE",
"307 394 OFFCURVE",
"307 417 CURVE",
"315 564 LINE",
"327 573 OFFCURVE",
"354 591 OFFCURVE",
"379 591 CURVE SMOOTH",
"410 591 OFFCURVE",
"426 570 OFFCURVE",
"426 531 CURVE SMOOTH",
"424 416 LINE",
"423 394 OFFCURVE",
"415 385 OFFCURVE",
"393 381 CURVE",
"390 348 LINE",
"390 348 OFFCURVE",
"430 351 OFFCURVE",
"456 351 CURVE SMOOTH",
"480 351 OFFCURVE",
"521 349 OFFCURVE",
"521 349 CURVE",
"527 383 LINE",
"526 386 LINE",
"526 386 OFFCURVE",
"513 385 OFFCURVE",
"505 385 CURVE SMOOTH",
"490 385 OFFCURVE",
"484 393 OFFCURVE",
"484 417 CURVE SMOOTH",
"484 450 OFFCURVE",
"494 542 OFFCURVE",
"494 565 CURVE SMOOTH",
"494 616 OFFCURVE",
"459 647 OFFCURVE",
"402 647 CURVE SMOOTH",
"381 647 OFFCURVE",
"327 608 OFFCURVE",
"311 595 CURVE",
"300 628 OFFCURVE",
"270 647 OFFCURVE",
"225 647 CURVE SMOOTH",
"206 647 OFFCURVE",
"156 612 OFFCURVE",
"136 597 CURVE",
"135 599 LINE",
"136 620 OFFCURVE",
"142 641 OFFCURVE",
"142 641 CURVE",
"137 647 LINE",
"137 647 OFFCURVE",
"84 635 OFFCURVE",
"32 628 CURVE",
"29 600 LINE",
"31 597 LINE",
"39 597 LINE",
"62 597 OFFCURVE",
"70 587 OFFCURVE",
"70 559 CURVE SMOOTH",
"70 417 LINE",
"70 394 OFFCURVE",
"61 385 OFFCURVE",
"37 383 CURVE",
"32 349 LINE",
"32 349 OFFCURVE",
"72 351 OFFCURVE",
"103 351 CURVE SMOOTH",
"127 351 OFFCURVE",
"166 349 OFFCURVE",
"166 349 CURVE",
"172 383 LINE",
"171 386 LINE",
"171 386 OFFCURVE",
"158 385 OFFCURVE",
"152 385 CURVE SMOOTH",
"136 385 OFFCURVE",
"131 393 OFFCURVE",
"131 416 CURVE SMOOTH",
"131 437 OFFCURVE",
"135 518 OFFCURVE",
"137 563 CURVE",
"149 572 OFFCURVE",
"177 591 OFFCURVE",
"203 591 CURVE SMOOTH",
"233 591 OFFCURVE",
"249 570 OFFCURVE",
"249 531 CURVE SMOOTH",
"247 416 LINE",
"247 395 OFFCURVE",
"237 384 OFFCURVE",
"215 379 CURVE"
);
}
);
width = 553;
}
);
},
{
glyphname = n.sups;
lastChange = "2014-11-08 03:27:49 -0300";
layers = (
{
anchors = (
{
name = bottom;
position = "{291, 0}";
},
{
name = top;
position = "{308, 472}";
}
);
layerId = "B954E078-309A-4CF1-B397-1A2EBEB3E29A";
name = Light;
paths = (
{
closed = 1;
nodes = (
"211 345 LINE",
"211 345 OFFCURVE",
"254 351 OFFCURVE",
"280 351 CURVE SMOOTH",
"305 351 OFFCURVE",
"344 349 OFFCURVE",
"344 349 CURVE",
"350 383 LINE",
"349 386 LINE",
"349 386 OFFCURVE",
"335 385 OFFCURVE",
"328 385 CURVE SMOOTH",
"313 385 OFFCURVE",
"307 394 OFFCURVE",
"307 417 CURVE SMOOTH",
"307 450 OFFCURVE",
"317 542 OFFCURVE",
"317 565 CURVE SMOOTH",
"317 616 OFFCURVE",
"282 647 OFFCURVE",
"225 647 CURVE SMOOTH",
"206 647 OFFCURVE",
"155 611 OFFCURVE",
"137 597 CURVE",
"135 599 LINE",
"136 620 OFFCURVE",
"142 641 OFFCURVE",
"142 641 CURVE",
"137 647 LINE",
"137 647 OFFCURVE",
"84 635 OFFCURVE",
"32 628 CURVE",
"29 600 LINE",
"31 597 LINE",
"39 597 LINE SMOOTH",
"62 597 OFFCURVE",
"70 587 OFFCURVE",
"70 559 CURVE SMOOTH",
"70 417 LINE SMOOTH",
"70 394 OFFCURVE",
"61 384 OFFCURVE",
"36 381 CURVE",
"32 347 LINE",
"32 347 OFFCURVE",
"72 351 OFFCURVE",
"103 351 CURVE SMOOTH",
"127 351 OFFCURVE",
"166 349 OFFCURVE",
"166 349 CURVE",
"172 383 LINE",
"171 386 LINE",
"171 386 OFFCURVE",
"158 385 OFFCURVE",
"152 385 CURVE SMOOTH",
"136 385 OFFCURVE",
"131 393 OFFCURVE",
"131 416 CURVE SMOOTH",
"131 437 OFFCURVE",
"135 519 OFFCURVE",
"137 563 CURVE",
"149 572 OFFCURVE",
"177 591 OFFCURVE",
"203 591 CURVE SMOOTH",
"233 591 OFFCURVE",
"249 570 OFFCURVE",
"249 531 CURVE SMOOTH",
"247 416 LINE SMOOTH",
"247 395 OFFCURVE",
"237 384 OFFCURVE",
"214 379 CURVE"
);
}
);
width = 381;
}
);
},
{
glyphname = o.sups;
lastChange = "2014-11-08 03:27:49 -0300";
layers = (
{
anchors = (
{
name = bottom;
position = "{259, 0}";
},
{
name = top;
position = "{263, 472}";
}
);
layerId = "B954E078-309A-4CF1-B397-1A2EBEB3E29A";
name = Light;
paths = (
{
closed = 1;
nodes = (
"247 343 OFFCURVE",
"310 411 OFFCURVE",
"310 504 CURVE SMOOTH",
"310 591 OFFCURVE",
"259 647 OFFCURVE",
"180 647 CURVE SMOOTH",
"92 647 OFFCURVE",
"28 579 OFFCURVE",
"28 486 CURVE SMOOTH",
"28 401 OFFCURVE",
"80 343 OFFCURVE",
"159 343 CURVE SMOOTH"
);
},
{
closed = 1;
nodes = (
"127 384 OFFCURVE",
"98 429 OFFCURVE",
"98 507 CURVE SMOOTH",
"98 567 OFFCURVE",
"122 601 OFFCURVE",
"163 601 CURVE SMOOTH",
"210 601 OFFCURVE",
"239 556 OFFCURVE",
"239 478 CURVE SMOOTH",
"239 418 OFFCURVE",
"215 384 OFFCURVE",
"174 384 CURVE SMOOTH"
);
}
);
width = 338;
}
);
},
{
glyphname = p.sups;
lastChange = "2014-11-08 03:27:49 -0300";
layers = (
{
anchors = (
{
name = bottom;
position = "{380, 0}";
},
{
name = top;
position = "{291, 472}";
}
);
layerId = "B954E078-309A-4CF1-B397-1A2EBEB3E29A";
name = Light;
paths = (
{
closed = 1;
nodes = (
"32 202 LINE",
"32 202 OFFCURVE",
"69 206 OFFCURVE",
"105 206 CURVE SMOOTH",
"128 206 OFFCURVE",
"161 205 OFFCURVE",
"176 205 CURVE",
"182 238 LINE",
"181 240 LINE",
"175 240 OFFCURVE",
"165 239 OFFCURVE",
"156 239 CURVE SMOOTH",
"134 239 OFFCURVE",
"130 250 OFFCURVE",
"130 285 CURVE SMOOTH",
"130 306 OFFCURVE",
"130 326 OFFCURVE",
"130 346 CURVE SMOOTH",
"130 346 OFFCURVE",
"154 344 OFFCURVE",
"166 344 CURVE SMOOTH",
"259 344 OFFCURVE",
"331 413 OFFCURVE",
"331 509 CURVE SMOOTH",
"331 590 OFFCURVE",
"281 645 OFFCURVE",
"205 645 CURVE SMOOTH",
"197 645 OFFCURVE",
"172 629 OFFCURVE",
"137 601 CURVE",
"134 604 LINE",
"136 622 OFFCURVE",
"141 641 OFFCURVE",
"141 641 CURVE",
"136 647 LINE",
"136 647 OFFCURVE",
"83 635 OFFCURVE",
"31 628 CURVE",
"28 600 LINE",
"30 597 LINE",
"38 597 LINE SMOOTH",
"62 597 OFFCURVE",
"70 587 OFFCURVE",
"70 559 CURVE SMOOTH",
"70 377 LINE SMOOTH",
"69 349 OFFCURVE",
"68 299 OFFCURVE",
"67 277 CURVE SMOOTH",
"67 245 OFFCURVE",
"62 238 OFFCURVE",
"36 235 CURVE"
);
},
{
closed = 1;
nodes = (
"131 449 OFFCURVE",
"133 516 OFFCURVE",
"136 567 CURVE",
"154 581 OFFCURVE",
"176 590 OFFCURVE",
"191 590 CURVE SMOOTH",
"233 590 OFFCURVE",
"263 547 OFFCURVE",
"263 485 CURVE SMOOTH",
"263 424 OFFCURVE",
"234 389 OFFCURVE",
"186 389 CURVE SMOOTH",
"167 389 OFFCURVE",
"144 394 OFFCURVE",
"131 399 CURVE"
);
}
);
width = 359;
}
);
},
{
glyphname = q.sups;
lastChange = "2014-11-08 03:27:49 -0300";
layers = (
{
anchors = (
{
name = bottom;
position = "{149, 0}";
},
{
name = top;
position = "{272, 472}";
}
);
layerId = "B954E078-309A-4CF1-B397-1A2EBEB3E29A";
name = Light;
paths = (
{
closed = 1;
nodes = (
"176 204 LINE",
"176 204 OFFCURVE",
"220 206 OFFCURVE",
"250 206 CURVE SMOOTH",
"322 206 LINE",
"326 239 LINE",
"325 240 LINE",
"325 240 OFFCURVE",
"317 240 OFFCURVE",
"308 240 CURVE SMOOTH",
"290 240 OFFCURVE",
"287 247 OFFCURVE",
"287 286 CURVE SMOOTH",
"287 490 OFFCURVE",
"292 631 OFFCURVE",
"300 649 CURVE",
"294 656 LINE",
"294 656 OFFCURVE",
"276 648 OFFCURVE",
"254 640 CURVE",
"231 644 OFFCURVE",
"208 646 OFFCURVE",
"189 646 CURVE SMOOTH",
"98 646 OFFCURVE",
"28 575 OFFCURVE",
"28 482 CURVE SMOOTH",
"28 398 OFFCURVE",
"77 344 OFFCURVE",
"151 344 CURVE SMOOTH",
"159 344 OFFCURVE",
"186 360 OFFCURVE",
"226 388 CURVE",
"224 275 LINE SMOOTH",
"223 244 OFFCURVE",
"216 238 OFFCURVE",
"180 236 CURVE"
);
},
{
closed = 1;
nodes = (
"226 423 LINE",
"226 423 OFFCURVE",
"196 396 OFFCURVE",
"169 396 CURVE SMOOTH",
"127 396 OFFCURVE",
"96 441 OFFCURVE",
"96 504 CURVE SMOOTH",
"96 564 OFFCURVE",
"125 600 OFFCURVE",
"173 600 CURVE SMOOTH",
"205 600 OFFCURVE",
"226 588 OFFCURVE",
"226 588 CURVE"
);
}
);
width = 348;
}
);
},
{
glyphname = r.sups;
lastChange = "2014-11-08 03:27:49 -0300";
layers = (
{
anchors = (
{
name = bottom;
position = "{149, 0}";
},
{
name = top;
position = "{152, 472}";
}
);
layerId = "B954E078-309A-4CF1-B397-1A2EBEB3E29A";
name = Light;
paths = (
{
closed = 1;
nodes = (
"37 348 LINE SMOOTH",
"37 348 OFFCURVE",
"73 351 OFFCURVE",
"111 351 CURVE SMOOTH",
"139 351 OFFCURVE",
"187 349 OFFCURVE",
"187 349 CURVE SMOOTH",
"193 385 LINE",
"192 388 LINE SMOOTH",
"192 388 OFFCURVE",
"172 387 OFFCURVE",
"162 387 CURVE SMOOTH",
"140 387 OFFCURVE",
"134 394 OFFCURVE",
"134 419 CURVE SMOOTH",
"134 431 OFFCURVE",
"140 543 OFFCURVE",
"140 543 CURVE",
"155 564 OFFCURVE",
"174 577 OFFCURVE",
"190 577 CURVE SMOOTH",
"204 577 OFFCURVE",
"208 568 OFFCURVE",
"208 530 CURVE SMOOTH",
"242 532 LINE SMOOTH",
"244 578 OFFCURVE",
"254 637 OFFCURVE",
"254 637 CURVE SMOOTH",
"251 641 LINE SMOOTH",
"251 641 OFFCURVE",
"242 643 OFFCURVE",
"229 643 CURVE SMOOTH",
"201 643 OFFCURVE",
"167 618 OFFCURVE",
"140 579 CURVE SMOOTH",
"137 581 LINE SMOOTH",
"137 609 OFFCURVE",
"143 642 OFFCURVE",
"143 642 CURVE SMOOTH",
"138 647 LINE SMOOTH",
"138 647 OFFCURVE",
"83 635 OFFCURVE",
"34 627 CURVE SMOOTH",
"32 600 LINE",
"35 596 LINE",
"35 596 OFFCURVE",
"41 597 OFFCURVE",
"47 597 CURVE SMOOTH",
"67 597 OFFCURVE",
"73 587 OFFCURVE",
"73 559 CURVE SMOOTH",
"73 429 LINE SMOOTH",
"73 393 OFFCURVE",
"67 384 OFFCURVE",
"41 382 CURVE SMOOTH"
);
}
);
width = 274;
}
);
},
{
glyphname = s.sups;
lastChange = "2014-11-08 03:27:49 -0300";
layers = (
{
layerId = "B954E078-309A-4CF1-B397-1A2EBEB3E29A";
name = Light;
paths = (
{
closed = 1;
nodes = (
"187 343 OFFCURVE",
"243 385 OFFCURVE",
"243 436 CURVE SMOOTH",
"243 472 OFFCURVE",
"222 492 OFFCURVE",
"151 527 CURVE",
"116 544 OFFCURVE",
"102 558 OFFCURVE",
"102 576 CURVE SMOOTH",
"102 593 OFFCURVE",
"121 606 OFFCURVE",
"146 606 CURVE SMOOTH",
"179 606 OFFCURVE",
"194 593 OFFCURVE",
"194 563 CURVE SMOOTH",
"194 559 OFFCURVE",
"193 549 OFFCURVE",
"193 549 CURVE",
"224 551 LINE",
"228 593 OFFCURVE",
"236 631 OFFCURVE",
"236 631 CURVE",
"234 636 LINE",
"234 636 OFFCURVE",
"204 647 OFFCURVE",
"166 647 CURVE SMOOTH",
"92 647 OFFCURVE",
"40 608 OFFCURVE",
"40 553 CURVE SMOOTH",
"40 519 OFFCURVE",
"61 495 OFFCURVE",
"111 471 CURVE SMOOTH",
"166 444 OFFCURVE",
"180 433 OFFCURVE",
"180 414 CURVE SMOOTH",
"180 396 OFFCURVE",
"158 383 OFFCURVE",
"130 383 CURVE SMOOTH",
"90 383 OFFCURVE",
"72 404 OFFCURVE",
"71 451 CURVE",
"41 448 LINE",
"40 425 OFFCURVE",
"36 380 OFFCURVE",
"33 365 CURVE",
"36 359 LINE",
"36 359 OFFCURVE",
"68 343 OFFCURVE",
"118 343 CURVE SMOOTH"
);
}
);
width = 278;
}
);
},
{
glyphname = t.sups;
lastChange = "2014-11-08 03:27:49 -0300";
layers = (
{
anchors = (
{
name = bottom;
position = "{195, 0}";
},
{
name = center;
position = "{167, 236}";
},
{
name = top;
position = "{134, 531}";
}
);
layerId = "B954E078-309A-4CF1-B397-1A2EBEB3E29A";
name = Light;
paths = (
{
closed = 1;
nodes = (
"57 421 LINE SMOOTH",
"57 366 OFFCURVE",
"81 343 OFFCURVE",
"141 343 CURVE SMOOTH",
"159 343 OFFCURVE",
"211 388 OFFCURVE",
"211 388 CURVE",
"203 407 LINE",
"203 407 OFFCURVE",
"182 397 OFFCURVE",
"163 397 CURVE SMOOTH",
"131 397 OFFCURVE",
"118 413 OFFCURVE",
"118 451 CURVE SMOOTH",
"118 511 OFFCURVE",
"120 559 OFFCURVE",
"122 597 CURVE",
"205 595 LINE",
"211 634 LINE",
"209 636 LINE",
"125 634 LINE",
"128 667 OFFCURVE",
"132 686 OFFCURVE",
"132 686 CURVE",
"116 693 LINE",
"116 693 OFFCURVE",
"70 653 OFFCURVE",
"20 630 CURVE",
"17 604 LINE",
"21 600 LINE",
"49 599 OFFCURVE",
"57 591 OFFCURVE",
"57 567 CURVE SMOOTH"
);
}
);
width = 230;
}
);
},
{
glyphname = u.sups;
lastChange = "2014-11-08 03:27:49 -0300";
layers = (
{
anchors = (
{
name = bottom;
position = "{273, 0}";
},
{
name = ogonek;
position = "{480, 41}";
},
{
name = top;
position = "{271, 472}";
}
);
layerId = "B954E078-309A-4CF1-B397-1A2EBEB3E29A";
name = Light;
paths = (
{
closed = 1;
nodes = (
"57 420 LINE",
"57 371 OFFCURVE",
"90 344 OFFCURVE",
"151 344 CURVE SMOOTH",
"162 344 OFFCURVE",
"194 365 OFFCURVE",
"230 395 CURVE",
"234 393 LINE",
"238 360 OFFCURVE",
"259 343 OFFCURVE",
"296 343 CURVE SMOOTH",
"323 348 OFFCURVE",
"358 401 OFFCURVE",
"358 401 CURVE",
"348 413 LINE",
"348 413 OFFCURVE",
"332 400 OFFCURVE",
"314 400 CURVE SMOOTH",
"299 400 OFFCURVE",
"290 410 OFFCURVE",
"290 427 CURVE SMOOTH",
"290 524 OFFCURVE",
"297 618 OFFCURVE",
"306 637 CURVE",
"301 646 LINE",
"301 646 OFFCURVE",
"242 634 OFFCURVE",
"191 627 CURVE",
"187 597 LINE",
"187 597 OFFCURVE",
"196 597 OFFCURVE",
"199 597 CURVE SMOOTH",
"222 597 OFFCURVE",
"229 590 OFFCURVE",
"229 565 CURVE SMOOTH",
"229 429 LINE",
"211 416 OFFCURVE",
"188 400 OFFCURVE",
"164 400 CURVE SMOOTH",
"134 400 OFFCURVE",
"119 418 OFFCURVE",
"119 456 CURVE SMOOTH",
"119 530 OFFCURVE",
"127 616 OFFCURVE",
"136 637 CURVE",
"131 647 LINE",
"131 647 OFFCURVE",
"73 634 OFFCURVE",
"26 627 CURVE",
"22 596 LINE",
"22 596 OFFCURVE",
"31 598 OFFCURVE",
"39 598 CURVE SMOOTH",
"54 598 OFFCURVE",
"61 587 OFFCURVE",
"61 566 CURVE SMOOTH"
);
}
);
width = 366;
}
);
},
{
glyphname = v.sups;
lastChange = "2014-11-08 03:27:49 -0300";
layers = (
{
anchors = (
{
name = bottom;
position = "{200, 0}";
},
{
name = top;
position = "{270, 474}";
}
);
layerId = "B954E078-309A-4CF1-B397-1A2EBEB3E29A";
name = Light;
paths = (
{
closed = 1;
nodes = (
"226 580 OFFCURVE",
"199 515 OFFCURVE",
"160 413 CURVE",
"155 413 LINE",
"155 413 OFFCURVE",
"109 577 OFFCURVE",
"109 595 CURVE SMOOTH",
"109 606 OFFCURVE",
"115 609 OFFCURVE",
"143 611 CURVE",
"148 640 LINE",
"146 644 LINE",
"146 644 OFFCURVE",
"104 639 OFFCURVE",
"64 639 CURVE SMOOTH",
"46 639 OFFCURVE",
"6 640 OFFCURVE",
"6 640 CURVE",
"2 610 LINE",
"3 608 LINE",
"24 607 OFFCURVE",
"38 597 OFFCURVE",
"45 576 CURVE SMOOTH",
"62 526 OFFCURVE",
"117 341 OFFCURVE",
"117 341 CURVE",
"178 351 LINE",
"264 567 LINE",
"278 598 OFFCURVE",
"283 605 OFFCURVE",
"302 608 CURVE",
"307 640 LINE",
"307 640 OFFCURVE",
"275 639 OFFCURVE",
"251 639 CURVE SMOOTH",
"221 639 OFFCURVE",
"183 640 OFFCURVE",
"183 640 CURVE",
"179 611 LINE",
"181 607 LINE",
"202 607 LINE",
"220 607 OFFCURVE",
"226 604 OFFCURVE",
"226 594 CURVE SMOOTH"
);
}
);
width = 311;
}
);
},
{
glyphname = w.sups;
lastChange = "2014-11-08 03:27:49 -0300";
layers = (
{
anchors = (
{
name = bottom;
position = "{345, 0}";
},
{
name = top;
position = "{394, 472}";
}
);
layerId = "B954E078-309A-4CF1-B397-1A2EBEB3E29A";
name = Light;
paths = (
{
closed = 1;
nodes = (
"394 580 OFFCURVE",
"369 515 OFFCURVE",
"330 413 CURVE",
"325 413 LINE",
"325 413 OFFCURVE",
"281 577 OFFCURVE",
"281 595 CURVE SMOOTH",
"281 606 OFFCURVE",
"286 608 OFFCURVE",
"314 610 CURVE",
"319 640 LINE",
"317 643 LINE",
"317 643 OFFCURVE",
"277 639 OFFCURVE",
"237 639 CURVE SMOOTH",
"219 639 OFFCURVE",
"182 640 OFFCURVE",
"182 640 CURVE",
"177 610 LINE",
"178 607 LINE",
"203 607 OFFCURVE",
"212 597 OFFCURVE",
"218 575 CURVE",
"210 550 OFFCURVE",
"183 473 OFFCURVE",
"159 413 CURVE",
"154 413 LINE",
"154 413 OFFCURVE",
"110 576 OFFCURVE",
"110 595 CURVE SMOOTH",
"110 606 OFFCURVE",
"116 609 OFFCURVE",
"143 611 CURVE",
"148 640 LINE",
"146 644 LINE",
"146 644 OFFCURVE",
"105 639 OFFCURVE",
"65 639 CURVE SMOOTH",
"47 639 OFFCURVE",
"9 640 OFFCURVE",
"9 640 CURVE",
"5 610 LINE",
"6 608 LINE",
"27 607 OFFCURVE",
"40 597 OFFCURVE",
"47 576 CURVE SMOOTH",
"63 526 OFFCURVE",
"117 341 OFFCURVE",
"117 341 CURVE",
"178 351 LINE",
"236 510 LINE",
"242 510 LINE",
"261 444 OFFCURVE",
"288 352 OFFCURVE",
"289 341 CURVE",
"349 351 LINE",
"433 567 LINE SMOOTH",
"446 598 OFFCURVE",
"452 606 OFFCURVE",
"470 608 CURVE",
"475 640 LINE",
"475 640 OFFCURVE",
"442 639 OFFCURVE",
"419 639 CURVE SMOOTH",
"389 639 OFFCURVE",
"353 640 OFFCURVE",
"353 640 CURVE",
"349 612 LINE",
"351 608 LINE",
"372 608 LINE SMOOTH",
"389 608 OFFCURVE",
"394 604 OFFCURVE",
"394 594 CURVE SMOOTH"
);
}
);
width = 481;
}
);
},
{
glyphname = x.sups;
lastChange = "2014-11-08 03:27:49 -0300";
layers = (
{
anchors = (
{
name = bottom;
position = "{182, 0}";
},
{
name = top;
position = "{199, 463}";
}
);
layerId = "B954E078-309A-4CF1-B397-1A2EBEB3E29A";
name = Light;
paths = (
{
closed = 1;
nodes = (
"227 351 OFFCURVE",
"170 347 OFFCURVE",
"170 347 CURVE",
"169 351 LINE",
"173 377 LINE",
"192 377 OFFCURVE",
"200 381 OFFCURVE",
"200 389 CURVE SMOOTH",
"200 394 OFFCURVE",
"197 400 OFFCURVE",
"191 409 CURVE SMOOTH",
"149 466 LINE",
"128 441 OFFCURVE",
"94 401 OFFCURVE",
"94 390 CURVE SMOOTH",
"94 382 OFFCURVE",
"100 379 OFFCURVE",
"120 378 CURVE",
"121 375 LINE",
"117 348 LINE",
"117 348 OFFCURVE",
"73 351 OFFCURVE",
"59 351 CURVE SMOOTH",
"39 351 OFFCURVE",
"14 349 OFFCURVE",
"14 349 CURVE",
"12 353 LINE",
"16 379 LINE",
"36 389 OFFCURVE",
"46 401 OFFCURVE",
"74 434 CURVE SMOOTH",
"127 495 LINE",
"82 558 LINE SMOOTH",
"56 594 OFFCURVE",
"43 603 OFFCURVE",
"14 608 CURVE",
"13 611 LINE",
"17 640 LINE",
"17 640 OFFCURVE",
"57 639 OFFCURVE",
"87 639 CURVE SMOOTH",
"125 639 OFFCURVE",
"160 642 OFFCURVE",
"160 642 CURVE",
"162 638 LINE",
"158 611 LINE",
"139 611 OFFCURVE",
"131 608 OFFCURVE",
"131 599 CURVE SMOOTH",
"131 590 OFFCURVE",
"138 582 OFFCURVE",
"146 570 CURVE SMOOTH",
"176 528 LINE",
"210 571 LINE SMOOTH",
"220 584 OFFCURVE",
"228 592 OFFCURVE",
"228 601 CURVE SMOOTH",
"228 607 OFFCURVE",
"223 609 OFFCURVE",
"203 609 CURVE",
"202 612 LINE",
"205 639 LINE",
"258 639 LINE SMOOTH",
"278 639 OFFCURVE",
"308 641 OFFCURVE",
"308 641 CURVE",
"310 638 LINE",
"306 610 LINE",
"290 602 OFFCURVE",
"271 585 OFFCURVE",
"252 563 CURVE SMOOTH",
"199 498 LINE",
"252 426 LINE SMOOTH",
"274 396 OFFCURVE",
"291 383 OFFCURVE",
"316 380 CURVE",
"317 378 LINE",
"313 350 LINE",
"313 350 OFFCURVE",
"272 351 OFFCURVE",
"252 351 CURVE SMOOTH"
);
}
);
width = 329;
}
);
},
{
glyphname = y.sups;
lastChange = "2014-11-08 03:27:49 -0300";
layers = (
{
anchors = (
{
name = bottom;
position = "{239, 0}";
},
{
name = top;
position = "{267, 472}";
}
);
layerId = "B954E078-309A-4CF1-B397-1A2EBEB3E29A";
name = Light;
paths = (
{
closed = 1;
nodes = (
"158 423 LINE",
"158 423 OFFCURVE",
"108 574 OFFCURVE",
"108 595 CURVE SMOOTH",
"108 606 OFFCURVE",
"115 610 OFFCURVE",
"142 611 CURVE",
"147 640 LINE",
"145 644 LINE",
"145 643 OFFCURVE",
"98 639 OFFCURVE",
"57 639 CURVE SMOOTH",
"42 639 OFFCURVE",
"10 640 OFFCURVE",
"6 640 CURVE",
"2 610 LINE",
"3 607 LINE",
"22 607 OFFCURVE",
"33 599 OFFCURVE",
"44 579 CURVE",
"66 526 OFFCURVE",
"109 410 OFFCURVE",
"130 347 CURVE",
"101 288 OFFCURVE",
"55 253 OFFCURVE",
"3 250 CURVE",
"-1 244 LINE",
"-1 233 OFFCURVE",
"28 199 OFFCURVE",
"38 199 CURVE SMOOTH",
"95 198 OFFCURVE",
"128 244 OFFCURVE",
"188 382 CURVE",
"270 575 LINE",
"278 597 OFFCURVE",
"285 604 OFFCURVE",
"304 608 CURVE",
"309 640 LINE",
"303 640 OFFCURVE",
"274 639 OFFCURVE",
"252 639 CURVE SMOOTH",
"221 639 OFFCURVE",
"185 641 OFFCURVE",
"185 641 CURVE",
"181 612 LINE",
"182 609 LINE",
"207 609 LINE SMOOTH",
"222 609 OFFCURVE",
"228 605 OFFCURVE",
"228 594 CURVE SMOOTH",
"228 583 OFFCURVE",
"190 490 OFFCURVE",
"162 423 CURVE"
);
}
);
width = 310;
}
);
},
{
glyphname = z.sups;
lastChange = "2014-11-08 03:27:49 -0300";
layers = (
{
anchors = (
{
name = bottom;
position = "{210, 0}";
},
{
name = top;
position = "{245, 472}";
}
);
layerId = "B954E078-309A-4CF1-B397-1A2EBEB3E29A";
name = Light;
paths = (
{
closed = 1;
nodes = (
"35 349 LINE",
"70 352 LINE",
"256 348 LINE",
"266 358 LINE",
"266 404 OFFCURVE",
"277 467 OFFCURVE",
"277 467 CURVE",
"247 464 LINE",
"239 413 OFFCURVE",
"222 392 OFFCURVE",
"186 389 CURVE SMOOTH",
"107 383 LINE",
"128 415 OFFCURVE",
"197 515 OFFCURVE",
"280 621 CURVE",
"274 638 LINE",
"131 640 LINE",
"49 645 LINE",
"45 641 LINE",
"44 600 OFFCURVE",
"38 542 OFFCURVE",
"38 542 CURVE",
"67 546 LINE",
"71 588 OFFCURVE",
"82 599 OFFCURVE",
"126 602 CURVE",
"193 606 LINE",
"26 368 LINE"
);
}
);
width = 311;
}
);
},
{
glyphname = f.t;
lastChange = "2014-11-08 03:27:49 -0300";
layers = (
{
anchors = (
{
name = bottom;
position = "{157, 0}";
},
{
name = top;
position = "{265, 749}";
}
);
layerId = "B954E078-309A-4CF1-B397-1A2EBEB3E29A";
name = Light;
paths = (
{
closed = 1;
nodes = (
"45 405 LINE",
"88 403 OFFCURVE",
"106 397 OFFCURVE",
"108 362 CURVE",
"108 124 LINE SMOOTH",
"108 66 OFFCURVE",
"102 42 OFFCURVE",
"51 35 CURVE",
"46 -4 LINE",
"46 -3 OFFCURVE",
"125 0 OFFCURVE",
"191 0 CURVE SMOOTH",
"228 0 OFFCURVE",
"272 -3 OFFCURVE",
"272 -2 CURVE",
"279 41 LINE",
"277 45 LINE",
"277 45 OFFCURVE",
"255 43 OFFCURVE",
"227 43 CURVE SMOOTH",
"187 43 OFFCURVE",
"176 66 OFFCURVE",
"176 98 CURVE SMOOTH",
"176 199 OFFCURVE",
"180 299 OFFCURVE",
"180 400 CURVE",
"386 400 LINE",
"423 398 LINE",
"432 443 LINE",
"427 451 LINE",
"371 449 LINE",
"181 449 LINE",
"181 588 OFFCURVE",
"198 683 OFFCURVE",
"297 683 CURVE SMOOTH",
"362 683 OFFCURVE",
"412 646 OFFCURVE",
"412 646 CURVE",
"423 649 LINE",
"438 686 OFFCURVE",
"454 714 OFFCURVE",
"454 714 CURVE",
"452 723 LINE",
"452 723 OFFCURVE",
"406 742 OFFCURVE",
"338 742 CURVE SMOOTH",
"211 742 OFFCURVE",
"108 648 OFFCURVE",
"108 456 CURVE",
"48 445 LINE",
"41 411 LINE"
);
}
);
width = 320;
}
);
leftKerningGroup = f;
},
{
glyphname = fi;
lastChange = "2014-11-08 03:27:49 -0300";
layers = (
{
layerId = "B954E078-309A-4CF1-B397-1A2EBEB3E29A";
name = Light;
paths = (
{
closed = 1;
nodes = (
"182 498 LINE SMOOTH",
"183 623 OFFCURVE",
"225 683 OFFCURVE",
"309 683 CURVE SMOOTH",
"389 683 OFFCURVE",
"449 621 OFFCURVE",
"449 621 CURVE",
"460 624 LINE",
"475 667 OFFCURVE",
"491 699 OFFCURVE",
"491 699 CURVE",
"489 708 LINE",
"436 733 OFFCURVE",
"402 742 OFFCURVE",
"356 742 CURVE SMOOTH",
"203 742 OFFCURVE",
"108 632 OFFCURVE",
"108 456 CURVE",
"48 445 LINE",
"41 411 LINE",
"45 405 LINE",
"93 403 OFFCURVE",
"106 394 OFFCURVE",
"108 362 CURVE",
"108 127 LINE SMOOTH",
"108 58 OFFCURVE",
"97 41 OFFCURVE",
"51 35 CURVE",
"46 -4 LINE",
"46 -4 OFFCURVE",
"102 0 OFFCURVE",
"158 0 CURVE SMOOTH",
"197 0 OFFCURVE",
"282 -2 OFFCURVE",
"282 -2 CURVE",
"289 40 LINE",
"287 44 LINE",
"287 44 OFFCURVE",
"263 43 OFFCURVE",
"225 43 CURVE SMOOTH",
"193 43 OFFCURVE",
"176 62 OFFCURVE",
"176 98 CURVE SMOOTH",
"176 199 OFFCURVE",
"180 301 OFFCURVE",
"180 402 CURVE",
"340 402 LINE SMOOTH",
"399 402 OFFCURVE",
"409 394 OFFCURVE",
"409 348 CURVE SMOOTH",
"409 130 LINE SMOOTH",
"409 56 OFFCURVE",
"401 42 OFFCURVE",
"353 29 CURVE",
"349 -12 LINE",
"349 -12 OFFCURVE",
"410 0 OFFCURVE",
"452 0 CURVE SMOOTH",
"489 0 OFFCURVE",
"541 -3 OFFCURVE",
"541 -3 CURVE",
"549 40 LINE",
"547 44 LINE",
"547 44 OFFCURVE",
"524 42 OFFCURVE",
"512 42 CURVE SMOOTH",
"487 42 OFFCURVE",
"477 58 OFFCURVE",
"477 98 CURVE SMOOTH",
"477 254 OFFCURVE",
"488 424 OFFCURVE",
"500 452 CURVE",
"495 464 LINE",
"451 453 OFFCURVE",
"424 452 OFFCURVE",
"181 452 CURVE"
);
}
);
width = 587;
}
);
leftKerningGroup = f;
unicode = FB01;
},
{
glyphname = fj;
lastChange = "2014-11-08 03:27:49 -0300";
layers = (
{
layerId = "B954E078-309A-4CF1-B397-1A2EBEB3E29A";
name = Light;
paths = (
{
closed = 1;
nodes = (
"490 464 LINE",
"442 452 OFFCURVE",
"401 452 OFFCURVE",
"181 452 CURVE",
"181 589 OFFCURVE",
"202 683 OFFCURVE",
"309 683 CURVE SMOOTH",
"389 683 OFFCURVE",
"449 621 OFFCURVE",
"449 621 CURVE",
"460 624 LINE",
"475 667 OFFCURVE",
"491 699 OFFCURVE",
"491 699 CURVE",
"489 708 LINE",
"489 708 OFFCURVE",
"433 742 OFFCURVE",
"350 742 CURVE SMOOTH",
"335 742 OFFCURVE",
"321 741 OFFCURVE",
"307 739 CURVE SMOOTH",
"196 721 OFFCURVE",
"108 625 OFFCURVE",
"108 456 CURVE",
"48 445 LINE",
"41 411 LINE",
"45 405 LINE",
"88 403 OFFCURVE",
"106 397 OFFCURVE",
"108 362 CURVE",
"108 94 LINE SMOOTH",
"108 58 OFFCURVE",
"87 40 OFFCURVE",
"51 35 CURVE",
"46 -4 LINE",
"46 -4 OFFCURVE",
"102 0 OFFCURVE",
"158 0 CURVE SMOOTH",
"197 0 OFFCURVE",
"282 -2 OFFCURVE",
"282 -2 CURVE",
"289 40 LINE",
"287 44 LINE",
"287 44 OFFCURVE",
"263 43 OFFCURVE",
"225 43 CURVE SMOOTH",
"190 43 OFFCURVE",
"176 64 OFFCURVE",
"176 98 CURVE SMOOTH",
"176 199 OFFCURVE",
"180 301 OFFCURVE",
"180 402 CURVE",
"324 402 LINE SMOOTH",
"395 402 OFFCURVE",
"409 406 OFFCURVE",
"409 348 CURVE SMOOTH",
"409 38 LINE SMOOTH",
"409 -103 OFFCURVE",
"390 -159 OFFCURVE",
"335 -214 CURVE",
"333 -222 LINE",
"351 -241 LINE",
"434 -190 OFFCURVE",
"478 -108 OFFCURVE",
"478 -14 CURVE SMOOTH",
"478 115 OFFCURVE",
"478 423 OFFCURVE",
"495 452 CURVE"
);
}
);
width = 568;
}
);
leftKerningGroup = f;
},
{
glyphname = fl;
lastChange = "2014-11-08 03:27:49 -0300";
layers = (
{
layerId = "B954E078-309A-4CF1-B397-1A2EBEB3E29A";
name = Light;
paths = (
{
closed = 1;
nodes = (
"180 399 LINE",
"250 399 OFFCURVE",
"312 396 OFFCURVE",
"312 396 CURVE",
"322 449 LINE",
"319 452 LINE",
"319 452 OFFCURVE",
"252 449 OFFCURVE",
"181 449 CURVE",
"182 498 LINE SMOOTH",
"183 622 OFFCURVE",
"220 683 OFFCURVE",
"293 683 CURVE SMOOTH",
"332 683 OFFCURVE",
"384 665 OFFCURVE",
"416 640 CURVE",
"417 626 LINE",
"417 94 LINE SMOOTH",
"417 59 OFFCURVE",
"401 40 OFFCURVE",
"361 29 CURVE",
"357 -12 LINE",
"357 -12 OFFCURVE",
"418 0 OFFCURVE",
"460 0 CURVE SMOOTH",
"497 0 OFFCURVE",
"549 -3 OFFCURVE",
"549 -3 CURVE",
"557 40 LINE",
"555 44 LINE",
"555 44 OFFCURVE",
"532 42 OFFCURVE",
"520 42 CURVE SMOOTH",
"495 42 OFFCURVE",
"485 58 OFFCURVE",
"485 98 CURVE SMOOTH",
"485 393 OFFCURVE",
"499 707 OFFCURVE",
"513 729 CURVE",
"507 742 LINE",
"507 742 OFFCURVE",
"475 733 OFFCURVE",
"433 725 CURVE",
"403 736 OFFCURVE",
"367 742 OFFCURVE",
"334 742 CURVE SMOOTH",
"196 742 OFFCURVE",
"109 633 OFFCURVE",
"108 460 CURVE SMOOTH",
"108 456 LINE",
"48 445 LINE",
"41 411 LINE",
"45 405 LINE",
"95 403 OFFCURVE",
"106 395 OFFCURVE",
"108 364 CURVE",
"108 94 LINE",
"108 60 OFFCURVE",
"89 40 OFFCURVE",
"51 35 CURVE",
"46 -4 LINE",
"46 -4 OFFCURVE",
"102 0 OFFCURVE",
"158 0 CURVE SMOOTH",
"197 0 OFFCURVE",
"282 -2 OFFCURVE",
"282 -2 CURVE",
"289 41 LINE",
"287 45 LINE",
"287 45 OFFCURVE",
"261 43 OFFCURVE",
"227 43 CURVE SMOOTH",
"192 43 OFFCURVE",
"176 60 OFFCURVE",
"176 98 CURVE SMOOTH"
);
}
);
width = 574;
}
);
leftKerningGroup = f;
unicode = FB02;
},
{
glyphname = ordfeminine;
lastChange = "2014-11-08 03:27:49 -0300";
layers = (
{
anchors = (
{
name = bottom;
position = "{229, 0}";
},
{
name = ogonek;
position = "{420, 41}";
},
{
name = top;
position = "{235, 474}";
}
);
layerId = "B954E078-309A-4CF1-B397-1A2EBEB3E29A";
name = Light;
paths = (
{
closed = 1;
nodes = (
"188 514 LINE",
"66 484 LINE SMOOTH",
"44 478 OFFCURVE",
"30 457 OFFCURVE",
"30 432 CURVE SMOOTH",
"30 383 OFFCURVE",
"67 346 OFFCURVE",
"115 346 CURVE SMOOTH",
"130 346 OFFCURVE",
"158 367 OFFCURVE",
"186 394 CURVE",
"190 393 LINE",
"193 360 OFFCURVE",
"214 343 OFFCURVE",
"251 343 CURVE",
"282 353 OFFCURVE",
"310 401 OFFCURVE",
"310 401 CURVE",
"301 413 LINE",
"301 413 OFFCURVE",
"284 400 OFFCURVE",
"266 400 CURVE SMOOTH",
"251 400 OFFCURVE",
"242 410 OFFCURVE",
"242 427 CURVE SMOOTH",
"242 459 OFFCURVE",
"254 541 OFFCURVE",
"254 563 CURVE SMOOTH",
"254 612 OFFCURVE",
"222 647 OFFCURVE",
"155 647 CURVE SMOOTH",
"126 647 OFFCURVE",
"44 600 OFFCURVE",
"44 600 CURVE",
"53 567 LINE",
"58 565 LINE",
"58 565 OFFCURVE",
"94 595 OFFCURVE",
"134 595 CURVE SMOOTH",
"169 595 OFFCURVE",
"189 572 OFFCURVE",
"189 534 CURVE"
);
},
{
closed = 1;
nodes = (
"185 422 LINE",
"169 409 OFFCURVE",
"148 399 OFFCURVE",
"134 399 CURVE SMOOTH",
"111 399 OFFCURVE",
"94 416 OFFCURVE",
"94 439 CURVE SMOOTH",
"94 451 OFFCURVE",
"100 459 OFFCURVE",
"111 462 CURVE SMOOTH",
"187 484 LINE"
);
}
);
width = 321;
}
);
unicode = 00AA;
},
{
glyphname = ordmasculine;
lastChange = "2014-11-08 03:27:49 -0300";
layers = (
{
anchors = (
{
name = bottom;
position = "{259, 0}";
},
{
name = top;
position = "{263, 472}";
}
);
layerId = "B954E078-309A-4CF1-B397-1A2EBEB3E29A";
name = Light;
paths = (
{
closed = 1;
nodes = (
"247 343 OFFCURVE",
"310 411 OFFCURVE",
"310 504 CURVE SMOOTH",
"310 591 OFFCURVE",
"259 647 OFFCURVE",
"180 647 CURVE SMOOTH",
"92 647 OFFCURVE",
"28 579 OFFCURVE",
"28 486 CURVE SMOOTH",
"28 401 OFFCURVE",
"80 343 OFFCURVE",
"159 343 CURVE SMOOTH"
);
},
{
closed = 1;
nodes = (
"127 384 OFFCURVE",
"98 429 OFFCURVE",
"98 507 CURVE SMOOTH",
"98 567 OFFCURVE",
"122 601 OFFCURVE",
"163 601 CURVE SMOOTH",
"210 601 OFFCURVE",
"239 556 OFFCURVE",
"239 478 CURVE SMOOTH",
"239 418 OFFCURVE",
"215 384 OFFCURVE",
"174 384 CURVE SMOOTH"
);
}
);
width = 338;
}
);
unicode = 00BA;
},
{
glyphname = Delta;
lastChange = "2014-11-08 03:27:49 -0300";
layers = (
{
layerId = "B954E078-309A-4CF1-B397-1A2EBEB3E29A";
name = Light;
paths = (
{
closed = 1;
nodes = (
"17 0 LINE",
"499 0 LINE",
"506 7 LINE",
"431 232 OFFCURVE",
"316 649 OFFCURVE",
"316 649 CURVE",
"308 649 LINE",
"245 632 LINE",
"8 13 LINE"
);
},
{
closed = 1;
nodes = (
"266 540 LINE",
"410 57 LINE",
"83 57 LINE",
"259 540 LINE"
);
}
);
width = 538;
}
);
unicode = 0394;
},
{
glyphname = Omega;
lastChange = "2014-11-08 03:27:49 -0300";
layers = (
{
anchors = (
{
name = topleft;
position = "{20, 647}";
}
);
layerId = "B954E078-309A-4CF1-B397-1A2EBEB3E29A";
name = Light;
paths = (
{
closed = 1;
nodes = (
"783 10 LINE",
"784 82 OFFCURVE",
"804 174 OFFCURVE",
"804 174 CURVE",
"764 169 LINE",
"749 81 OFFCURVE",
"726 56 OFFCURVE",
"662 56 CURVE",
"555 56 LINE",
"660 128 OFFCURVE",
"726 247 OFFCURVE",
"726 369 CURVE SMOOTH",
"726 534 OFFCURVE",
"606 649 OFFCURVE",
"434 649 CURVE SMOOTH",
"256 649 OFFCURVE",
"114 518 OFFCURVE",
"114 353 CURVE SMOOTH",
"114 244 OFFCURVE",
"175 134 OFFCURVE",
"274 56 CURVE",
"182 56 LINE",
"117 56 OFFCURVE",
"94 83 OFFCURVE",
"80 174 CURVE",
"42 169 LINE",
"42 169 OFFCURVE",
"59 82 OFFCURVE",
"61 10 CURVE",
"77 -6 LINE",
"321 8 LINE",
"362 1 LINE",
"369 24 LINE",
"264 105 OFFCURVE",
"200 233 OFFCURVE",
"200 360 CURVE SMOOTH",
"200 497 OFFCURVE",
"290 589 OFFCURVE",
"422 589 CURVE SMOOTH",
"550 589 OFFCURVE",
"637 488 OFFCURVE",
"637 341 CURVE SMOOTH",
"637 220 OFFCURVE",
"588 129 OFFCURVE",
"465 23 CURVE",
"472 2 LINE",
"513 8 LINE",
"767 -6 LINE"
);
}
);
width = 849;
}
);
unicode = 03A9;
},
{
glyphname = mu;
lastChange = "2014-11-08 03:27:49 -0300";
layers = (
{
layerId = "B954E078-309A-4CF1-B397-1A2EBEB3E29A";
name = Light;
paths = (
{
closed = 1;
nodes = (
"67 438 LINE",
"67 438 OFFCURVE",
"75 380 OFFCURVE",
"74 328 CURVE SMOOTH",
"68 73 LINE SMOOTH",
"64 -88 OFFCURVE",
"53 -230 OFFCURVE",
"53 -230 CURVE",
"60 -242 LINE",
"126 -227 LINE",
"131 -220 LINE",
"131 -220 OFFCURVE",
"121 -129 OFFCURVE",
"123 -78 CURVE SMOOTH",
"123 -68 OFFCURVE",
"124 -58 OFFCURVE",
"124 -48 CURVE SMOOTH",
"127 11 LINE",
"132 14 LINE",
"151 -1 OFFCURVE",
"175 -12 OFFCURVE",
"207 -12 CURVE",
"250 -3 OFFCURVE",
"310 45 OFFCURVE",
"336 67 CURVE",
"342 65 LINE",
"345 14 OFFCURVE",
"379 -12 OFFCURVE",
"431 -12 CURVE SMOOTH",
"465 -12 OFFCURVE",
"518 68 OFFCURVE",
"518 68 CURVE",
"504 84 LINE",
"504 84 OFFCURVE",
"476 59 OFFCURVE",
"444 59 CURVE SMOOTH",
"418 59 OFFCURVE",
"403 76 OFFCURVE",
"403 105 CURVE SMOOTH",
"403 267 OFFCURVE",
"413 422 OFFCURVE",
"425 452 CURVE",
"419 464 LINE",
"390 458 OFFCURVE",
"362 452 OFFCURVE",
"333 446 CURVE",
"328 439 LINE",
"328 439 OFFCURVE",
"335 380 OFFCURVE",
"335 346 CURVE SMOOTH",
"335 113 LINE",
"335 113 OFFCURVE",
"276 57 OFFCURVE",
"223 57 CURVE SMOOTH",
"163 57 OFFCURVE",
"139 93 OFFCURVE",
"139 155 CURVE SMOOTH",
"139 288 OFFCURVE",
"154 422 OFFCURVE",
"165 452 CURVE",
"159 464 LINE",
"130 458 OFFCURVE",
"101 451 OFFCURVE",
"72 445 CURVE"
);
}
);
width = 520;
}
);
unicode = 03BC;
},
{
glyphname = pi;
lastChange = "2014-11-08 03:27:49 -0300";
layers = (
{
layerId = "B954E078-309A-4CF1-B397-1A2EBEB3E29A";
name = Light;
paths = (
{
closed = 1;
nodes = (
"431 192 OFFCURVE",
"438 270 OFFCURVE",
"447 390 CURVE SMOOTH",
"450 436 OFFCURVE",
"468 445 OFFCURVE",
"557 445 CURVE",
"564 452 LINE",
"574 498 LINE",
"568 505 LINE",
"568 505 OFFCURVE",
"481 495 OFFCURVE",
"423 495 CURVE SMOOTH",
"364 495 OFFCURVE",
"193 505 OFFCURVE",
"79 505 CURVE",
"64 498 LINE",
"4 400 LINE",
"5 393 LINE",
"31 375 LINE",
"38 376 LINE",
"38 376 OFFCURVE",
"67 442 OFFCURVE",
"98 442 CURVE SMOOTH",
"132 442 OFFCURVE",
"140 431 OFFCURVE",
"140 386 CURVE SMOOTH",
"140 207 OFFCURVE",
"129 -74 OFFCURVE",
"122 -90 CURVE",
"128 -102 LINE",
"200 -86 LINE",
"205 -79 LINE",
"205 -79 OFFCURVE",
"201 -26 OFFCURVE",
"201 22 CURVE SMOOTH",
"201 102 OFFCURVE",
"208 310 OFFCURVE",
"213 392 CURVE SMOOTH",
"216 438 OFFCURVE",
"222 442 OFFCURVE",
"288 442 CURVE SMOOTH",
"368 442 OFFCURVE",
"373 439 OFFCURVE",
"373 388 CURVE SMOOTH",
"368 119 LINE",
"368 29 OFFCURVE",
"404 -12 OFFCURVE",
"485 -12 CURVE SMOOTH",
"493 -12 OFFCURVE",
"529 34 OFFCURVE",
"529 45 CURVE",
"524 52 LINE",
"458 52 OFFCURVE",
"431 82 OFFCURVE",
"431 153 CURVE SMOOTH"
);
}
);
width = 600;
}
);
unicode = 03C0;
},
{
glyphname = "ka-deva";
lastChange = "2014-11-08 03:27:49 -0300";
layers = (
{
anchors = (
{
name = nukta;
position = "{177, 0}";
}
);
components = (
{
name = "aaMatra-deva";
transform = "{1, 0, 0, 1, 250, 0}";
}
);
layerId = "B954E078-309A-4CF1-B397-1A2EBEB3E29A";
name = Light;
paths = (
{
closed = 1;
nodes = (
"459 384 OFFCURVE",
"415 352 OFFCURVE",
"380 314 CURVE",
"380 205 LINE",
"428 265 OFFCURVE",
"476 334 OFFCURVE",
"568 334 CURVE SMOOTH",
"613 334 OFFCURVE",
"633 318 OFFCURVE",
"633 272 CURVE SMOOTH",
"633 210 OFFCURVE",
"597 146 OFFCURVE",
"529 100 CURVE",
"528 88 LINE",
"569 43 LINE",
"577 42 LINE",
"645 85 OFFCURVE",
"692 148 OFFCURVE",
"692 225 CURVE SMOOTH",
"692 317 OFFCURVE",
"624 384 OFFCURVE",
"526 384 CURVE SMOOTH"
);
},
{
closed = 1;
nodes = (
"120 455 OFFCURVE",
"50 411 OFFCURVE",
"50 318 CURVE SMOOTH",
"50 202 OFFCURVE",
"158 121 OFFCURVE",
"243 121 CURVE SMOOTH",
"307 121 OFFCURVE",
"346 165 OFFCURVE",
"404 237 CURVE",
"364 298 LINE",
"313 238 OFFCURVE",
"274 174 OFFCURVE",
"199 174 CURVE SMOOTH",
"137 174 OFFCURVE",
"109 216 OFFCURVE",
"109 276 CURVE SMOOTH",
"109 360 OFFCURVE",
"164 403 OFFCURVE",
"231 403 CURVE SMOOTH",
"285 403 OFFCURVE",
"328 375 OFFCURVE",
"364 334 CURVE",
"381 352 LINE",
"319 420 OFFCURVE",
"258 455 OFFCURVE",
"193 455 CURVE SMOOTH"
);
},
{
closed = 1;
nodes = (
"-15 576 LINE",
"-20 569 LINE",
"-15 552 OFFCURVE",
"-10 539 OFFCURVE",
"-1 525 CURVE",
"759 525 LINE",
"763 533 LINE",
"746 571 LINE",
"741 576 LINE"
);
}
);
width = 743;
}
);
unicode = 0915;
},
{
glyphname = "gha-deva";
lastChange = "2014-11-08 03:27:49 -0300";
layers = (
{
components = (
{
name = "aaMatra-deva";
transform = "{1, 0, 0, 1, 329, 0}";
}
);
layerId = "B954E078-309A-4CF1-B397-1A2EBEB3E29A";
name = Light;
paths = (
{
closed = 1;
nodes = (
"145 355 OFFCURVE",
"91 314 OFFCURVE",
"91 248 CURVE SMOOTH",
"91 165 OFFCURVE",
"184 88 OFFCURVE",
"286 88 CURVE SMOOTH",
"326 88 OFFCURVE",
"354 102 OFFCURVE",
"424 153 CURVE",
"446 145 LINE",
"446 390 LINE",
"414 233 OFFCURVE",
"340 143 OFFCURVE",
"244 143 CURVE SMOOTH",
"187 143 OFFCURVE",
"148 174 OFFCURVE",
"148 219 CURVE SMOOTH",
"148 269 OFFCURVE",
"200 306 OFFCURVE",
"306 330 CURVE",
"308 338 LINE",
"282 388 LINE",
"276 390 LINE"
);
},
{
closed = 1;
nodes = (
"94 563 OFFCURVE",
"45 529 OFFCURVE",
"45 472 CURVE SMOOTH",
"45 405 OFFCURVE",
"107 333 OFFCURVE",
"191 303 CURVE",
"201 342 LINE",
"143 356 OFFCURVE",
"107 393 OFFCURVE",
"107 438 CURVE SMOOTH",
"107 488 OFFCURVE",
"151 525 OFFCURVE",
"211 525 CURVE",
"179 564 LINE"
);
},
{
closed = 1;
nodes = (
"-15 576 LINE",
"-20 569 LINE",
"-14 549 OFFCURVE",
"-9 538 OFFCURVE",
"-1 525 CURVE",
"610 525 LINE",
"613 533 LINE",
"596 571 LINE",
"591 576 LINE"
);
}
);
width = 593;
}
);
unicode = 0918;
},
{
glyphname = "nga-deva";
lastChange = "2014-11-08 03:27:49 -0300";
layers = (
{
components = (
{
name = "dda-deva";
transform = "{1, 0, 0, 1, 0, 0}";
},
{
name = "anusvara-deva";
transform = "{1, 0, 0, 1, 647, -430}";
}
);
layerId = "B954E078-309A-4CF1-B397-1A2EBEB3E29A";
name = Light;
paths = (
{
closed = 1;
nodes = (
"-15 576 LINE",
"-20 569 LINE",
"-15 552 OFFCURVE",
"-10 539 OFFCURVE",
"-1 525 CURVE",
"581 525 LINE",
"584 533 LINE",
"567 571 LINE",
"562 576 LINE"
);
}
);
width = 564;
}
);
unicode = 0919;
},
{
glyphname = "ca-deva";
lastChange = "2014-11-08 03:27:49 -0300";
layers = (
{
anchors = (
{
name = bottom;
position = "{470, 0}";
},
{
name = top;
position = "{476, 452}";
}
);
components = (
{
name = "c-deva";
transform = "{1, 0, 0, 1, 0, 0}";
}
);
layerId = "B954E078-309A-4CF1-B397-1A2EBEB3E29A";
name = Light;
paths = (
{
closed = 1;
nodes = (
"444 429 OFFCURVE",
"447 343 OFFCURVE",
"447 291 CURVE SMOOTH",
"447 231 OFFCURVE",
"443 159 OFFCURVE",
"436 0 CURVE",
"491 -34 LINE",
"507 -27 LINE",
"503 198 LINE SMOOTH",
"503 276 OFFCURVE",
"508 388 OFFCURVE",
"513 474 CURVE SMOOTH",
"515 511 OFFCURVE",
"530 525 OFFCURVE",
"563 525 CURVE",
"441 533 LINE"
);
},
{
closed = 1;
nodes = (
"-15 576 LINE",
"-20 569 LINE",
"-15 552 OFFCURVE",
"-10 539 OFFCURVE",
"-1 525 CURVE",
"625 525 LINE",
"628 533 LINE",
"611 571 LINE",
"606 576 LINE"
);
}
);
width = 608;
}
);
unicode = 091A;
},
{
glyphname = "cha-deva";
lastChange = "2014-11-08 03:27:49 -0300";
layers = (
{
anchors = (
{
name = bottom;
position = "{347, -50}";
},
{
name = top;
position = "{489, 452}";
}
);
components = (
{
name = "ch-deva";
transform = "{1, 0, 0, 1, 0, 0}";
}
);
layerId = "B954E078-309A-4CF1-B397-1A2EBEB3E29A";
name = Light;
paths = (
{
closed = 1;
nodes = (
"458 427 LINE",
"522 427 LINE",
"524 491 LINE SMOOTH",
"525 517 OFFCURVE",
"533 525 OFFCURVE",
"560 525 CURVE",
"456 533 LINE"
);
}
);
width = 693;
}
);
unicode = 091B;
},
{
glyphname = "tta-deva";
lastChange = "2014-11-08 03:27:49 -0300";
layers = (
{
anchors = (
{
name = bottom;
position = "{244, 0}";
},
{
name = top;
position = "{355, 452}";
}
);
layerId = "B954E078-309A-4CF1-B397-1A2EBEB3E29A";
name = Light;
paths = (
{
closed = 1;
nodes = (
"323 430 LINE",
"221 432 LINE SMOOTH",
"101 434 OFFCURVE",
"53 391 OFFCURVE",
"53 297 CURVE SMOOTH",
"53 156 OFFCURVE",
"160 72 OFFCURVE",
"280 72 CURVE SMOOTH",
"336 72 OFFCURVE",
"399 90 OFFCURVE",
"451 128 CURVE",
"416 188 LINE",
"406 189 LINE",
"352 150 OFFCURVE",
"289 126 OFFCURVE",
"236 126 CURVE SMOOTH",
"168 126 OFFCURVE",
"116 166 OFFCURVE",
"116 252 CURVE SMOOTH",
"116 337 OFFCURVE",
"166 380 OFFCURVE",
"252 380 CURVE",
"377 375 LINE",
"385 384 LINE",
"389 491 LINE SMOOTH",
"390 518 OFFCURVE",
"400 525 OFFCURVE",
"425 525 CURVE",
"321 532 LINE"
);
},
{
closed = 1;
nodes = (
"-15 576 LINE",
"-20 569 LINE",
"-15 552 OFFCURVE",
"-10 539 OFFCURVE",
"-1 525 CURVE",
"503 525 LINE",
"507 533 LINE",
"490 571 LINE",
"485 576 LINE"
);
}
);
width = 487;
}
);
unicode = 091F;
},
{
glyphname = "ttha-deva";
lastChange = "2014-11-08 03:27:49 -0300";
layers = (
{
anchors = (
{
name = bottom;
position = "{275, 0}";
},
{
name = top;
position = "{365, 452}";
}
);
layerId = "B954E078-309A-4CF1-B397-1A2EBEB3E29A";
name = Light;
paths = (
{
closed = 1;
nodes = (
"335 430 LINE",
"222 432 LINE SMOOTH",
"110 434 OFFCURVE",
"54 393 OFFCURVE",
"54 295 CURVE SMOOTH",
"54 181 OFFCURVE",
"130 58 OFFCURVE",
"299 58 CURVE SMOOTH",
"421 58 OFFCURVE",
"498 123 OFFCURVE",
"498 222 CURVE SMOOTH",
"498 290 OFFCURVE",
"461 366 OFFCURVE",
"372 412 CURVE",
"356 383 LINE",
"415 348 OFFCURVE",
"434 306 OFFCURVE",
"434 265 CURVE SMOOTH",
"434 192 OFFCURVE",
"373 113 OFFCURVE",
"257 113 CURVE SMOOTH",
"165 113 OFFCURVE",
"117 162 OFFCURVE",
"117 246 CURVE SMOOTH",
"117 333 OFFCURVE",
"168 381 OFFCURVE",
"254 381 CURVE",
"388 375 LINE",
"396 384 LINE",
"400 491 LINE SMOOTH",
"401 518 OFFCURVE",
"411 525 OFFCURVE",
"436 525 CURVE",
"333 532 LINE"
);
},
{
closed = 1;
nodes = (
"-15 576 LINE",
"-20 569 LINE",
"-15 552 OFFCURVE",
"-10 539 OFFCURVE",
"-1 525 CURVE",
"566 525 LINE",
"570 533 LINE",
"553 571 LINE",
"548 576 LINE"
);
}
);
width = 550;
}
);
unicode = 0920;
},
{
glyphname = "dda-deva";
lastChange = "2014-11-08 03:27:49 -0300";
layers = (
{
anchors = (
{
name = bottom;
position = "{252, -30}";
},
{
name = nukta;
position = "{274, -115}";
},
{
name = top;
position = "{377, 452}";
}
);
layerId = "B954E078-309A-4CF1-B397-1A2EBEB3E29A";
name = Light;
paths = (
{
closed = 1;
nodes = (
"348 430 LINE",
"183 432 LINE",
"125 432 OFFCURVE",
"85 414 OFFCURVE",
"85 359 CURVE SMOOTH",
"85 289 OFFCURVE",
"147 195 OFFCURVE",
"227 195 CURVE SMOOTH",
"278 195 OFFCURVE",
"340 233 OFFCURVE",
"374 233 CURVE SMOOTH",
"393 233 OFFCURVE",
"404 221 OFFCURVE",
"404 194 CURVE SMOOTH",
"404 129 OFFCURVE",
"337 61 OFFCURVE",
"254 61 CURVE SMOOTH",
"217 61 OFFCURVE",
"140 74 OFFCURVE",
"80 216 CURVE",
"72 220 LINE",
"42 204 LINE",
"41 200 LINE",
"91 85 OFFCURVE",
"164 7 OFFCURVE",
"285 7 CURVE SMOOTH",
"396 7 OFFCURVE",
"462 72 OFFCURVE",
"462 148 CURVE SMOOTH",
"462 221 OFFCURVE",
"400 290 OFFCURVE",
"332 290 CURVE SMOOTH",
"282 290 OFFCURVE",
"222 253 OFFCURVE",
"185 253 CURVE SMOOTH",
"153 253 OFFCURVE",
"143 280 OFFCURVE",
"143 309 CURVE SMOOTH",
"143 362 OFFCURVE",
"178 381 OFFCURVE",
"246 381 CURVE",
"402 375 LINE",
"410 384 LINE",
"414 491 LINE SMOOTH",
"415 518 OFFCURVE",
"425 525 OFFCURVE",
"450 525 CURVE",
"346 533 LINE"
);
},
{
closed = 1;
nodes = (
"-15 576 LINE",
"-20 569 LINE",
"-15 552 OFFCURVE",
"-10 539 OFFCURVE",
"-1 525 CURVE",
"520 525 LINE",
"524 533 LINE",
"507 571 LINE",
"502 576 LINE"
);
}
);
width = 504;
}
);
unicode = 0921;
},
{
glyphname = "ddha-deva";
lastChange = "2014-11-08 03:27:49 -0300";
layers = (
{
anchors = (
{
name = bottom;
position = "{290, 0}";
},
{
name = nukta;
position = "{284, -115}";
},
{
name = top;
position = "{384, 452}";
}
);
layerId = "B954E078-309A-4CF1-B397-1A2EBEB3E29A";
name = Light;
paths = (
{
closed = 1;
nodes = (
"356 430 LINE",
"221 432 LINE SMOOTH",
"101 436 OFFCURVE",
"53 382 OFFCURVE",
"53 284 CURVE SMOOTH",
"53 136 OFFCURVE",
"161 28 OFFCURVE",
"316 28 CURVE SMOOTH",
"423 28 OFFCURVE",
"495 79 OFFCURVE",
"495 158 CURVE SMOOTH",
"495 236 OFFCURVE",
"427 298 OFFCURVE",
"344 298 CURVE SMOOTH",
"270 298 OFFCURVE",
"235 248 OFFCURVE",
"235 195 CURVE SMOOTH",
"235 141 OFFCURVE",
"271 89 OFFCURVE",
"344 49 CURVE",
"314 94 OFFCURVE",
"301 133 OFFCURVE",
"301 164 CURVE SMOOTH",
"301 214 OFFCURVE",
"336 243 OFFCURVE",
"386 243 CURVE SMOOTH",
"420 243 OFFCURVE",
"433 229 OFFCURVE",
"433 198 CURVE SMOOTH",
"433 126 OFFCURVE",
"360 83 OFFCURVE",
"275 83 CURVE SMOOTH",
"173 83 OFFCURVE",
"116 144 OFFCURVE",
"116 236 CURVE SMOOTH",
"116 323 OFFCURVE",
"167 381 OFFCURVE",
"253 381 CURVE",
"410 375 LINE",
"418 384 LINE",
"422 491 LINE SMOOTH",
"423 518 OFFCURVE",
"433 525 OFFCURVE",
"458 525 CURVE",
"354 532 LINE"
);
},
{
closed = 1;
nodes = (
"-15 576 LINE",
"-20 569 LINE",
"-15 552 OFFCURVE",
"-10 539 OFFCURVE",
"-1 525 CURVE",
"556 525 LINE",
"560 533 LINE",
"543 571 LINE",
"538 576 LINE"
);
}
);
width = 540;
}
);
unicode = 0922;
},
{
glyphname = "tha-deva";
lastChange = "2014-11-08 03:27:49 -0300";
layers = (
{
anchors = (
{
name = bottom;
position = "{432, 0}";
},
{
name = top;
position = "{438, 452}";
}
);
components = (
{
name = "th-deva";
transform = "{1, 0, 0, 1, 0, 0}";
}
);
layerId = "B954E078-309A-4CF1-B397-1A2EBEB3E29A";
name = Light;
paths = (
{
closed = 1;
nodes = (
"406 429 OFFCURVE",
"409 343 OFFCURVE",
"409 291 CURVE SMOOTH",
"409 231 OFFCURVE",
"405 159 OFFCURVE",
"398 0 CURVE",
"453 -34 LINE",
"469 -27 LINE",
"465 198 LINE SMOOTH",
"465 276 OFFCURVE",
"470 388 OFFCURVE",
"475 474 CURVE SMOOTH",
"477 511 OFFCURVE",
"492 525 OFFCURVE",
"525 525 CURVE",
"403 533 LINE"
);
},
{
closed = 1;
nodes = (
"290 576 LINE",
"285 569 LINE",
"290 552 OFFCURVE",
"295 539 OFFCURVE",
"304 525 CURVE",
"587 525 LINE",
"590 533 LINE",
"573 571 LINE",
"568 576 LINE"
);
}
);
width = 570;
}
);
unicode = 0925;
},
{
glyphname = "da-deva";
lastChange = "2014-11-08 03:27:49 -0300";
layers = (
{
anchors = (
{
name = bottom;
position = "{289, -103}";
},
{
name = top;
position = "{390, 452}";
}
);
layerId = "B954E078-309A-4CF1-B397-1A2EBEB3E29A";
name = Light;
paths = (
{
closed = 1;
nodes = (
"358 430 LINE",
"213 432 LINE SMOOTH",
"102 434 OFFCURVE",
"55 393 OFFCURVE",
"55 301 CURVE SMOOTH",
"55 186 OFFCURVE",
"128 63 OFFCURVE",
"279 63 CURVE SMOOTH",
"326 63 OFFCURVE",
"371 75 OFFCURVE",
"414 98 CURVE",
"367 169 LINE",
"329 134 OFFCURVE",
"293 118 OFFCURVE",
"244 118 CURVE SMOOTH",
"160 118 OFFCURVE",
"118 166 OFFCURVE",
"118 251 CURVE SMOOTH",
"118 340 OFFCURVE",
"165 381 OFFCURVE",
"245 381 CURVE",
"412 375 LINE",
"420 384 LINE",
"424 491 LINE SMOOTH",
"425 518 OFFCURVE",
"435 525 OFFCURVE",
"460 525 CURVE",
"356 532 LINE"
);
},
{
closed = 1;
nodes = (
"311 241 LINE",
"326 141 OFFCURVE",
"434 40 OFFCURVE",
"434 -14 CURVE SMOOTH",
"434 -34 OFFCURVE",
"418 -51 OFFCURVE",
"366 -86 CURVE SMOOTH",
"365 -98 LINE",
"426 -151 LINE",
"480 -121 OFFCURVE",
"496 -86 OFFCURVE",
"496 -52 CURVE SMOOTH",
"496 -14 OFFCURVE",
"476 20 OFFCURVE",
"417 101 CURVE",
"445 119 OFFCURVE",
"470 139 OFFCURVE",
"491 166 CURVE",
"491 185 LINE",
"448 228 OFFCURVE",
"395 255 OFFCURVE",
"335 264 CURVE"
);
},
{
closed = 1;
nodes = (
"-15 576 LINE",
"-20 569 LINE",
"-15 552 OFFCURVE",
"-10 539 OFFCURVE",
"-1 525 CURVE",
"554 525 LINE",
"558 533 LINE",
"541 571 LINE",
"536 576 LINE"
);
}
);
width = 538;
}
);
unicode = 0926;
},
{
glyphname = "dha-deva";
lastChange = "2014-11-08 03:27:49 -0300";
layers = (
{
components = (
{
name = "aaMatra-deva";
transform = "{1, 0, 0, 1, 334, 0}";
}
);
layerId = "B954E078-309A-4CF1-B397-1A2EBEB3E29A";
name = Light;
paths = (
{
closed = 1;
nodes = (
"424 238 OFFCURVE",
"345 143 OFFCURVE",
"243 143 CURVE SMOOTH",
"186 143 OFFCURVE",
"145 173 OFFCURVE",
"145 219 CURVE SMOOTH",
"145 261 OFFCURVE",
"180 302 OFFCURVE",
"303 311 CURVE",
"305 319 LINE",
"279 369 LINE",
"273 371 LINE",
"152 358 OFFCURVE",
"88 319 OFFCURVE",
"88 249 CURVE SMOOTH",
"88 160 OFFCURVE",
"191 88 OFFCURVE",
"287 88 CURVE SMOOTH",
"326 88 OFFCURVE",
"354 100 OFFCURVE",
"429 153 CURVE",
"451 145 LINE",
"451 390 LINE"
);
},
{
closed = 1;
nodes = (
"99 617 OFFCURVE",
"43 582 OFFCURVE",
"43 500 CURVE SMOOTH",
"43 414 OFFCURVE",
"106 344 OFFCURVE",
"177 304 CURVE",
"200 335 LINE",
"143 364 OFFCURVE",
"103 403 OFFCURVE",
"103 463 CURVE SMOOTH",
"103 535 OFFCURVE",
"160 565 OFFCURVE",
"204 565 CURVE SMOOTH",
"224 565 OFFCURVE",
"231 559 OFFCURVE",
"231 543 CURVE SMOOTH",
"231 506 OFFCURVE",
"193 467 OFFCURVE",
"135 464 CURVE SMOOTH",
"70 461 LINE",
"116 431 OFFCURVE",
"142 422 OFFCURVE",
"173 422 CURVE SMOOTH",
"211 422 OFFCURVE",
"285 438 OFFCURVE",
"285 508 CURVE SMOOTH",
"285 573 OFFCURVE",
"222 617 OFFCURVE",
"157 617 CURVE SMOOTH"
);
}
);
width = 599;
}
);
unicode = 0927;
},
{
glyphname = "pa-deva";
lastChange = "2014-11-08 03:27:49 -0300";
layers = (
{
components = (
{
name = "aaMatra-deva";
transform = "{1, 0, 0, 1, 242, 0}";
}
);
layerId = "B954E078-309A-4CF1-B397-1A2EBEB3E29A";
name = Light;
paths = (
{
closed = 1;
nodes = (
"61 300 LINE",
"61 243 OFFCURVE",
"131 151 OFFCURVE",
"233 151 CURVE SMOOTH",
"256 151 OFFCURVE",
"299 170 OFFCURVE",
"338 196 CURVE",
"353 190 LINE",
"353 332 LINE",
"319 250 OFFCURVE",
"244 202 OFFCURVE",
"189 202 CURVE SMOOTH",
"152 202 OFFCURVE",
"120 228 OFFCURVE",
"120 277 CURVE SMOOTH",
"120 322 OFFCURVE",
"132 452 OFFCURVE",
"137 493 CURVE SMOOTH",
"140 516 OFFCURVE",
"149 525 OFFCURVE",
"175 525 CURVE",
"69 532 LINE"
);
},
{
closed = 1;
nodes = (
"-15 576 LINE",
"-20 569 LINE",
"-15 552 OFFCURVE",
"-10 539 OFFCURVE",
"-1 525 CURVE",
"523 525 LINE",
"527 533 LINE",
"509 571 LINE",
"505 576 LINE"
);
}
);
width = 507;
}
);
unicode = 092A;
},
{
glyphname = "pha-deva";
lastChange = "2014-11-08 03:27:49 -0300";
layers = (
{
anchors = (
{
name = nukta;
position = "{142, 26}";
}
);
components = (
{
name = "aaMatra-deva";
transform = "{1, 0, 0, 1, 220, 0}";
}
);
layerId = "B954E078-309A-4CF1-B397-1A2EBEB3E29A";
name = Light;
paths = (
{
closed = 1;
nodes = (
"438 390 OFFCURVE",
"392 360 OFFCURVE",
"354 323 CURVE",
"354 219 LINE",
"409 273 OFFCURVE",
"462 340 OFFCURVE",
"543 340 CURVE SMOOTH",
"588 340 OFFCURVE",
"608 320 OFFCURVE",
"608 276 CURVE SMOOTH",
"608 217 OFFCURVE",
"572 152 OFFCURVE",
"504 106 CURVE",
"503 94 LINE",
"544 49 LINE",
"552 48 LINE",
"617 89 OFFCURVE",
"667 152 OFFCURVE",
"667 231 CURVE SMOOTH",
"667 325 OFFCURVE",
"596 390 OFFCURVE",
"502 390 CURVE SMOOTH"
);
},
{
closed = 1;
nodes = (
"60 305 LINE SMOOTH",
"58 244 OFFCURVE",
"136 157 OFFCURVE",
"223 157 CURVE SMOOTH",
"275 157 OFFCURVE",
"315 189 OFFCURVE",
"354 226 CURVE",
"354 330 LINE",
"296 275 OFFCURVE",
"253 207 OFFCURVE",
"184 207 CURVE",
"148 207 OFFCURVE",
"119 237 OFFCURVE",
"119 282 CURVE",
"119 326 OFFCURVE",
"131 466 OFFCURVE",
"135 492 CURVE SMOOTH",
"139 518 OFFCURVE",
"147 525 OFFCURVE",
"173 525 CURVE",
"67 532 LINE"
);
},
{
closed = 1;
nodes = (
"-15 576 LINE",
"-20 569 LINE",
"-15 552 OFFCURVE",
"-10 539 OFFCURVE",
"-1 525 CURVE",
"734 525 LINE",
"738 533 LINE",
"720 571 LINE",
"716 576 LINE"
);
}
);
width = 718;
}
);
unicode = 092B;
},
{
glyphname = "ba-deva";
lastChange = "2014-11-08 03:27:49 -0300";
layers = (
{
components = (
{
name = "aaMatra-deva";
transform = "{1, 0, 0, 1, 256, 0}";
}
);
layerId = "B954E078-309A-4CF1-B397-1A2EBEB3E29A";
name = Light;
paths = (
{
closed = 1;
nodes = (
"107 442 OFFCURVE",
"47 386 OFFCURVE",
"47 304 CURVE SMOOTH",
"47 201 OFFCURVE",
"145 108 OFFCURVE",
"255 108 CURVE SMOOTH",
"285 108 OFFCURVE",
"303 117 OFFCURVE",
"352 159 CURVE",
"394 140 LINE",
"395 390 LINE",
"364 390 LINE",
"357 242 OFFCURVE",
"301 161 OFFCURVE",
"205 161 CURVE SMOOTH",
"141 161 OFFCURVE",
"106 196 OFFCURVE",
"106 261 CURVE SMOOTH",
"106 339 OFFCURVE",
"156 390 OFFCURVE",
"234 390 CURVE SMOOTH",
"288 390 OFFCURVE",
"337 365 OFFCURVE",
"382 313 CURVE",
"401 340 LINE",
"328 410 OFFCURVE",
"263 442 OFFCURVE",
"196 442 CURVE SMOOTH"
);
},
{
closed = 1;
nodes = (
"115 390 LINE",
"303 144 LINE",
"331 164 LINE",
"142 410 LINE"
);
},
{
closed = 1;
nodes = (
"-15 576 LINE",
"-20 569 LINE",
"-14 551 OFFCURVE",
"-10 540 OFFCURVE",
"-1 525 CURVE",
"536 525 LINE",
"540 533 LINE",
"523 571 LINE",
"518 576 LINE"
);
}
);
width = 521;
}
);
unicode = 092C;
},
{
glyphname = "ya-deva";
lastChange = "2014-11-08 03:27:49 -0300";
layers = (
{
anchors = (
{
name = bottom;
position = "{386, 0}";
},
{
name = nukta;
position = "{120, 15}";
},
{
name = top;
position = "{392, 452}";
}
);
components = (
{
name = "y-deva";
transform = "{1, 0, 0, 1, 0, 0}";
}
);
layerId = "B954E078-309A-4CF1-B397-1A2EBEB3E29A";
name = Light;
paths = (
{
closed = 1;
nodes = (
"360 429 OFFCURVE",
"363 343 OFFCURVE",
"363 291 CURVE SMOOTH",
"363 231 OFFCURVE",
"359 159 OFFCURVE",
"352 0 CURVE",
"407 -34 LINE",
"423 -27 LINE",
"419 198 LINE SMOOTH",
"419 276 OFFCURVE",
"424 388 OFFCURVE",
"429 474 CURVE SMOOTH",
"431 511 OFFCURVE",
"446 525 OFFCURVE",
"479 525 CURVE",
"357 533 LINE"
);
},
{
closed = 1;
nodes = (
"-15 576 LINE",
"-20 569 LINE",
"-15 552 OFFCURVE",
"-10 539 OFFCURVE",
"-1 525 CURVE",
"541 525 LINE",
"544 533 LINE",
"527 571 LINE",
"522 576 LINE"
);
}
);
width = 524;
}
);
unicode = 092F;
},
{
glyphname = "ra-deva";
lastChange = "2014-11-08 03:27:49 -0300";
layers = (
{
anchors = (
{
name = bottom;
position = "{206, -40}";
},
{
name = nukta;
position = "{69, 0}";
},
{
name = top;
position = "{211, 452}";
}
);
layerId = "B954E078-309A-4CF1-B397-1A2EBEB3E29A";
name = Light;
paths = (
{
closed = 1;
nodes = (
"156 329 OFFCURVE",
"122 334 OFFCURVE",
"88 334 CURVE SMOOTH",
"76 334 OFFCURVE",
"64 333 OFFCURVE",
"52 332 CURVE",
"33 298 LINE",
"95 184 OFFCURVE",
"178 75 OFFCURVE",
"283 -28 CURVE",
"328 14 LINE",
"328 26 LINE",
"248 83 OFFCURVE",
"178 153 OFFCURVE",
"117 234 CURVE",
"190 320 LINE"
);
},
{
closed = 1;
nodes = (
"150 525 LINE",
"187 525 OFFCURVE",
"218 489 OFFCURVE",
"218 438 CURVE SMOOTH",
"218 385 OFFCURVE",
"170 323 OFFCURVE",
"70 249 CURVE",
"120 190 LINE",
"228 267 OFFCURVE",
"279 336 OFFCURVE",
"279 404 CURVE SMOOTH",
"279 447 OFFCURVE",
"259 492 OFFCURVE",
"218 539 CURVE"
);
},
{
closed = 1;
nodes = (
"-15 576 LINE",
"-20 569 LINE",
"-14 549 OFFCURVE",
"-9 538 OFFCURVE",
"-1 525 CURVE",
"382 525 LINE",
"386 533 LINE",
"368 571 LINE",
"363 576 LINE"
);
}
);
width = 366;
}
);
unicode = 0930;
},
{
glyphname = "lla-deva";
lastChange = "2014-11-08 03:27:49 -0300";
layers = (
{
anchors = (
{
name = bottom;
position = "{366, 40}";
},
{
name = nukta;
position = "{154, -25}";
},
{
name = top;
position = "{501, 452}";
}
);
components = (
{
name = "ll-deva";
transform = "{1, 0, 0, 1, 0, 0}";
}
);
layerId = "B954E078-309A-4CF1-B397-1A2EBEB3E29A";
name = Light;
paths = (
{
closed = 1;
nodes = (
"468 374 LINE",
"527 374 LINE",
"532 484 LINE SMOOTH",
"533 512 OFFCURVE",
"544 525 OFFCURVE",
"575 525 CURVE",
"464 533 LINE"
);
}
);
width = 710;
}
);
unicode = 0933;
},
{
glyphname = "va-deva";
lastChange = "2014-11-08 03:27:49 -0300";
layers = (
{
components = (
{
name = "aaMatra-deva";
transform = "{1, 0, 0, 1, 256, 0}";
}
);
layerId = "B954E078-309A-4CF1-B397-1A2EBEB3E29A";
name = Light;
paths = (
{
closed = 1;
nodes = (
"107 442 OFFCURVE",
"47 386 OFFCURVE",
"47 304 CURVE SMOOTH",
"47 201 OFFCURVE",
"145 108 OFFCURVE",
"255 108 CURVE SMOOTH",
"285 108 OFFCURVE",
"303 117 OFFCURVE",
"352 159 CURVE",
"394 140 LINE",
"395 390 LINE",
"364 390 LINE",
"357 242 OFFCURVE",
"301 161 OFFCURVE",
"205 161 CURVE SMOOTH",
"141 161 OFFCURVE",
"106 196 OFFCURVE",
"106 261 CURVE SMOOTH",
"106 339 OFFCURVE",
"156 390 OFFCURVE",
"234 390 CURVE SMOOTH",
"288 390 OFFCURVE",
"337 365 OFFCURVE",
"382 313 CURVE",
"401 340 LINE",
"328 410 OFFCURVE",
"263 442 OFFCURVE",
"196 442 CURVE SMOOTH"
);
},
{
closed = 1;
nodes = (
"-15 576 LINE",
"-20 569 LINE",
"-14 551 OFFCURVE",
"-10 540 OFFCURVE",
"-1 525 CURVE",
"536 525 LINE",
"540 533 LINE",
"523 571 LINE",
"518 576 LINE"
);
}
);
width = 520;
}
);
unicode = 0935;
},
{
glyphname = "ssa-deva";
lastChange = "2014-11-08 03:27:49 -0300";
layers = (
{
anchors = (
{
name = bottom;
position = "{370, 0}";
},
{
name = top;
position = "{376, 452}";
}
);
layerId = "B954E078-309A-4CF1-B397-1A2EBEB3E29A";
name = Light;
paths = (
{
closed = 1;
nodes = (
"61 300 LINE",
"61 243 OFFCURVE",
"131 151 OFFCURVE",
"233 151 CURVE SMOOTH",
"256 151 OFFCURVE",
"299 170 OFFCURVE",
"338 196 CURVE",
"353 190 LINE",
"353 332 LINE",
"319 250 OFFCURVE",
"244 202 OFFCURVE",
"189 202 CURVE SMOOTH",
"152 202 OFFCURVE",
"120 228 OFFCURVE",
"120 277 CURVE SMOOTH",
"120 322 OFFCURVE",
"132 452 OFFCURVE",
"137 493 CURVE SMOOTH",
"140 516 OFFCURVE",
"149 525 OFFCURVE",
"175 525 CURVE",
"69 532 LINE"
);
},
{
closed = 1;
nodes = (
"126 526 LINE",
"292 234 LINE",
"322 251 LINE",
"155 542 LINE"
);
},
{
closed = 1;
nodes = (
"-15 576 LINE",
"-20 569 LINE",
"-15 552 OFFCURVE",
"-10 539 OFFCURVE",
"-1 525 CURVE",
"523 525 LINE",
"527 533 LINE",
"509 571 LINE",
"505 576 LINE"
);
},
{
closed = 1;
nodes = (
"343 429 OFFCURVE",
"346 343 OFFCURVE",
"346 291 CURVE SMOOTH",
"346 231 OFFCURVE",
"342 159 OFFCURVE",
"335 0 CURVE",
"390 -34 LINE",
"406 -27 LINE",
"402 198 LINE SMOOTH",
"402 276 OFFCURVE",
"407 388 OFFCURVE",
"412 474 CURVE SMOOTH",
"414 511 OFFCURVE",
"429 525 OFFCURVE",
"462 525 CURVE",
"340 533 LINE"
);
}
);
width = 507;
}
);
unicode = 0937;
},
{
glyphname = "ha-deva";
lastChange = "2014-11-08 03:27:49 -0300";
layers = (
{
anchors = (
{
name = bottom;
position = "{266, -107}";
},
{
name = top;
position = "{362, 452}";
}
);
layerId = "B954E078-309A-4CF1-B397-1A2EBEB3E29A";
name = Light;
paths = (
{
closed = 1;
nodes = (
"143 275 OFFCURVE",
"72 222 OFFCURVE",
"72 140 CURVE SMOOTH",
"72 27 OFFCURVE",
"205 -68 OFFCURVE",
"404 -99 CURVE",
"422 -47 LINE",
"418 -39 LINE",
"243 -35 OFFCURVE",
"136 23 OFFCURVE",
"136 105 CURVE SMOOTH",
"136 176 OFFCURVE",
"202 223 OFFCURVE",
"301 223 CURVE SMOOTH",
"343 223 OFFCURVE",
"360 210 OFFCURVE",
"360 187 CURVE SMOOTH",
"360 165 OFFCURVE",
"340 130 OFFCURVE",
"310 100 CURVE",
"311 92 LINE",
"372 49 LINE",
"404 84 OFFCURVE",
"425 124 OFFCURVE",
"425 151 CURVE SMOOTH",
"425 220 OFFCURVE",
"354 275 OFFCURVE",
"255 275 CURVE SMOOTH"
);
},
{
closed = 1;
nodes = (
"332 430 LINE",
"164 432 LINE",
"107 432 OFFCURVE",
"66 414 OFFCURVE",
"66 358 CURVE SMOOTH",
"66 312 OFFCURVE",
"94 256 OFFCURVE",
"133 222 CURVE",
"163 237 LINE",
"136 269 OFFCURVE",
"124 290 OFFCURVE",
"124 316 CURVE SMOOTH",
"124 359 OFFCURVE",
"158 381 OFFCURVE",
"226 381 CURVE",
"386 375 LINE",
"394 384 LINE",
"398 491 LINE SMOOTH",
"399 518 OFFCURVE",
"409 525 OFFCURVE",
"434 525 CURVE",
"330 533 LINE"
);
},
{
closed = 1;
nodes = (
"-15 576 LINE",
"-20 569 LINE",
"-15 552 OFFCURVE",
"-10 539 OFFCURVE",
"-1 525 CURVE",
"501 525 LINE",
"505 533 LINE",
"490 571 LINE",
"485 576 LINE"
);
}
);
width = 485;
}
);
unicode = 0939;
},
{
glyphname = "jjya-deva";
lastChange = "2014-11-08 03:27:49 -0300";
layers = (
{
anchors = (
{
name = bottom;
position = "{382, 0}";
},
{
name = nukta;
position = "{120, 15}";
},
{
name = top;
position = "{390, 452}";
}
);
components = (
{
disableAlignment = 1;
name = "ya-deva";
transform = "{1, 0, 0, 1, 0, 0}";
}
);
layerId = "B954E078-309A-4CF1-B397-1A2EBEB3E29A";
leftMetricsKey = "ya-deva";
rightMetricsKey = "ya-deva";
name = Light;
paths = (
{
closed = 1;
nodes = (
"141 568 LINE",
"113 549 LINE",
"340 229 LINE",
"369 248 LINE"
);
}
);
width = 524;
}
);
unicode = 097A;
},
{
glyphname = "gga-deva";
lastChange = "2014-11-08 03:27:49 -0300";
layers = (
{
components = (
{
name = "ga-deva";
transform = "{1, 0, 0, 1, 0, 0}";
}
);
layerId = "B954E078-309A-4CF1-B397-1A2EBEB3E29A";
name = Light;
paths = (
{
closed = 1;
nodes = (
"15 16 LINE",
"10 9 LINE",
"16 -9 OFFCURVE",
"20 -20 OFFCURVE",
"29 -35 CURVE",
"436 -35 LINE",
"445 -27 LINE",
"443 16 LINE"
);
}
);
width = 545;
}
);
unicode = 097B;
},
{
glyphname = "jja-deva";
lastChange = "2014-11-08 03:27:49 -0300";
layers = (
{
components = (
{
name = "ja-deva";
transform = "{1, 0, 0, 1, 0, 0}";
}
);
layerId = "B954E078-309A-4CF1-B397-1A2EBEB3E29A";
name = Light;
paths = (
{
closed = 1;
nodes = (
"65 16 LINE",
"60 9 LINE",
"66 -9 OFFCURVE",
"70 -20 OFFCURVE",
"79 -35 CURVE",
"603 -35 LINE",
"612 -27 LINE",
"610 16 LINE"
);
}
);
width = 712;
}
);
unicode = 097C;
},
{
glyphname = "ddda-deva";
lastChange = "2014-11-08 03:27:49 -0300";
layers = (
{
components = (
{
name = "dda-deva";
transform = "{1, 0, 0, 1, 0, 0}";
}
);
layerId = "B954E078-309A-4CF1-B397-1A2EBEB3E29A";
leftMetricsKey = "da-deva";
rightMetricsKey = "da-deva";
name = Light;
paths = (
{
closed = 1;
nodes = (
"63 -54 LINE",
"58 -61 LINE",
"64 -79 OFFCURVE",
"68 -90 OFFCURVE",
"77 -105 CURVE",
"456 -105 LINE",
"462 -97 LINE",
"445 -54 LINE"
);
}
);
width = 504;
}
);
unicode = 097E;
},
{
glyphname = "bba-deva";
lastChange = "2014-11-08 03:27:49 -0300";
layers = (
{
components = (
{
name = "ba-deva";
transform = "{1, 0, 0, 1, 0, 0}";
}
);
layerId = "B954E078-309A-4CF1-B397-1A2EBEB3E29A";
name = Light;
paths = (
{
closed = 1;
nodes = (
"65 16 LINE",
"60 9 LINE",
"66 -9 OFFCURVE",
"70 -20 OFFCURVE",
"79 -35 CURVE",
"412 -35 LINE",
"421 -27 LINE",
"419 16 LINE"
);
}
);
width = 521;
}
);
unicode = 097F;
},
{
glyphname = "ra-deva.001";
lastChange = "2014-11-08 03:27:49 -0300";
layers = (
{
anchors = (
{
name = bottom;
position = "{206, -40}";
},
{
name = nukta;
position = "{69, 0}";
},
{
name = top;
position = "{211, 452}";
}
);
layerId = "B954E078-309A-4CF1-B397-1A2EBEB3E29A";
name = Light;
paths = (
{
closed = 1;
nodes = (
"156 329 OFFCURVE",
"122 334 OFFCURVE",
"88 334 CURVE SMOOTH",
"76 334 OFFCURVE",
"64 333 OFFCURVE",
"52 332 CURVE",
"33 298 LINE",
"95 184 OFFCURVE",
"178 75 OFFCURVE",
"283 -28 CURVE",
"328 14 LINE",
"328 26 LINE",
"248 83 OFFCURVE",
"178 153 OFFCURVE",
"117 234 CURVE",
"190 320 LINE"
);
},
{
closed = 1;
nodes = (
"150 525 LINE",
"187 525 OFFCURVE",
"218 489 OFFCURVE",
"218 438 CURVE SMOOTH",
"218 385 OFFCURVE",
"170 323 OFFCURVE",
"70 249 CURVE",
"120 190 LINE",
"228 267 OFFCURVE",
"279 336 OFFCURVE",
"279 404 CURVE SMOOTH",
"279 447 OFFCURVE",
"259 492 OFFCURVE",
"218 539 CURVE"
);
},
{
closed = 1;
nodes = (
"-15 576 LINE",
"-20 569 LINE",
"-14 549 OFFCURVE",
"-9 538 OFFCURVE",
"-1 525 CURVE",
"382 525 LINE",
"386 533 LINE",
"368 571 LINE",
"363 576 LINE"
);
}
);
width = 366;
}
);
},
{
glyphname = "kha-deva.alt";
lastChange = "2014-11-08 03:27:49 -0300";
layers = (
{
anchors = (
{
name = bottom;
position = "{630, -20}";
},
{
name = nukta;
position = "{70, 0}";
},
{
name = top;
position = "{636, 452}";
}
);
layerId = "B954E078-309A-4CF1-B397-1A2EBEB3E29A";
name = Light;
paths = (
{
closed = 1;
nodes = (
"-15 576 LINE",
"-20 569 LINE",
"-15 555 OFFCURVE",
"-17 558 OFFCURVE",
"-1 525 CURVE",
"783 525 LINE",
"787 533 LINE",
"769 571 LINE",
"764 576 LINE"
);
},
{
closed = 1;
nodes = (
"38 307 LINE",
"97 142 OFFCURVE",
"192 57 OFFCURVE",
"319 57 CURVE SMOOTH",
"333 57 OFFCURVE",
"347 58 OFFCURVE",
"362 60 CURVE",
"366 71 LINE",
"351 134 LINE",
"317 125 OFFCURVE",
"289 120 OFFCURVE",
"264 120 CURVE SMOOTH",
"188 120 OFFCURVE",
"147 170 OFFCURVE",
"74 317 CURVE"
);
},
{
closed = 1;
nodes = (
"38 307 LINE",
"115 235 LINE",
"196 313 LINE",
"150 329 OFFCURVE",
"105 338 OFFCURVE",
"59 339 CURVE"
);
},
{
closed = 1;
nodes = (
"368 459 OFFCURVE",
"313 409 OFFCURVE",
"313 333 CURVE SMOOTH",
"313 237 OFFCURVE",
"401 151 OFFCURVE",
"501 151 CURVE SMOOTH",
"543 151 OFFCURVE",
"567 164 OFFCURVE",
"634 222 CURVE",
"634 410 LINE",
"602 295 OFFCURVE",
"552 198 OFFCURVE",
"462 198 CURVE SMOOTH",
"405 198 OFFCURVE",
"372 232 OFFCURVE",
"372 292 CURVE SMOOTH",
"372 362 OFFCURVE",
"418 407 OFFCURVE",
"491 407 CURVE SMOOTH",
"544 407 OFFCURVE",
"591 382 OFFCURVE",
"633 332 CURVE",
"633 380 LINE",
"568 434 OFFCURVE",
"511 459 OFFCURVE",
"452 459 CURVE SMOOTH"
);
},
{
closed = 1;
nodes = (
"136 525 LINE",
"173 525 OFFCURVE",
"204 489 OFFCURVE",
"204 438 CURVE SMOOTH",
"204 388 OFFCURVE",
"161 328 OFFCURVE",
"70 258 CURVE",
"120 199 LINE",
"219 273 OFFCURVE",
"265 339 OFFCURVE",
"265 404 CURVE SMOOTH",
"265 447 OFFCURVE",
"245 492 OFFCURVE",
"204 539 CURVE"
);
},
{
closed = 1;
nodes = (
"604 429 OFFCURVE",
"607 343 OFFCURVE",
"607 291 CURVE SMOOTH",
"607 231 OFFCURVE",
"603 139 OFFCURVE",
"596 -20 CURVE",
"651 -54 LINE",
"667 -47 LINE",
"663 198 LINE SMOOTH",
"662 276 OFFCURVE",
"668 388 OFFCURVE",
"673 474 CURVE SMOOTH",
"675 511 OFFCURVE",
"690 525 OFFCURVE",
"723 525 CURVE",
"601 533 LINE"
);
}
);
width = 767;
}
);
},
{
glyphname = "da-deva.alt";
lastChange = "2014-11-08 03:27:49 -0300";
layers = (
{
anchors = (
{
name = bottom;
position = "{368, 0}";
},
{
name = top;
position = "{387, 452}";
}
);
layerId = "B954E078-309A-4CF1-B397-1A2EBEB3E29A";
name = Light;
paths = (
{
closed = 1;
nodes = (
"355 430 LINE",
"210 432 LINE SMOOTH",
"99 434 OFFCURVE",
"52 393 OFFCURVE",
"52 301 CURVE SMOOTH",
"52 186 OFFCURVE",
"125 63 OFFCURVE",
"276 63 CURVE SMOOTH",
"323 63 OFFCURVE",
"368 75 OFFCURVE",
"411 98 CURVE",
"364 169 LINE",
"326 134 OFFCURVE",
"290 118 OFFCURVE",
"241 118 CURVE SMOOTH",
"157 118 OFFCURVE",
"115 166 OFFCURVE",
"115 251 CURVE SMOOTH",
"115 340 OFFCURVE",
"162 381 OFFCURVE",
"242 381 CURVE",
"409 375 LINE",
"417 384 LINE",
"421 491 LINE SMOOTH",
"422 518 OFFCURVE",
"432 525 OFFCURVE",
"457 525 CURVE",
"353 532 LINE"
);
},
{
closed = 1;
nodes = (
"315 243 LINE",
"336 122 OFFCURVE",
"402 7 OFFCURVE",
"503 -83 CURVE",
"545 -44 LINE",
"545 -34 LINE",
"489 3 OFFCURVE",
"445 48 OFFCURVE",
"413 99 CURVE",
"446 118 OFFCURVE",
"467 135 OFFCURVE",
"487 157 CURVE",
"487 176 LINE",
"447 222 OFFCURVE",
"399 253 OFFCURVE",
"341 265 CURVE"
);
},
{
closed = 1;
nodes = (
"-15 576 LINE",
"-20 569 LINE",
"-15 552 OFFCURVE",
"-10 539 OFFCURVE",
"-1 525 CURVE",
"587 525 LINE",
"591 533 LINE",
"574 571 LINE",
"569 576 LINE"
);
}
);
width = 571;
}
);
},
{
color = 3;
glyphname = "ha-deva.comp";
lastChange = "2014-11-08 03:27:49 -0300";
layers = (
{
anchors = (
{
name = bottom;
position = "{265, 0}";
},
{
name = top;
position = "{384, 452}";
}
);
layerId = "B954E078-309A-4CF1-B397-1A2EBEB3E29A";
name = Light;
paths = (
{
closed = 1;
nodes = (
"141 286 OFFCURVE",
"68 225 OFFCURVE",
"68 133 CURVE SMOOTH",
"68 38 OFFCURVE",
"145 -53 OFFCURVE",
"306 -148 CURVE",
"331 -111 LINE",
"327 -102 LINE",
"186 -34 OFFCURVE",
"132 22 OFFCURVE",
"132 102 CURVE SMOOTH",
"132 184 OFFCURVE",
"193 234 OFFCURVE",
"293 234 CURVE SMOOTH",
"367 234 OFFCURVE",
"402 206 OFFCURVE",
"402 148 CURVE SMOOTH",
"402 108 OFFCURVE",
"390 56 OFFCURVE",
"363 -18 CURVE",
"367 -28 LINE",
"432 -51 LINE",
"454 9 OFFCURVE",
"467 70 OFFCURVE",
"467 111 CURVE SMOOTH",
"467 210 OFFCURVE",
"372 286 OFFCURVE",
"250 286 CURVE SMOOTH"
);
},
{
closed = 1;
nodes = (
"354 430 LINE",
"186 432 LINE",
"120 432 OFFCURVE",
"88 408 OFFCURVE",
"88 358 CURVE SMOOTH",
"88 312 OFFCURVE",
"116 256 OFFCURVE",
"155 222 CURVE",
"185 237 LINE",
"157 269 OFFCURVE",
"146 291 OFFCURVE",
"146 316 CURVE SMOOTH",
"146 359 OFFCURVE",
"180 381 OFFCURVE",
"248 381 CURVE",
"408 375 LINE",
"416 384 LINE",
"420 491 LINE SMOOTH",
"421 517 OFFCURVE",
"430 525 OFFCURVE",
"456 525 CURVE",
"352 533 LINE"
);
},
{
closed = 1;
nodes = (
"-15 576 LINE",
"-20 569 LINE",
"-14 551 OFFCURVE",
"-10 540 OFFCURVE",
"-1 525 CURVE",
"543 525 LINE",
"547 533 LINE",
"532 571 LINE",
"527 576 LINE"
);
}
);
width = 527;
}
);
},
{
glyphname = "la-deva.loclMAR";
lastChange = "2014-11-08 03:27:49 -0300";
layers = (
{
anchors = (
{
name = bottom;
position = "{300, 0}";
},
{
name = top;
position = "{451, 452}";
}
);
layerId = "B954E078-309A-4CF1-B397-1A2EBEB3E29A";
name = Light;
paths = (
{
closed = 1;
nodes = (
"370 416 OFFCURVE",
"312 366 OFFCURVE",
"258 248 CURVE",
"315 214 LINE",
"325 214 LINE",
"374 320 OFFCURVE",
"420 362 OFFCURVE",
"486 362 CURVE SMOOTH",
"531 362 OFFCURVE",
"552 343 OFFCURVE",
"552 303 CURVE SMOOTH",
"552 243 OFFCURVE",
"503 151 OFFCURVE",
"413 41 CURVE",
"415 32 LINE",
"478 -10 LINE",
"569 99 OFFCURVE",
"614 188 OFFCURVE",
"614 259 CURVE SMOOTH",
"614 348 OFFCURVE",
"543 416 OFFCURVE",
"450 416 CURVE SMOOTH"
);
},
{
closed = 1;
nodes = (
"99 425 OFFCURVE",
"54 375 OFFCURVE",
"54 291 CURVE SMOOTH",
"54 181 OFFCURVE",
"133 78 OFFCURVE",
"283 -9 CURVE",
"310 19 LINE",
"309 25 LINE",
"197 72 OFFCURVE",
"121 166 OFFCURVE",
"121 258 CURVE SMOOTH",
"121 327 OFFCURVE",
"162 370 OFFCURVE",
"227 370 CURVE SMOOTH",
"268 370 OFFCURVE",
"313 353 OFFCURVE",
"350 324 CURVE",
"362 356 LINE",
"295 400 OFFCURVE",
"225 425 OFFCURVE",
"173 425 CURVE SMOOTH"
);
},
{
closed = 1;
nodes = (
"-15 576 LINE",
"-20 569 LINE",
"-15 552 OFFCURVE",
"-10 539 OFFCURVE",
"-1 525 CURVE",
"683 525 LINE",
"687 533 LINE",
"670 571 LINE",
"665 576 LINE"
);
},
{
closed = 1;
nodes = (
"421 383 LINE",
"483 384 LINE",
"487 491 LINE SMOOTH",
"488 518 OFFCURVE",
"497 525 OFFCURVE",
"523 525 CURVE",
"419 533 LINE"
);
}
);
width = 667;
}
);
},
{
glyphname = "jha-deva.loclNEP";
lastChange = "2014-11-08 03:27:49 -0300";
layers = (
{
anchors = (
{
name = bottom;
position = "{504, 0}";
},
{
name = top;
position = "{512, 452}";
}
);
components = (
{
name = "bha-deva";
transform = "{1, 0, 0, 1, 0, 0}";
}
);
layerId = "B954E078-309A-4CF1-B397-1A2EBEB3E29A";
name = Light;
paths = (
{
closed = 1;
nodes = (
"599 424 OFFCURVE",
"555 392 OFFCURVE",
"520 354 CURVE",
"520 245 LINE",
"568 305 OFFCURVE",
"616 374 OFFCURVE",
"708 374 CURVE SMOOTH",
"753 374 OFFCURVE",
"773 358 OFFCURVE",
"773 312 CURVE SMOOTH",
"773 250 OFFCURVE",
"737 186 OFFCURVE",
"669 140 CURVE",
"668 128 LINE",
"709 83 LINE",
"717 82 LINE",
"785 125 OFFCURVE",
"832 188 OFFCURVE",
"832 265 CURVE SMOOTH",
"832 357 OFFCURVE",
"764 424 OFFCURVE",
"666 424 CURVE SMOOTH"
);
},
{
closed = 1;
nodes = (
"507 576 LINE",
"502 569 LINE",
"507 552 OFFCURVE",
"512 539 OFFCURVE",
"521 525 CURVE",
"899 525 LINE",
"903 533 LINE",
"886 571 LINE",
"881 576 LINE"
);
}
);
width = 883;
}
);
},
